<svg xmlns="http://www.w3.org/2000/svg" xml:space="preserve" style="fill-rule:evenodd;clip-rule:evenodd;stroke-linejoin:round;stroke-miterlimit:2" viewBox="0 0 1500 1500"><path d="M0 300h150v150H0z" style="fill:#fff" transform="translate(600 450)"/><path d="M0 300h150v150H0z" style="fill:#c1e1c1" transform="matrix(4.00231 0 0 1 0 450)"/><path d="M0 300h150v150H0z" style="fill:#afeeee" transform="matrix(4 0 0 1 600 300)"/><path d="M0 300h150v150H0z" style="fill:#ffcccb" transform="matrix(4 0 0 1 0 300)"/><path d="M0 300h150v150H0z" style="fill:#bcddff" transform="matrix(10 0 0 2 0 -300)"/><text x="29.16" y="89.008" style="font-family:&quot;SourceSans3Roman-Bold&quot;,&quot;Source Sans 3&quot;,sans-serif;font-weight:200;font-size:40px" transform="translate(600 750)">NEUT</text><text x="64.931" y="52.442" style="font-family:&quot;SourceSans3Roman-Bold&quot;,&quot;Source Sans 3&quot;,sans-serif;font-weight:200;font-size:42.667px" transform="translate(450 825)">3</text><path d="M8639 426 6546 3840l2873 1321 1899-3052L8639 426Z" style="fill:#fff" transform="matrix(.0028 0 0 .0028 493.261 764.688)"/><path d="m518.935 763.626 7.522 4.725a2.666 2.666 0 0 1 .845 3.667l-5.331 8.57a2.667 2.667 0 0 1-3.379 1.013l-8.066-3.709a2.667 2.667 0 0 1-1.16-3.816l5.877-9.586a2.667 2.667 0 0 1 3.692-.864Zm-1.419 2.258-5.876 9.585 8.066 3.71 5.332-8.57-7.522-4.725Z"/><path d="m8639 426-43-27 5-7 6-6 8-5 8-3 8-2 9-1 9 1 9 3 8 4-27 43Zm3652 2322-1800 2958 2191 1093-148 1184 2484-3779-2727-1456Z" style="fill:#fff" transform="matrix(.0028 0 0 .0028 493.261 764.688)"/><path d="M517.123 768.314c-.874-.462-3.356-2.009-1.886-4.072l.002-.003a2.811 2.811 0 0 1 .796-.742 2.622 2.622 0 0 1 .5-.244 2.852 2.852 0 0 1 .69-.162 1.416 1.416 0 0 0-.278.067c.06.019.114.07.162.146a.94.94 0 0 0-.204.266c.07.165.13.385.184.64-.065.396-.064.867-.027 1.349.004.243.016.49.035.732.105.581.19 1.138.247 1.539l.097.29.002.04-.07-.126.017.124.055.109.001.04a12.31 12.31 0 0 1-.045-.064l.01.07a9.628 9.628 0 0 1-.054-.063l.006.023.043.077-.031-.031.015.058-.003-.001-.013-.01.002.007-.017-.004.001.005.017.004v.005l-.014-.002v.003l.015.003.003.013.003.014-.012-.007.013.037a4.437 4.437 0 0 1-.175-.085l.113.019-.007-.005-.114-.018a7.189 7.189 0 0 1-.067-.035l.155.037-.01-.007-.157-.036Zm.101-5.223a2.352 2.352 0 0 1 .616.004c.161.012.344.05.549.119.115.036.24.086.374.153.103.052.157.178.175.359.207.64-.501 2.587-.992 3.804-.143.38-.262.674-.318.813l1.769-.91-1.775.924.407-.168 1.368-.755.028-.015.424-.234-1.461.855.924-.382-.953.4-.356.207.859-.246-.874.256-.118.069.537-.098-.543.101-.038.023.314-.04-.317.041-.307.18-1.535-.482 1.415.406-.011-.031.005.002-.006-.032.018.01-.006-.023-.003-.012-.015-.002v-.004l.014.003v-.004l-.015-.004-.001-.005.01.003.004.003v-.002l.03.007-.002-.011-.012-.023.01.011-.005-.047.037.043-.002-.05.028.039.001-.022a12.78 12.78 0 0 1-.03-.057l-.002-.107.033.06-.035-.1a43.783 43.783 0 0 0-.008-.257c-.127-.555-.306-1.446-.371-2.304a6.62 6.62 0 0 1 .066-1.144 7.85 7.85 0 0 0-.04-.205c.034-.21.087-.399.161-.557a1.371 1.371 0 0 0-.14-.349.804.804 0 0 1 .275-.16.201.201 0 0 0-.16-.053Zm-.014 5.268-.508-.085.5.08.008.005Zm-.075-.04-.757-.181.745.176.012.006Zm.468.084-.01.027.051-.03h.002l.016-.008-.057.007-.002.004Zm.376-.186-.361.151-.004.01.154-.045.21-.116Zm-.233.128-.135.04-.003.006.081-.015.057-.03Zm-.066.036-.073.014v.002l.06-.008.013-.008Zm-.26.02.002.001-.001-.008-.014-.002.013.01Zm-.019-.014.02.003v-.001l-.026-.006.006.004Zm.115-2.503.076-.12-.022-.012-.025-.008-.026-.003-.025.003-.022.005-.023.009-.022.014-.017.017-.014.02.12.075Zm11.51 4.167 7.656 4.088a2.667 2.667 0 0 1 .973 3.817l-6.974 10.61a2.667 2.667 0 0 1-4.875-1.795l.181-1.45-4.461-2.226a2.667 2.667 0 0 1-1.088-3.773l5.054-8.305a2.667 2.667 0 0 1 3.534-.966Zm-1.256 2.352-5.054 8.306 6.152 3.068-.416 3.325 6.975-10.61-7.657-4.089Z"/><path d="m12291 2748-44-27 6-7 6-6 8-5 8-3 8-2 9-1 9 1 9 2 5 3-24 45Zm3410 2731-3896 5462 2337 864 3847-4552h-49l-2239-1774Z" style="fill:#fff" transform="matrix(.0028 0 0 .0028 493.261 764.688)"/><path d="m527.77 775.07-1.515-.467 1.392.391-.01-.034.003.002-.006-.032.021.013-.007-.028-.017-.002v-.002l.017.002-.005-.017.024.02h.008l-.001-.006-.008-.014-.025-.007v-.004l.022.006-.03-.05.037.038-.006-.048.037.044-.001-.05.028.039v-.022l-.03-.057v-.075l.02.034-.021-.048-.02-.546c-.12-.722-.265-1.818-.221-2.74l-.018-.137-.036-.224-.035-.192c.038-.212.092-.403.166-.564-.063-.271-.145-.473-.249-.565a.994.994 0 0 1 .29-.104l-.018-.007-.038-.008-.133.018-.11.027-.074.025c.03.009.057.025.083.049a.865.865 0 0 0-.224.175c.125.183.226.527.307.954-.093.525-.09 1.175-.045 1.804.134.717.238 1.414.298 1.848l.067.164.01.023v.014l-.064-.107.01.074.003.006.053.102v.04l-.044-.063.009.07-.053-.063.015.061.007.011-.005-.005.012.049-.016-.004-.002-.001-.01-.003v.004l.013.003.005.027h-.009v.001l.01.001.003.017-.008-.005.01.035-.107-.058.071.008-.003-.002-.072-.008-.032-.017-.115-.068.122.034-.01-.006-.122-.034c-.887-.524-3.368-2.235-1.777-4.178l.012-.015.008-.01.027-.033.01-.01a2.56 2.56 0 0 1 .146-.157l.024-.02c.128-.13.283-.253.47-.37l.024-.011c.136-.087.294-.165.476-.233l.01-.002a2.74 2.74 0 0 1 .302-.094l.022-.003c.109-.028.227-.049.356-.063h.011c.135-.019.286-.023.453-.01.132.005.277.025.435.06a.21.21 0 0 1 .096.05c.203.017.441.103.723.272.684.41-1.08 4.352-1.33 4.899l.013-.006.312-.143 1.998-1.196-1.592 1.01 1.09-.502-1.128.525-.11.07 1.116-.462-1.144.48-.232.147.927-.265-.942.275-.089.056.576-.104-.582.108-.029.019.344-.043-.347.044-.277.176Zm-.402-.26.01.005-.926-.26.916.254Zm.157.09.004.002-.309-.036.305.034Zm.118-.004-.013-.01.011.003.002.007Zm-.013-.01-.005-.002v-.003l.005.005Zm.218.034-.01.024.035-.022h.002l.01-.007-.037.005Zm-.173.002v-.004h-.005l.005.004Zm.175-.005.04-.005.008-.005-.048.01Zm.004-.01-.002.005.054-.01.035-.02-.087.025Zm.064-.04-.058.028-.002.004.103-.03.11-.065-.153.064Zm.166-.076.03-.013.011-.006-.041.019Zm-.314-2.388.067-.126-.014-.008-.025-.006-.025-.003-.025.003-.023.006-.022.008-.023.014-.017.017-.016.02.123.075Zm17.12 11.697c-.119 1.56-1.122 3.619-1.122 3.619l2.037-.946-10.801 12.78a2.667 2.667 0 0 1-2.962.78l-6.561-2.425a2.667 2.667 0 0 1-1.246-4.05l10.938-15.335a2.667 2.667 0 0 1 3.827-.542l6.287 4.98-.397 1.139Zm-7.546-4.029-10.938 15.336 6.561 2.426 10.801-12.781h-.137l-6.287-4.98Z"/><path d="m15701 5479-42-30 6-6 7-6 8-4 8-3 9-2h9l9 2 8 3 8 4 2 2-32 40Zm2872 2776-3603 4189 1119 1138 4139-3689-1655-1638Z" style="fill:#fff" transform="matrix(.0028 0 0 .0028 493.261 764.688)"/><path d="M536.81 782.363c-.992-.673-3.208-2.48-1.48-4.25l.028-.028c.052-.052.108-.104.169-.156a.197.197 0 0 1 .03-.021c.144-.125.319-.242.53-.348l.005-.003a2.887 2.887 0 0 1 .662-.232c.057-.013.11 0 .157.034a.879.879 0 0 0-.278.194c.015.02.03.044.044.07a1.275 1.275 0 0 0-.146.36c.043.111.085.24.125.381-.133.975.187 2.395.445 3.317.012.118.025.228.037.33l-.014-.029.016.05.009.068.073.179.018.051.014.17-.054-.066.002.006.049.104-.035-.036.006.026-.015-.006v.004l.015.006.005.02a1.62 1.62 0 0 1-.018-.016l.003.021-.01-.002.002.005.01.002v.002l-.01-.002.001.003.009.002v.006h-.007v.001l.008.001.001.01-.007-.006.01.038a4.544 4.544 0 0 1-.086-.051l.067.007-.004-.002-.067-.007-.029-.019.08.015-.005-.003-.08-.015-.023-.014.093.023-.01-.008-.094-.022a7.925 7.925 0 0 1-.24-.156l.188.078-.012-.008-.188-.078Zm.1-5.004c.053-.024.11-.043.17-.058a.9.9 0 0 1 .332-.039c.142 0 .3.016.476.052.11.02.227.051.355.095.11.036.229.085.356.148.038.02.07.048.095.086.18.055.386.19.62.425.53.529-1.462 3.87-1.824 4.467l.978-.405 1.046-.502-.704.36.318-.132-.336.141-.406.208.612-.227-.634.238-.5.256.613-.144-.625.15-.071.037.463-.084-.47.087-.07.036.207-.023-.21.024-.357.183-1.664-.579.956.306.005.001.235.076h.003l.347.112-.008-.031.004.001a6.382 6.382 0 0 1-.006-.034l.02.013-.004-.02-.017-.002v-.002l.016.002v-.005l-.017-.003v-.003l.016.002-.017-.004v-.005l.016.004-.002-.01.013.013.02.004-.002-.016-.003-.006-.033-.014v-.004l.03.012.002.001.003.001-.003-.048c.01.013.02.026.03.036l-.002-.084-.042-.122-.002-.012-.016-.04a18.977 18.977 0 0 1-.082-.245l-.002-.023.09.188-.01-.113a16.853 16.853 0 0 1-.117-.404 19.768 19.768 0 0 1-.072-.855 11.904 11.904 0 0 1-.152-1.444c-.065-.373-.14-.724-.221-1.018a1.98 1.98 0 0 1 .128-.5 1.547 1.547 0 0 0-.107-.242.752.752 0 0 1 .249-.252.322.322 0 0 0-.015-.011Zm-.27 5.107.455.082.005.003-.46-.085Zm.432.068-.858-.206.847.2.01.006Zm-.251-.163-1.278-.532 1.266.524.012.008Zm.312.2-.254-.029.25.028.004.002Zm.211-2.5.09-.112-.006-.006-.022-.01-.022-.01-.026-.005h-.025l-.025.006-.023.008-.022.011-.02.017-.017.017.118.084Zm-.084 2.513v-.003l-.008-.001.004.003h.004Zm.282-.01-.082.009-.026.043.108-.052Zm.045-.022-.122.023-.003.006.086-.01.039-.019Zm.425-.204-.53.2-.01.017.175-.042.365-.175Zm-.387.138.433-.16.353-.169-.786.33Zm.005.045-.163.04.129-.023.034-.017Zm9.654 3.439 4.646 4.599a2.667 2.667 0 0 1-.101 3.886l-11.621 10.357a2.666 2.666 0 0 1-3.676-.12l-3.142-3.196a2.666 2.666 0 0 1-.12-3.608l10.116-11.762a2.667 2.667 0 0 1 3.898-.156Zm-1.876 1.895-10.116 11.762 3.142 3.195 11.62-10.358-4.646-4.599Z"/><path d="m18573 8255-39-33 7-6 7-5 8-4 9-2 9-1 8 1 9 2 8 4 7 5 3 3-36 36ZM5377 4568 995 11077l6720 7693-1267 7375h9900.2l-454.2-6783 2290-2913 584-3916-2629 2186-2192-1957-3992-957 3896 6101 876 637-1412 45-438 1594-586-1594-1460 229 1606-1411-3798-5873-2970-1001 1072-957-293-1592h633l974 1365 2191-91 1169-637 146-1458-6184-2594Z" style="fill:#fff" transform="matrix(.0028 0 0 .0028 493.261 764.688)"/><path d="M545.03 790.228c-.895-.637-3.455-2.717-1.488-4.46l.04-.037a3.016 3.016 0 0 1 .585-.385.194.194 0 0 1 .045-.016c.165-.086.362-.156.594-.208a2.842 2.842 0 0 1 .335-.051c-.087.011-.167.03-.241.053.025.007.049.02.072.038a.913.913 0 0 0-.44.443c.153.304.284.828.394 1.422.012.793.158 1.683.295 2.35.007.15.015.292.024.418l-.059-.14.048.268.024.059.01.126.055.11.004.056-.044-.062.006.033.026.062a2.103 2.103 0 0 1-.02-.023l.01.057-.016-.006.01.008-.01-.004-.001-.005-.013-.005.001.005.012.005.001.008-.01-.003v.007l.01.003.001.004-.01-.003.002.006.009.002.001.013-.008-.006v.005l-.047-.005-.047-.032.076.019-.01-.007-.076-.018-.038-.026.1.032-.016-.011-.1-.032a9.975 9.975 0 0 1-.083-.058l.142.059-.012-.01-.143-.058Zm.111-5.157c.141-.02.3-.023.477-.008.12.008.252.027.394.059.019.004.036.01.052.019.172.028.366.094.587.205a2.355 2.355 0 0 1 .398.24c.106.071.218.165.337.284.526.526-1.437 3.835-1.815 4.46l1.482-.549-1.421.533.708-.227 1.052-.434-.796.352.291-.093-.303.099-.472.209.44-.104-.45.108-.266.118-.002.001-.426.189-.92-.363-.007-.002-.902-.356 1.103.403.498.118.01.006-.492-.118.356.13.183.02.004.002-.183-.02.24.087-.007-.034.004.003a.798.798 0 0 0-.003-.026v-.004h-.007v-.003h.007l.019.003-.002-.01-.018-.005v-.005l.017.004v-.002l-.018-.006v-.007l.017.006v-.003l.004.004.023.007v-.003l-.028-.012v-.005l.028.012v-.001l-.02-.045.017.02c0-.015-.002-.033-.004-.053l.037.051.001-.024a7.383 7.383 0 0 1-.042-.083l-.009-.1a10.676 10.676 0 0 1-.056-.136l-.013-.187.052.126a44.172 44.172 0 0 0-.03-.325l-.046-.22c-.006-.117-.011-.24-.015-.37a28.605 28.605 0 0 0-.28-1.98c-.009-.59.056-1.126.255-1.478-.056-.186-.126-.32-.21-.386.073-.034.153-.06.24-.077a.192.192 0 0 0-.07-.014Zm.001 5.235-1.21-.394 1.194.383.016.01Zm-.1-.07-1.427-.594 1.415.586.013.009Zm.257.107.007.003v.004l-.007-.007Zm-.058.03.044.004.001.004.005.024-.04-.026-.01-.007Zm.438-.012-.137.015-.003.006-.03.049.17-.07Zm.2-.083-.324.078-.011.018.14-.015.194-.08Zm-.398.13-.002-.012-.005.01.007.002Zm.082-.065-.005.008.338-.08.414-.171-.747.243Zm-.25.048-.002-.01-.015-.002.005.003.012.009Zm.095-2.526.1-.1-.007-.01-.02-.013-.023-.011-.025-.006-.022-.003-.026.003-.025.006-.022.01-.02.015-.02.017.11.092Zm-.073 2.51v-.002h-.003l.003.003Zm.12.009-.012.001-.006.002h.019l-.001-.003Zm-29.96 3.19 2.873.968c.565.19 1.05.565 1.377 1.063a2.666 2.666 0 0 1 2.088-.366l11.208 2.687c.429.103.826.31 1.154.604l4.44 3.965 5.616-4.669a2.667 2.667 0 0 1 4.342 2.444l-1.64 10.995c-.068.458-.255.89-.54 1.254l-5.798 7.374 1.207 18.023a2.667 2.667 0 0 1-2.66 2.845h-27.797a2.667 2.667 0 0 1-2.628-3.118l3.342-19.456-18.033-20.644a2.666 2.666 0 0 1-.203-3.244l12.303-18.275a2.667 2.667 0 0 1 3.243-.97l17.363 7.283a2.667 2.667 0 0 1 1.622 2.725l-.41 4.094a2.667 2.667 0 0 1-1.377 2.076l-3.283 1.788a2.67 2.67 0 0 1-1.165.323l-6.152.256a2.695 2.695 0 0 1-.493-.026Zm-7.137-16.06-12.303 18.275 18.867 21.599-3.557 20.707h27.796l-1.275-19.045 6.43-8.179 1.64-10.994-7.382 6.137-6.154-5.495-11.209-2.686 10.939 17.13 2.46 1.788-3.965.126-1.23 4.475-1.645-4.475-4.1.643 4.51-3.962-10.664-16.49-8.338-2.81 3.01-2.687-.823-4.47h1.777l2.735 3.833 6.151-.255 3.283-1.789.41-4.093-17.363-7.284Zm6.226 15.752a2.72 2.72 0 0 1-.229-.142 3.868 3.868 0 0 1-.038.053l.267.09Z"/><path d="m5377 4568-42-28 5-7 7-6 8-5 8-3 9-2h9l16 4-20 47Zm6136 5281-1120 1184-1218-501 2338-683Z" style="fill:#fff" transform="matrix(.0028 0 0 .0028 493.261 764.688)"/><path d="M508.088 780.002c-.73-.366-3.555-1.966-2.004-4.136a2.617 2.617 0 0 1 .454-.491 2.802 2.802 0 0 1 1.227-.608.193.193 0 0 1 .172.045.683.683 0 0 0-.038.025.856.856 0 0 0-.232.193.768.768 0 0 1 .011.018c-.141.174-.225.405-.266.674l.063.18c-.025.48.046 1.053.157 1.616.158.563.3 1.14.409 1.604l.038.125.047.127.005.037.068.208.024.06.002.018.046.136-.035-.053.02.152a8.786 8.786 0 0 1-.046-.057l.016.075-.015-.016.005.031.02.03.002.01-.017-.013.004.027-.015-.001.001.002.015.002v-.003l.015.002-.003-.015.01.007-.012-.018-.01-.045.038.038-.007-.056.038.046-.003-.085a16.697 16.697 0 0 1-.02-.06l.02.03v-.012a15.37 15.37 0 0 1-.07-.171l-.01-.08a17.412 17.412 0 0 1-.086-.226 20.06 20.06 0 0 1-.124-1.124c-.138-.806-.32-1.714-.527-2.347.017-.336.082-.627.213-.838a.784.784 0 0 0-.01-.017.882.882 0 0 1 .098-.102.716.716 0 0 1 .123-.109.88.88 0 0 1 .04-.022l-.002-.003a.807.807 0 0 1 .427-.108 2.383 2.383 0 0 1 .653.08l.022.005a.236.236 0 0 1 .13.09c.073.04.137.086.194.138.112.049.231.116.36.201.235.157.166.752-.032 1.477-.17 1-.691 2.135-1.026 2.792-.088.205-.163.375-.217.495l.3-.154 2.118-1.399-1.682 1.174 1.24-.637-1.28.665-.34.238 1.204-.446-1.225.46-.067.047.993-.284-1.007.294-.064.045.616-.112-.621.115-.03.02.319-.034-.321.036-.243.17-1.594-.524 1.026.31h.002l.015.005.433.13-.01-.03.005.002-.007-.037.019.012-.005-.022-.016-.002.002.012a2.744 2.744 0 0 1-.014-.01l.015.045a4.731 4.731 0 0 1-.13-.063l.108.014-.004-.003-.005-.003-.11-.014Zm-.296-.036.296.036.005.003-.3-.039Zm.015.005.289.035.003.002-.292-.037Zm.289.035-.003-.001.11.014-.107-.013Zm.262-2.493.056-.132-.045-.01h-.025l-.025.005-.023.008-.022.014-.02.017-.014.02.118.078Zm.086 2.515-.018.003-.006.013.024-.016Zm.01-.007-.026.005v.002l.02-.003.007-.004Zm-.013-.024-.003.007.097-.036.145-.095-.239.124Zm.039.008-.049.014-.001.003.032-.005.018-.012Zm.027-.018-.037.014.028-.008.009-.006Zm19.016 14.186-3.145 3.325a2.667 2.667 0 0 1-2.951.633l-3.42-1.406a2.667 2.667 0 0 1 .267-5.026l6.564-1.918a2.667 2.667 0 0 1 2.685 4.392Zm-1.937-1.832-6.565 1.917 3.42 1.407 3.145-3.324Z"/><text x="64.931" y="52.442" style="font-family:&quot;SourceSans3Roman-Bold&quot;,&quot;Source Sans 3&quot;,sans-serif;font-weight:200;font-size:42.667px" transform="translate(300 825)">1</text><text x="11.431" y="34.513" style="font-family:&quot;SourceSans3Roman-Bold&quot;,&quot;Source Sans 3&quot;,sans-serif;font-weight:200;font-size:42.667px" transform="translate(300 790.858)">4</text><path d="M258 328.95c0-1.076-.836-1.95-1.866-1.95h-59.268c-1.03 0-1.866.874-1.866 1.95v35.1c0 1.076.836 1.95 1.866 1.95h59.268c1.03 0 1.866-.874 1.866-1.95v-35.1Z" style="fill:#fff" transform="matrix(.96825 0 0 .92674 155.69 489.356)"/><path d="M408.167 794.208v32.528a4.475 4.475 0 0 1-4.474 4.474h-57.386a4.475 4.475 0 0 1-4.474-4.474v-32.528a4.475 4.475 0 0 1 4.474-4.474h57.386a4.475 4.475 0 0 1 4.474 4.474Zm-2.667 0c0-.998-.81-1.808-1.807-1.808h-57.386c-.998 0-1.807.81-1.807 1.808v32.528c0 .997.81 1.807 1.807 1.807h57.386c.998 0 1.807-.81 1.807-1.807v-32.528Z"/><path d="M94.064 42.417H83.359a.934.934 0 1 0 0 1.87h10.705a.934.934 0 1 0 0-1.87Z" style="fill-rule:nonzero" transform="translate(354.389 790.07) scale(.42222)"/><path d="m77.78 31.272 7.661-8.055a.935.935 0 0 0-1.375-1.268l-7.66 8.054a.935.935 0 0 0 1.374 1.269Z" style="fill-rule:nonzero" transform="translate(356.078 789.226) scale(.42222)"/><path d="M77.48 55.432a.937.937 0 0 0-1.321-.054.94.94 0 0 0-.053 1.322l7.96 8.054a.935.935 0 0 0 1.375-1.266l-7.961-8.056Z" style="fill-rule:nonzero" transform="translate(356.078 790.915) scale(.42222)"/><path d="M384.131 798.34c.46 0 1.568.315 1.57.97v18.61c0 .656-1.11.97-1.569.97-.46 0-4.143-5.61-7.631-6.22-2.312-.406-4.815-.607-6.955-.698l2.188 10.002c-.03.27-.192.513-.481.513h-3.603c-.667 0-.824-.432-.686-1.619l-2.375-8.959h-5.119c-1.64 0-2.97-1.066-2.97-2.38V807.7c0-1.315 1.33-2.38 2.97-2.38h7.165c2.453 0 6.377-.15 9.865-.76 3.488-.611 7.171-6.22 7.631-6.22Zm-1.281 4.523c-.286 0-2.577 3.182-4.747 3.529-2.17.346-3.092.43-3.092.43-1.02 0-1.02 3.74 0 3.74 0 0 1.655.2 3.093.43 2.17.347 4.46 3.53 4.747 3.53.285 0 .67-.179.67-.551v-10.558c-.002-.372-.386-.55-.671-.55Z"/><text x="64.931" y="52.442" style="font-family:&quot;SourceSans3Roman-Bold&quot;,&quot;Source Sans 3&quot;,sans-serif;font-weight:200;font-size:42.667px" transform="translate(150 825)">2</text><text x="11.431" y="34.513" style="font-family:&quot;SourceSans3Roman-Bold&quot;,&quot;Source Sans 3&quot;,sans-serif;font-weight:200;font-size:42.667px" transform="translate(150 790.858)">3</text><path d="M258 328.95c0-1.076-.836-1.95-1.866-1.95h-59.268c-1.03 0-1.866.874-1.866 1.95v35.1c0 1.076.836 1.95 1.866 1.95h59.268c1.03 0 1.866-.874 1.866-1.95v-35.1Z" style="fill:#fff" transform="matrix(.96825 0 0 .92674 5.69 489.314)"/><path d="M258.167 794.165v32.528a4.475 4.475 0 0 1-4.474 4.474h-57.386a4.475 4.475 0 0 1-4.474-4.474v-32.528a4.475 4.475 0 0 1 4.474-4.474h57.386a4.475 4.475 0 0 1 4.474 4.474Zm-2.667 0c0-.997-.81-1.807-1.807-1.807h-57.386c-.998 0-1.807.81-1.807 1.807v32.528c0 .997.81 1.807 1.807 1.807h57.386c.998 0 1.807-.81 1.807-1.807v-32.528Z"/><text x="20.687" y="33.013" style="font-family:&quot;SourceSans3Roman-Bold&quot;,&quot;Source Sans 3&quot;,sans-serif;font-weight:200;font-size:42.667px" transform="translate(194.5 792.358)">L</text><text x="72.525" y="27" style="font-family:&quot;SourceSans3Roman-Bold&quot;,&quot;Source Sans 3&quot;,sans-serif;font-weight:200;font-size:21.333px" transform="translate(150 761.429)">I</text><text x="64.931" y="52.442" style="font-family:&quot;SourceSans3Roman-Bold&quot;,&quot;Source Sans 3&quot;,sans-serif;font-weight:200;font-size:42.667px" transform="translate(0 825)">4</text><text x="11.431" y="34.513" style="font-family:&quot;SourceSans3Roman-Bold&quot;,&quot;Source Sans 3&quot;,sans-serif;font-weight:200;font-size:42.667px" transform="translate(0 790.858)">2</text><path d="M258 328.95c0-1.076-.836-1.95-1.866-1.95h-59.268c-1.03 0-1.866.874-1.866 1.95v35.1c0 1.076.836 1.95 1.866 1.95h59.268c1.03 0 1.866-.874 1.866-1.95v-35.1Z" style="fill:#fff" transform="matrix(.96825 0 0 .92674 -144.31 489.314)"/><path d="M108.167 794.165v32.528a4.475 4.475 0 0 1-4.474 4.474H46.307a4.475 4.475 0 0 1-4.474-4.474v-32.528a4.475 4.475 0 0 1 4.474-4.474h57.386a4.475 4.475 0 0 1 4.474 4.474Zm-2.667 0c0-.997-.81-1.807-1.807-1.807H46.307c-.998 0-1.807.81-1.807 1.807v32.528c0 .997.81 1.807 1.807 1.807h57.386c.998 0 1.807-.81 1.807-1.807v-32.528Z"/><text x="20.687" y="33.013" style="font-family:&quot;SourceSans3Roman-Bold&quot;,&quot;Source Sans 3&quot;,sans-serif;font-weight:200;font-size:42.667px" transform="translate(44.5 792.358)">L</text><text x="70.051" y="27" style="font-family:&quot;SourceSans3Roman-Bold&quot;,&quot;Source Sans 3&quot;,sans-serif;font-weight:200;font-size:21.333px" transform="translate(0 761.429)">II</text><text x="29.16" y="89.008" style="font-family:&quot;SourceSans3Roman-Bold&quot;,&quot;Source Sans 3&quot;,sans-serif;font-weight:200;font-size:40px" transform="translate(1050 600)">NEUT</text><text x="64.931" y="52.442" style="font-family:&quot;SourceSans3Roman-Bold&quot;,&quot;Source Sans 3&quot;,sans-serif;font-weight:200;font-size:42.667px" transform="translate(900 675)">2</text><path d="M-280.297 1187.78c.435 47.38-.561 94.07 1.785 140.79 3.417 68.05 8.398 135.36 36.104 207.33 27.692 71.95 73.39 153.34 171.222 235.76 97.833-82.42 143.529-163.81 171.221-235.76 27.706-71.97 32.687-139.28 36.104-207.33 2.346-46.72 1.349-93.41 1.785-140.79h-418.221Z" style="fill:#fff;fill-rule:nonzero" transform="matrix(.14347 0 0 .10276 986.713 504.941)"/><path d="M946.5 624.333h60a2.666 2.666 0 0 1 2.667 2.702c-.063 4.919.077 9.768-.263 14.62-.515 7.348-1.313 14.607-5.49 22.381-4.136 7.695-10.928 16.433-25.536 25.248a2.67 2.67 0 0 1-2.755 0c-14.609-8.815-21.401-17.553-25.536-25.248-4.178-7.774-4.976-15.033-5.49-22.381-.341-4.852-.2-9.7-.263-14.62a2.668 2.668 0 0 1 2.666-2.702Zm0 2.667c.063 4.869-.08 9.666.256 14.468.49 6.992 1.205 13.91 5.18 21.305 3.973 7.394 10.529 15.758 24.564 24.227 14.036-8.47 20.592-16.833 24.565-24.227 3.974-7.396 4.689-14.313 5.18-21.305.336-4.802.193-9.6.255-14.468h-60Z"/><text x="5.884" y="18.078" style="font-family:&quot;SourceSans3Roman-Regular&quot;,&quot;Source Sans 3&quot;,sans-serif;font-weight:200;font-size:17.333px;stroke:#000;stroke-width:1px" transform="translate(944.529 627)">POLICE</text><text x="64.931" y="52.442" style="font-family:&quot;SourceSans3Roman-Bold&quot;,&quot;Source Sans 3&quot;,sans-serif;font-weight:200;font-size:42.667px" transform="translate(750 675)">5</text><text x="11.431" y="34.513" style="font-family:&quot;SourceSans3Roman-Bold&quot;,&quot;Source Sans 3&quot;,sans-serif;font-weight:200;font-size:42.667px" transform="translate(750 640.858)">2</text><path d="M258 328.95c0-1.076-.836-1.95-1.866-1.95h-59.268c-1.03 0-1.866.874-1.866 1.95v35.1c0 1.076.836 1.95 1.866 1.95h59.268c1.03 0 1.866-.874 1.866-1.95v-35.1Z" style="fill:#fff" transform="matrix(.96825 0 0 .92674 605.69 339.356)"/><path d="M858.166 644.207v32.528a4.475 4.475 0 0 1-4.473 4.474h-57.387a4.475 4.475 0 0 1-4.473-4.474v-32.528a4.475 4.475 0 0 1 4.473-4.474h57.387a4.475 4.475 0 0 1 4.473 4.474Zm-2.666 0c0-.997-.81-1.807-1.807-1.807h-57.387c-.997 0-1.806.81-1.806 1.807v32.528c0 .997.809 1.807 1.806 1.807h57.387c.997 0 1.807-.81 1.807-1.807v-32.528Z"/><text x="9.649" y="32.143" style="font-family:&quot;SourceSans3Roman-Regular&quot;,&quot;Source Sans 3&quot;,sans-serif;font-weight:200;font-size:18.667px;stroke:#000;stroke-width:1px" transform="translate(794.5 643.4)">HEL<tspan x="39.255" y="32.143">O</tspan></text><path d="M825.402 652.066c6.34-1.773 17-4.596 20.6-4.596 2.828 0 5 4 5 6s-2.172 6-5 6c-3.6 0-14.26-2.823-20.6-4.596-6.597 1.773-17.684 4.596-21.4 4.596-2.828 0-5-4-5-6s2.172-6 5-6c3.716 0 14.803 2.823 21.4 4.596Zm4.948 1.404c5.85 1.58 12.892 3.333 15.652 3.333.604 0 1.011-.603 1.394-1.137.533-.743.94-1.6.94-2.196 0-.595-.407-1.453-.94-2.196-.383-.534-.79-1.137-1.394-1.137-2.76 0-9.802 1.753-15.652 3.333Zm-10.07 0c-6.098-1.582-13.426-3.333-16.278-3.333-.604 0-1.01.603-1.394 1.137-.533.743-.939 1.601-.939 2.196 0 .595.406 1.453.94 2.196.382.534.79 1.137 1.393 1.137 2.852 0 10.18-1.75 16.278-3.333Z"/><text x="70.819" y="27" style="font-family:&quot;SourceSans3Roman-Bold&quot;,&quot;Source Sans 3&quot;,sans-serif;font-weight:200;font-size:21.333px" transform="translate(750 611.429)">x</text><text x="64.931" y="52.442" style="font-family:&quot;SourceSans3Roman-Bold&quot;,&quot;Source Sans 3&quot;,sans-serif;font-weight:200;font-size:42.667px" transform="translate(600 675)">5</text><text x="11.431" y="34.513" style="font-family:&quot;SourceSans3Roman-Bold&quot;,&quot;Source Sans 3&quot;,sans-serif;font-weight:200;font-size:42.667px" transform="translate(600 640.858)">1</text><path d="M258 328.95c0-1.076-.836-1.95-1.866-1.95h-59.268c-1.03 0-1.866.874-1.866 1.95v35.1c0 1.076.836 1.95 1.866 1.95h59.268c1.03 0 1.866-.874 1.866-1.95v-35.1Z" style="fill:#fff" transform="matrix(.96825 0 0 .92674 455.69 339.356)"/><path d="M708.166 644.207v32.528a4.475 4.475 0 0 1-4.473 4.474h-57.387a4.475 4.475 0 0 1-4.473-4.474v-32.528a4.475 4.475 0 0 1 4.473-4.474h57.387a4.475 4.475 0 0 1 4.473 4.474Zm-2.666 0c0-.997-.81-1.807-1.807-1.807h-57.387c-.997 0-1.806.81-1.806 1.807v32.528c0 .997.809 1.807 1.806 1.807h57.387c.997 0 1.807-.81 1.807-1.807v-32.528Z"/><path d="m195 327 63 39M195 366l63-39" style="fill:none;stroke:#000;stroke-width:2.81px;stroke-linecap:round;stroke-miterlimit:1.5" transform="matrix(.96825 0 0 .92674 455.69 339.356)"/><text x="70.819" y="27" style="font-family:&quot;SourceSans3Roman-Bold&quot;,&quot;Source Sans 3&quot;,sans-serif;font-weight:200;font-size:21.333px" transform="translate(600 611.429)">x</text><text x="64.931" y="52.442" style="font-family:&quot;SourceSans3Roman-Bold&quot;,&quot;Source Sans 3&quot;,sans-serif;font-weight:200;font-size:42.667px" transform="translate(450 675)">9</text><text x="11.431" y="34.513" style="font-family:&quot;SourceSans3Roman-Bold&quot;,&quot;Source Sans 3&quot;,sans-serif;font-weight:200;font-size:42.667px" transform="translate(450 640.858)">3</text><path d="M258 328.95c0-1.076-.836-1.95-1.866-1.95h-59.268c-1.03 0-1.866.874-1.866 1.95v35.1c0 1.076.836 1.95 1.866 1.95h59.268c1.03 0 1.866-.874 1.866-1.95v-35.1Z" style="fill:#fff" transform="matrix(.96825 0 0 .92674 305.69 339.356)"/><path d="M558.166 644.207v32.528a4.475 4.475 0 0 1-4.473 4.474h-57.387a4.475 4.475 0 0 1-4.473-4.474v-32.528a4.475 4.475 0 0 1 4.473-4.474h57.387a4.475 4.475 0 0 1 4.473 4.474Zm-2.666 0c0-.997-.81-1.807-1.807-1.807h-57.387c-.997 0-1.806.81-1.806 1.807v32.528c0 .997.809 1.807 1.806 1.807h57.387c.997 0 1.807-.81 1.807-1.807v-32.528Z"/><text x="9.649" y="32.143" style="font-family:&quot;SourceSans3Roman-Regular&quot;,&quot;Source Sans 3&quot;,sans-serif;font-weight:200;font-size:18.667px;stroke:#000;stroke-width:1px" transform="translate(494.5 643.4)">HEL<tspan x="39.255" y="32.143">O</tspan></text><path d="M525.402 652.066c6.34-1.773 17-4.596 20.6-4.596 2.828 0 5 4 5 6s-2.172 6-5 6c-3.6 0-14.26-2.823-20.6-4.596-6.597 1.773-17.684 4.596-21.4 4.596-2.828 0-5-4-5-6s2.172-6 5-6c3.716 0 14.803 2.823 21.4 4.596Zm-5.122 1.404c-6.098-1.582-13.426-3.333-16.278-3.333-.604 0-1.01.603-1.394 1.137-.533.743-.939 1.601-.939 2.196 0 .595.406 1.453.94 2.196.382.534.79 1.137 1.393 1.137 2.852 0 10.18-1.75 16.278-3.333Zm10.07 0c5.85 1.58 12.892 3.333 15.652 3.333.604 0 1.011-.603 1.394-1.137.533-.743.94-1.6.94-2.196 0-.595-.407-1.453-.94-2.196-.383-.534-.79-1.137-1.394-1.137-2.76 0-9.802 1.753-15.652 3.333Z"/><text x="70.819" y="27" style="font-family:&quot;SourceSans3Roman-Bold&quot;,&quot;Source Sans 3&quot;,sans-serif;font-weight:200;font-size:21.333px" transform="translate(450 611.429)">x</text><text x="64.931" y="52.442" style="font-family:&quot;SourceSans3Roman-Bold&quot;,&quot;Source Sans 3&quot;,sans-serif;font-weight:200;font-size:42.667px" transform="translate(300 675)">9</text><text x="11.431" y="34.513" style="font-family:&quot;SourceSans3Roman-Bold&quot;,&quot;Source Sans 3&quot;,sans-serif;font-weight:200;font-size:42.667px" transform="translate(300 640.858)">2</text><path d="M258 328.95c0-1.076-.836-1.95-1.866-1.95h-59.268c-1.03 0-1.866.874-1.866 1.95v35.1c0 1.076.836 1.95 1.866 1.95h59.268c1.03 0 1.866-.874 1.866-1.95v-35.1Z" style="fill:#fff" transform="matrix(.96825 0 0 .92674 155.69 339.314)"/><path d="M408.166 644.165v32.528a4.475 4.475 0 0 1-4.473 4.474h-57.387a4.475 4.475 0 0 1-4.473-4.474v-32.528a4.475 4.475 0 0 1 4.473-4.474h57.387a4.475 4.475 0 0 1 4.473 4.474Zm-2.666 0c0-.997-.81-1.807-1.807-1.807h-57.387c-.997 0-1.806.81-1.806 1.807v32.528c0 .997.809 1.807 1.806 1.807h57.387c.997 0 1.807-.81 1.807-1.807v-32.528Z"/><path d="M375 662v-25" style="fill:none;stroke:#000;stroke-width:2.67px;stroke-linecap:round;stroke-linejoin:miter;stroke-miterlimit:1.5" transform="translate(0 11.43)"/><path d="M371 639h8" style="fill:none;stroke:#000;stroke-width:2.67px;stroke-linecap:round;stroke-linejoin:miter;stroke-miterlimit:1.5" transform="translate(0 12.43)"/><path d="M362 657c1.889 1.667 5.667 5 13 5s11.111-3.333 13-5" style="fill:none;stroke:#000;stroke-width:2.67px;stroke-linecap:round;stroke-linejoin:miter;stroke-miterlimit:1.5" transform="translate(0 11.43)"/><path d="m195 327 63 39M195 366l63-39" style="fill:none;stroke:#000;stroke-width:2.81px;stroke-linecap:round;stroke-miterlimit:1.5" transform="matrix(.96825 0 0 .92674 155.69 339.314)"/><text x="70.819" y="27" style="font-family:&quot;SourceSans3Roman-Bold&quot;,&quot;Source Sans 3&quot;,sans-serif;font-weight:200;font-size:21.333px" transform="translate(300 611.429)">x</text><text x="64.931" y="52.442" style="font-family:&quot;SourceSans3Roman-Bold&quot;,&quot;Source Sans 3&quot;,sans-serif;font-weight:200;font-size:42.667px" transform="translate(150 675)">9</text><text x="11.431" y="34.513" style="font-family:&quot;SourceSans3Roman-Bold&quot;,&quot;Source Sans 3&quot;,sans-serif;font-weight:200;font-size:42.667px" transform="translate(150 640.858)">2</text><path d="M258 328.95c0-1.076-.836-1.95-1.866-1.95h-59.268c-1.03 0-1.866.874-1.866 1.95v35.1c0 1.076.836 1.95 1.866 1.95h59.268c1.03 0 1.866-.874 1.866-1.95v-35.1Z" style="fill:#fff" transform="matrix(.96825 0 0 .92674 5.69 339.356)"/><path d="M258.167 644.207v32.528a4.475 4.475 0 0 1-4.474 4.474h-57.386a4.475 4.475 0 0 1-4.474-4.474v-32.528a4.475 4.475 0 0 1 4.474-4.474h57.386a4.475 4.475 0 0 1 4.474 4.474Zm-2.667 0c0-.997-.81-1.807-1.807-1.807h-57.386c-.998 0-1.807.81-1.807 1.807v32.528c0 .997.81 1.807 1.807 1.807h57.386c.998 0 1.807-.81 1.807-1.807v-32.528Z"/><path d="m195 327 63 39M195 366l63-39" style="fill:none;stroke:#000;stroke-width:2.81px;stroke-linecap:round;stroke-miterlimit:1.5" transform="matrix(.96825 0 0 .92674 5.69 339.356)"/><text x="70.819" y="27" style="font-family:&quot;SourceSans3Roman-Bold&quot;,&quot;Source Sans 3&quot;,sans-serif;font-weight:200;font-size:21.333px" transform="translate(150 611.429)">x</text><text x="64.931" y="52.442" style="font-family:&quot;SourceSans3Roman-Bold&quot;,&quot;Source Sans 3&quot;,sans-serif;font-weight:200;font-size:42.667px" transform="translate(0 675)">9</text><text x="11.431" y="34.513" style="font-family:&quot;SourceSans3Roman-Bold&quot;,&quot;Source Sans 3&quot;,sans-serif;font-weight:200;font-size:42.667px" transform="translate(0 640.858)">2</text><path d="M258 328.95c0-1.076-.836-1.95-1.866-1.95h-59.268c-1.03 0-1.866.874-1.866 1.95v35.1c0 1.076.836 1.95 1.866 1.95h59.268c1.03 0 1.866-.874 1.866-1.95v-35.1Z" style="fill:#fff" transform="matrix(.96825 0 0 .92674 -144.31 339.314)"/><path d="M108.166 644.165v32.528a4.475 4.475 0 0 1-4.473 4.474H46.306a4.475 4.475 0 0 1-4.473-4.474v-32.528a4.475 4.475 0 0 1 4.473-4.474h57.387a4.475 4.475 0 0 1 4.473 4.474Zm-2.666 0c0-.997-.81-1.807-1.807-1.807H46.306c-.997 0-1.806.81-1.806 1.807v32.528c0 .997.809 1.807 1.806 1.807h57.387c.997 0 1.807-.81 1.807-1.807v-32.528Z"/><path d="M59 665c1.75-1 5.25-3 8-3s6.583 2 8.5 3" style="fill:none;stroke:#000;stroke-width:2.67px;stroke-linecap:round;stroke-linejoin:miter;stroke-miterlimit:1.5" transform="translate(16.5 10.43)"/><path d="M59 665c1.75-1 5.25-3 8-3s6.583 2 8.5 3" style="fill:none;stroke:#000;stroke-width:2.67px;stroke-linecap:round;stroke-linejoin:miter;stroke-miterlimit:1.5" transform="translate(0 10.43)"/><path d="m195 327 63 39M195 366l63-39" style="fill:none;stroke:#000;stroke-width:2.81px;stroke-linecap:round;stroke-miterlimit:1.5" transform="matrix(.96825 0 0 .92674 -144.31 339.314)"/><text x="70.819" y="27" style="font-family:&quot;SourceSans3Roman-Bold&quot;,&quot;Source Sans 3&quot;,sans-serif;font-weight:200;font-size:21.333px" transform="translate(0 611.429)">x</text><text x="64.931" y="52.442" style="font-family:&quot;SourceSans3Roman-Bold&quot;,&quot;Source Sans 3&quot;,sans-serif;font-weight:200;font-size:42.667px" transform="translate(750 525)">6</text><text x="11.431" y="34.513" style="font-family:&quot;SourceSans3Roman-Bold&quot;,&quot;Source Sans 3&quot;,sans-serif;font-weight:200;font-size:42.667px" transform="translate(750 490.858)">2</text><path d="M258 328.95c0-1.076-.836-1.95-1.866-1.95h-59.268c-1.03 0-1.866.874-1.866 1.95v35.1c0 1.076.836 1.95 1.866 1.95h59.268c1.03 0 1.866-.874 1.866-1.95v-35.1Z" style="fill:#fff" transform="matrix(.96825 0 0 .92674 605.69 189.314)"/><path d="M858.166 494.165v32.528a4.475 4.475 0 0 1-4.473 4.474h-57.387a4.475 4.475 0 0 1-4.473-4.474v-32.528a4.475 4.475 0 0 1 4.473-4.474h57.387a4.475 4.475 0 0 1 4.473 4.474Zm-2.666 0c0-.997-.81-1.807-1.807-1.807h-57.387c-.997 0-1.806.81-1.806 1.807v32.528c0 .997.809 1.807 1.806 1.807h57.387c.997 0 1.807-.81 1.807-1.807v-32.528Z"/><text x="9.649" y="32.143" style="font-family:&quot;SourceSans3Roman-Regular&quot;,&quot;Source Sans 3&quot;,sans-serif;font-weight:200;font-size:18.667px;stroke:#000;stroke-width:1px" transform="translate(794.5 493.358)">HEL<tspan x="39.255" y="32.143">O</tspan></text><path d="M825.402 502.024c6.34-1.773 17-4.596 20.6-4.596 2.828 0 5 4 5 6s-2.172 6-5 6c-3.6 0-14.26-2.823-20.6-4.596-6.597 1.773-17.684 4.596-21.4 4.596-2.828 0-5-4-5-6s2.172-6 5-6c3.716 0 14.803 2.823 21.4 4.596Zm4.948 1.404c5.85 1.58 12.892 3.333 15.652 3.333.604 0 1.011-.603 1.394-1.137.533-.743.94-1.6.94-2.196 0-.595-.407-1.453-.94-2.196-.383-.534-.79-1.137-1.394-1.137-2.76 0-9.802 1.753-15.652 3.333Zm-10.07 0c-6.098-1.582-13.426-3.333-16.278-3.333-.604 0-1.01.603-1.394 1.137-.533.743-.939 1.601-.939 2.196 0 .595.406 1.453.94 2.196.382.534.79 1.137 1.393 1.137 2.852 0 10.18-1.75 16.278-3.333Z"/><text x="70.819" y="27" style="font-family:&quot;SourceSans3Roman-Bold&quot;,&quot;Source Sans 3&quot;,sans-serif;font-weight:200;font-size:21.333px" transform="translate(750 461.429)">x</text><text x="64.931" y="52.442" style="font-family:&quot;SourceSans3Roman-Bold&quot;,&quot;Source Sans 3&quot;,sans-serif;font-weight:200;font-size:42.667px" transform="translate(600 525)">6</text><text x="11.431" y="34.513" style="font-family:&quot;SourceSans3Roman-Bold&quot;,&quot;Source Sans 3&quot;,sans-serif;font-weight:200;font-size:42.667px" transform="translate(600 490.858)">1</text><path d="M258 328.95c0-1.076-.836-1.95-1.866-1.95h-59.268c-1.03 0-1.866.874-1.866 1.95v35.1c0 1.076.836 1.95 1.866 1.95h59.268c1.03 0 1.866-.874 1.866-1.95v-35.1Z" style="fill:#fff" transform="matrix(.96825 0 0 .92674 455.69 189.356)"/><path d="M708.166 494.207v32.528a4.475 4.475 0 0 1-4.473 4.474h-57.387a4.475 4.475 0 0 1-4.473-4.474v-32.528a4.475 4.475 0 0 1 4.473-4.474h57.387a4.475 4.475 0 0 1 4.473 4.474Zm-2.666 0c0-.997-.81-1.807-1.807-1.807h-57.387c-.997 0-1.806.81-1.806 1.807v32.528c0 .997.809 1.807 1.806 1.807h57.387c.997 0 1.807-.81 1.807-1.807v-32.528Z"/><path d="m195 327 63 39M195 366l63-39" style="fill:none;stroke:#000;stroke-width:2.81px;stroke-linecap:round;stroke-miterlimit:1.5" transform="matrix(.96825 0 0 .92674 455.69 189.356)"/><text x="70.819" y="27" style="font-family:&quot;SourceSans3Roman-Bold&quot;,&quot;Source Sans 3&quot;,sans-serif;font-weight:200;font-size:21.333px" transform="translate(600 461.429)">x</text><text x="54.861" y="52.442" style="font-family:&quot;SourceSans3Roman-Bold&quot;,&quot;Source Sans 3&quot;,sans-serif;font-weight:200;font-size:42.667px" transform="translate(450 525)">12</text><text x="11.431" y="34.513" style="font-family:&quot;SourceSans3Roman-Bold&quot;,&quot;Source Sans 3&quot;,sans-serif;font-weight:200;font-size:42.667px" transform="translate(450 490.858)">2</text><path d="M258 328.95c0-1.076-.836-1.95-1.866-1.95h-59.268c-1.03 0-1.866.874-1.866 1.95v35.1c0 1.076.836 1.95 1.866 1.95h59.268c1.03 0 1.866-.874 1.866-1.95v-35.1Z" style="fill:#fff" transform="matrix(.96825 0 0 .92674 305.69 189.314)"/><path d="M558.166 494.165v32.528a4.475 4.475 0 0 1-4.473 4.474h-57.387a4.475 4.475 0 0 1-4.473-4.474v-32.528a4.475 4.475 0 0 1 4.473-4.474h57.387a4.475 4.475 0 0 1 4.473 4.474Zm-2.666 0c0-.997-.81-1.807-1.807-1.807h-57.387c-.997 0-1.806.81-1.806 1.807v32.528c0 .997.809 1.807 1.806 1.807h57.387c.997 0 1.807-.81 1.807-1.807v-32.528Z"/><text x="66.637" y="27" style="font-family:&quot;SourceSans3Roman-Bold&quot;,&quot;Source Sans 3&quot;,sans-serif;font-weight:200;font-size:21.333px" transform="translate(450 461.429)">xx</text><text x="54.861" y="52.442" style="font-family:&quot;SourceSans3Roman-Bold&quot;,&quot;Source Sans 3&quot;,sans-serif;font-weight:200;font-size:42.667px" transform="translate(300 525)">25</text><text x="11.431" y="34.513" style="font-family:&quot;SourceSans3Roman-Bold&quot;,&quot;Source Sans 3&quot;,sans-serif;font-weight:200;font-size:42.667px" transform="translate(300 490.858)">1</text><text y="27.226" style="font-family:&quot;SourceSans3Roman-Bold&quot;,&quot;Source Sans 3&quot;,sans-serif;font-weight:200;font-size:24px" transform="translate(412 492.358)">7</text><path d="M258 328.95c0-1.076-.836-1.95-1.866-1.95h-59.268c-1.03 0-1.866.874-1.866 1.95v35.1c0 1.076.836 1.95 1.866 1.95h59.268c1.03 0 1.866-.874 1.866-1.95v-35.1Z" style="fill:#fff" transform="matrix(.96825 0 0 .92674 155.69 189.314)"/><path d="M408.166 494.165v32.528a4.475 4.475 0 0 1-4.473 4.474h-57.387a4.475 4.475 0 0 1-4.473-4.474v-32.528a4.475 4.475 0 0 1 4.473-4.474h57.387a4.475 4.475 0 0 1 4.473 4.474Zm-2.666 0c0-.997-.81-1.807-1.807-1.807h-57.387c-.997 0-1.806.81-1.806 1.807v32.528c0 .997.809 1.807 1.806 1.807h57.387c.997 0 1.807-.81 1.807-1.807v-32.528Z"/><path d="M361.5 520.429c-5.795 0-10.5-4.481-10.5-10 0-5.52 4.705-10 10.5-10h27c5.795 0 10.5 4.48 10.5 10 0 5.519-4.705 10-10.5 10h-27Zm0-2.667h27c4.288 0 7.833-3.25 7.833-7.333 0-4.084-3.545-7.333-7.833-7.333h-27c-4.288 0-7.833 3.249-7.833 7.333s3.545 7.333 7.833 7.333Z"/><path d="m195 366 63-39" style="fill:none;stroke:#000;stroke-width:2.81px;stroke-linecap:round;stroke-miterlimit:1.5" transform="matrix(.96825 0 0 .92674 155.69 189.314)"/><text x="66.637" y="27" style="font-family:&quot;SourceSans3Roman-Bold&quot;,&quot;Source Sans 3&quot;,sans-serif;font-weight:200;font-size:21.333px" transform="translate(300 461.429)">xx</text><text x="54.861" y="52.442" style="font-family:&quot;SourceSans3Roman-Bold&quot;,&quot;Source Sans 3&quot;,sans-serif;font-weight:200;font-size:42.667px" transform="translate(150 525)">25</text><text x="11.431" y="34.513" style="font-family:&quot;SourceSans3Roman-Bold&quot;,&quot;Source Sans 3&quot;,sans-serif;font-weight:200;font-size:42.667px" transform="translate(150 490.858)">1</text><text y="27.226" style="font-family:&quot;SourceSans3Roman-Bold&quot;,&quot;Source Sans 3&quot;,sans-serif;font-weight:200;font-size:24px" transform="translate(262 492.358)">5</text><path d="M258 328.95c0-1.076-.836-1.95-1.866-1.95h-59.268c-1.03 0-1.866.874-1.866 1.95v35.1c0 1.076.836 1.95 1.866 1.95h59.268c1.03 0 1.866-.874 1.866-1.95v-35.1Z" style="fill:#fff" transform="matrix(.96825 0 0 .92674 5.69 189.314)"/><path d="M258.167 494.165v32.528a4.475 4.475 0 0 1-4.474 4.474h-57.386a4.475 4.475 0 0 1-4.474-4.474v-32.528a4.475 4.475 0 0 1 4.474-4.474h57.386a4.475 4.475 0 0 1 4.474 4.474Zm-2.667 0c0-.997-.81-1.807-1.807-1.807h-57.386c-.998 0-1.807.81-1.807 1.807v32.528c0 .997.81 1.807 1.807 1.807h57.386c.998 0 1.807-.81 1.807-1.807v-32.528Z"/><path d="M211.5 520.429c-5.794 0-10.5-4.481-10.5-10 0-5.52 4.706-10 10.5-10h27c5.796 0 10.5 4.48 10.5 10 0 5.519-4.704 10-10.5 10h-27Zm0-2.667h27c4.289 0 7.834-3.25 7.834-7.333 0-4.084-3.545-7.333-7.833-7.333h-27c-4.288 0-7.833 3.249-7.833 7.333s3.545 7.333 7.833 7.333Z"/><text x="66.637" y="27" style="font-family:&quot;SourceSans3Roman-Bold&quot;,&quot;Source Sans 3&quot;,sans-serif;font-weight:200;font-size:21.333px" transform="translate(150 461.429)">xx</text><text x="54.861" y="52.442" style="font-family:&quot;SourceSans3Roman-Bold&quot;,&quot;Source Sans 3&quot;,sans-serif;font-weight:200;font-size:42.667px" transform="translate(0 525)">25</text><text x="11.431" y="34.513" style="font-family:&quot;SourceSans3Roman-Bold&quot;,&quot;Source Sans 3&quot;,sans-serif;font-weight:200;font-size:42.667px" transform="translate(0 490.858)">1</text><text y="27.226" style="font-family:&quot;SourceSans3Roman-Bold&quot;,&quot;Source Sans 3&quot;,sans-serif;font-weight:200;font-size:24px" transform="translate(112 492.358)">27</text><path d="M258 328.95c0-1.076-.836-1.95-1.866-1.95h-59.268c-1.03 0-1.866.874-1.866 1.95v35.1c0 1.076.836 1.95 1.866 1.95h59.268c1.03 0 1.866-.874 1.866-1.95v-35.1Z" style="fill:#fff" transform="matrix(.96825 0 0 .92674 -144.31 189.314)"/><path d="M108.166 494.165v32.528a4.475 4.475 0 0 1-4.473 4.474H46.306a4.475 4.475 0 0 1-4.473-4.474v-32.528a4.475 4.475 0 0 1 4.473-4.474h57.387a4.475 4.475 0 0 1 4.473 4.474Zm-2.666 0c0-.997-.81-1.807-1.807-1.807H46.306c-.997 0-1.806.81-1.806 1.807v32.528c0 .997.809 1.807 1.806 1.807h57.387c.997 0 1.807-.81 1.807-1.807v-32.528Z"/><path d="m67.844 527.004 6.981-7.079 7.33 7.08h-14.31Z"/><path d="m67.844 527.004 6.981-7.079 7.33 7.08h-14.31Zm6.375-2.666h1.337l-.685-.661-.652.66Z"/><path d="m195 327 63 39M195 366l63-39" style="fill:none;stroke:#000;stroke-width:2.81px;stroke-linecap:round;stroke-miterlimit:1.5" transform="matrix(.96825 0 0 .92674 -144.31 189.314)"/><text x="66.637" y="27" style="font-family:&quot;SourceSans3Roman-Bold&quot;,&quot;Source Sans 3&quot;,sans-serif;font-weight:200;font-size:21.333px" transform="translate(0 461.429)">xx</text><text x="54.861" y="52.442" style="font-family:&quot;SourceSans3Roman-Bold&quot;,&quot;Source Sans 3&quot;,sans-serif;font-weight:200;font-size:42.667px" transform="translate(1350 375)">25</text><text x="11.431" y="34.513" style="font-family:&quot;SourceSans3Roman-Bold&quot;,&quot;Source Sans 3&quot;,sans-serif;font-weight:200;font-size:42.667px" transform="translate(1350 340.858)">1</text><text y="27.226" style="font-family:&quot;SourceSans3Roman-Bold&quot;,&quot;Source Sans 3&quot;,sans-serif;font-weight:200;font-size:24px" transform="translate(1462 342.358)">29</text><path d="M258 328.95c0-1.076-.836-1.95-1.866-1.95h-59.268c-1.03 0-1.866.874-1.866 1.95v35.1c0 1.076.836 1.95 1.866 1.95h59.268c1.03 0 1.866-.874 1.866-1.95v-35.1Z" style="fill:#fff" transform="matrix(.96825 0 0 .92674 1205.69 39.313)"/><path d="M1458.166 344.164v32.529a4.475 4.475 0 0 1-4.473 4.473h-57.387a4.475 4.475 0 0 1-4.473-4.473v-32.529a4.475 4.475 0 0 1 4.473-4.473h57.387a4.475 4.475 0 0 1 4.473 4.473Zm-2.666 0c0-.997-.81-1.807-1.807-1.807h-57.387c-.997 0-1.806.81-1.806 1.807v32.529c0 .997.809 1.807 1.806 1.807h57.387c.997 0 1.807-.81 1.807-1.807v-32.529Z"/><path d="m195 327 63 39M195 366l63-39" style="fill:none;stroke:#000;stroke-width:2.81px;stroke-linecap:round;stroke-miterlimit:1.5" transform="matrix(.96825 0 0 .92674 1205.69 39.313)"/><text x="66.637" y="27" style="font-family:&quot;SourceSans3Roman-Bold&quot;,&quot;Source Sans 3&quot;,sans-serif;font-weight:200;font-size:21.333px" transform="translate(1350 311.429)">xx</text><text x="54.861" y="52.442" style="font-family:&quot;SourceSans3Roman-Bold&quot;,&quot;Source Sans 3&quot;,sans-serif;font-weight:200;font-size:42.667px" transform="translate(1200 375)">25</text><text x="11.431" y="34.513" style="font-family:&quot;SourceSans3Roman-Bold&quot;,&quot;Source Sans 3&quot;,sans-serif;font-weight:200;font-size:42.667px" transform="translate(1200 340.858)">1</text><text y="27.226" style="font-family:&quot;SourceSans3Roman-Bold&quot;,&quot;Source Sans 3&quot;,sans-serif;font-weight:200;font-size:24px" transform="translate(1312 342.358)">21</text><path d="M258 328.95c0-1.076-.836-1.95-1.866-1.95h-59.268c-1.03 0-1.866.874-1.866 1.95v35.1c0 1.076.836 1.95 1.866 1.95h59.268c1.03 0 1.866-.874 1.866-1.95v-35.1Z" style="fill:#fff" transform="matrix(.96825 0 0 .92674 1055.69 39.313)"/><path d="M1308.166 344.164v32.529a4.475 4.475 0 0 1-4.473 4.473h-57.387a4.475 4.475 0 0 1-4.473-4.473v-32.529a4.475 4.475 0 0 1 4.473-4.473h57.387a4.475 4.475 0 0 1 4.473 4.473Zm-2.666 0c0-.997-.81-1.807-1.807-1.807h-57.387c-.997 0-1.806.81-1.806 1.807v32.529c0 .997.809 1.807 1.806 1.807h57.387c.997 0 1.807-.81 1.807-1.807v-32.529Z"/><path d="m195 327 63 39M195 366l63-39" style="fill:none;stroke:#000;stroke-width:2.81px;stroke-linecap:round;stroke-miterlimit:1.5" transform="matrix(.96825 0 0 .92674 1055.69 39.313)"/><text x="66.637" y="27" style="font-family:&quot;SourceSans3Roman-Bold&quot;,&quot;Source Sans 3&quot;,sans-serif;font-weight:200;font-size:21.333px" transform="translate(1200 311.429)">xx</text><text x="54.861" y="52.442" style="font-family:&quot;SourceSans3Roman-Bold&quot;,&quot;Source Sans 3&quot;,sans-serif;font-weight:200;font-size:42.667px" transform="translate(1050 375)">25</text><text x="11.431" y="34.513" style="font-family:&quot;SourceSans3Roman-Bold&quot;,&quot;Source Sans 3&quot;,sans-serif;font-weight:200;font-size:42.667px" transform="translate(1050 340.858)">1</text><text y="27.226" style="font-family:&quot;SourceSans3Roman-Bold&quot;,&quot;Source Sans 3&quot;,sans-serif;font-weight:200;font-size:24px" transform="translate(1162 342.358)">20</text><path d="M258 328.95c0-1.076-.836-1.95-1.866-1.95h-59.268c-1.03 0-1.866.874-1.866 1.95v35.1c0 1.076.836 1.95 1.866 1.95h59.268c1.03 0 1.866-.874 1.866-1.95v-35.1Z" style="fill:#fff" transform="matrix(.96825 0 0 .92674 905.69 39.313)"/><path d="M1158.166 344.164v32.529a4.475 4.475 0 0 1-4.473 4.473h-57.387a4.475 4.475 0 0 1-4.473-4.473v-32.529a4.475 4.475 0 0 1 4.473-4.473h57.387a4.475 4.475 0 0 1 4.473 4.473Zm-2.666 0c0-.997-.81-1.807-1.807-1.807h-57.387c-.997 0-1.806.81-1.806 1.807v32.529c0 .997.809 1.807 1.806 1.807h57.387c.997 0 1.807-.81 1.807-1.807v-32.529Z"/><path d="m195 327 63 39M195 366l63-39" style="fill:none;stroke:#000;stroke-width:2.81px;stroke-linecap:round;stroke-miterlimit:1.5" transform="matrix(.96825 0 0 .92674 905.69 39.313)"/><text x="66.637" y="27" style="font-family:&quot;SourceSans3Roman-Bold&quot;,&quot;Source Sans 3&quot;,sans-serif;font-weight:200;font-size:21.333px" transform="translate(1050 311.429)">xx</text><text x="54.861" y="52.442" style="font-family:&quot;SourceSans3Roman-Bold&quot;,&quot;Source Sans 3&quot;,sans-serif;font-weight:200;font-size:42.667px" transform="translate(900 375)">25</text><text x="11.431" y="34.513" style="font-family:&quot;SourceSans3Roman-Bold&quot;,&quot;Source Sans 3&quot;,sans-serif;font-weight:200;font-size:42.667px" transform="translate(900 340.858)">1</text><text y="27.226" style="font-family:&quot;SourceSans3Roman-Bold&quot;,&quot;Source Sans 3&quot;,sans-serif;font-weight:200;font-size:24px" transform="translate(1012 342.358)">19</text><path d="M258 328.95c0-1.076-.836-1.95-1.866-1.95h-59.268c-1.03 0-1.866.874-1.866 1.95v35.1c0 1.076.836 1.95 1.866 1.95h59.268c1.03 0 1.866-.874 1.866-1.95v-35.1Z" style="fill:#fff" transform="matrix(.96825 0 0 .92674 755.69 39.313)"/><path d="M1008.166 344.164v32.529a4.475 4.475 0 0 1-4.473 4.473h-57.387a4.475 4.475 0 0 1-4.473-4.473v-32.529a4.475 4.475 0 0 1 4.473-4.473h57.387a4.475 4.475 0 0 1 4.473 4.473Zm-2.666 0c0-.997-.81-1.807-1.807-1.807h-57.387c-.997 0-1.806.81-1.806 1.807v32.529c0 .997.809 1.807 1.806 1.807h57.387c.997 0 1.807-.81 1.807-1.807v-32.529Z"/><path d="m195 327 63 39M195 366l63-39" style="fill:none;stroke:#000;stroke-width:2.81px;stroke-linecap:round;stroke-miterlimit:1.5" transform="matrix(.96825 0 0 .92674 755.69 39.313)"/><text x="66.637" y="27" style="font-family:&quot;SourceSans3Roman-Bold&quot;,&quot;Source Sans 3&quot;,sans-serif;font-weight:200;font-size:21.333px" transform="translate(900 311.429)">xx</text><text x="54.861" y="52.442" style="font-family:&quot;SourceSans3Roman-Bold&quot;,&quot;Source Sans 3&quot;,sans-serif;font-weight:200;font-size:42.667px" transform="translate(750 375)">25</text><text x="11.431" y="34.513" style="font-family:&quot;SourceSans3Roman-Bold&quot;,&quot;Source Sans 3&quot;,sans-serif;font-weight:200;font-size:42.667px" transform="translate(750 340.858)">1</text><text y="27.226" style="font-family:&quot;SourceSans3Roman-Bold&quot;,&quot;Source Sans 3&quot;,sans-serif;font-weight:200;font-size:24px" transform="translate(862 342.358)">14</text><path d="M258 328.95c0-1.076-.836-1.95-1.866-1.95h-59.268c-1.03 0-1.866.874-1.866 1.95v35.1c0 1.076.836 1.95 1.866 1.95h59.268c1.03 0 1.866-.874 1.866-1.95v-35.1Z" style="fill:#fff" transform="matrix(.96825 0 0 .92674 605.69 39.313)"/><path d="M858.166 344.164v32.529a4.475 4.475 0 0 1-4.473 4.473h-57.387a4.475 4.475 0 0 1-4.473-4.473v-32.529a4.475 4.475 0 0 1 4.473-4.473h57.387a4.475 4.475 0 0 1 4.473 4.473Zm-2.666 0c0-.997-.81-1.807-1.807-1.807h-57.387c-.997 0-1.806.81-1.806 1.807v32.529c0 .997.809 1.807 1.806 1.807h57.387c.997 0 1.807-.81 1.807-1.807v-32.529Z"/><path d="m195 327 63 39M195 366l63-39" style="fill:none;stroke:#000;stroke-width:2.81px;stroke-linecap:round;stroke-miterlimit:1.5" transform="matrix(.96825 0 0 .92674 605.69 39.313)"/><text x="66.637" y="27" style="font-family:&quot;SourceSans3Roman-Bold&quot;,&quot;Source Sans 3&quot;,sans-serif;font-weight:200;font-size:21.333px" transform="translate(750 311.429)">xx</text><text x="54.861" y="52.442" style="font-family:&quot;SourceSans3Roman-Bold&quot;,&quot;Source Sans 3&quot;,sans-serif;font-weight:200;font-size:42.667px" transform="translate(600 375)">25</text><text x="11.431" y="34.513" style="font-family:&quot;SourceSans3Roman-Bold&quot;,&quot;Source Sans 3&quot;,sans-serif;font-weight:200;font-size:42.667px" transform="translate(600 340.858)">1</text><text y="27.226" style="font-family:&quot;SourceSans3Roman-Bold&quot;,&quot;Source Sans 3&quot;,sans-serif;font-weight:200;font-size:24px" transform="translate(712 342.358)">13</text><path d="M258 328.95c0-1.076-.836-1.95-1.866-1.95h-59.268c-1.03 0-1.866.874-1.866 1.95v35.1c0 1.076.836 1.95 1.866 1.95h59.268c1.03 0 1.866-.874 1.866-1.95v-35.1Z" style="fill:#fff" transform="matrix(.96825 0 0 .92674 455.69 39.313)"/><path d="M708.166 344.164v32.529a4.475 4.475 0 0 1-4.473 4.473h-57.387a4.475 4.475 0 0 1-4.473-4.473v-32.529a4.475 4.475 0 0 1 4.473-4.473h57.387a4.475 4.475 0 0 1 4.473 4.473Zm-2.666 0c0-.997-.81-1.807-1.807-1.807h-57.387c-.997 0-1.806.81-1.806 1.807v32.529c0 .997.809 1.807 1.806 1.807h57.387c.997 0 1.807-.81 1.807-1.807v-32.529Z"/><path d="m195 327 63 39M195 366l63-39" style="fill:none;stroke:#000;stroke-width:2.81px;stroke-linecap:round;stroke-miterlimit:1.5" transform="matrix(.96825 0 0 .92674 455.69 39.313)"/><text x="66.637" y="27" style="font-family:&quot;SourceSans3Roman-Bold&quot;,&quot;Source Sans 3&quot;,sans-serif;font-weight:200;font-size:21.333px" transform="translate(600 311.429)">xx</text><text x="54.861" y="52.442" style="font-family:&quot;SourceSans3Roman-Bold&quot;,&quot;Source Sans 3&quot;,sans-serif;font-weight:200;font-size:42.667px" transform="translate(450 375)">25</text><text x="11.431" y="34.513" style="font-family:&quot;SourceSans3Roman-Bold&quot;,&quot;Source Sans 3&quot;,sans-serif;font-weight:200;font-size:42.667px" transform="translate(450 340.858)">1</text><text y="27.226" style="font-family:&quot;SourceSans3Roman-Bold&quot;,&quot;Source Sans 3&quot;,sans-serif;font-weight:200;font-size:24px" transform="translate(562 342.358)">12</text><path d="M258 328.95c0-1.076-.836-1.95-1.866-1.95h-59.268c-1.03 0-1.866.874-1.866 1.95v35.1c0 1.076.836 1.95 1.866 1.95h59.268c1.03 0 1.866-.874 1.866-1.95v-35.1Z" style="fill:#fff" transform="matrix(.96825 0 0 .92674 305.69 39.313)"/><path d="M558.166 344.164v32.529a4.475 4.475 0 0 1-4.473 4.473h-57.387a4.475 4.475 0 0 1-4.473-4.473v-32.529a4.475 4.475 0 0 1 4.473-4.473h57.387a4.475 4.475 0 0 1 4.473 4.473Zm-2.666 0c0-.997-.81-1.807-1.807-1.807h-57.387c-.997 0-1.806.81-1.806 1.807v32.529c0 .997.809 1.807 1.806 1.807h57.387c.997 0 1.807-.81 1.807-1.807v-32.529Z"/><path d="m195 327 63 39M195 366l63-39" style="fill:none;stroke:#000;stroke-width:2.81px;stroke-linecap:round;stroke-miterlimit:1.5" transform="matrix(.96825 0 0 .92674 305.69 39.313)"/><text x="66.637" y="27" style="font-family:&quot;SourceSans3Roman-Bold&quot;,&quot;Source Sans 3&quot;,sans-serif;font-weight:200;font-size:21.333px" transform="translate(450 311.429)">xx</text><text x="54.861" y="52.442" style="font-family:&quot;SourceSans3Roman-Bold&quot;,&quot;Source Sans 3&quot;,sans-serif;font-weight:200;font-size:42.667px" transform="translate(300 375)">25</text><text x="11.431" y="34.513" style="font-family:&quot;SourceSans3Roman-Bold&quot;,&quot;Source Sans 3&quot;,sans-serif;font-weight:200;font-size:42.667px" transform="translate(300 340.858)">1</text><text y="27.226" style="font-family:&quot;SourceSans3Roman-Bold&quot;,&quot;Source Sans 3&quot;,sans-serif;font-weight:200;font-size:24px" transform="translate(412 342.358)">9</text><path d="M258 328.95c0-1.076-.836-1.95-1.866-1.95h-59.268c-1.03 0-1.866.874-1.866 1.95v35.1c0 1.076.836 1.95 1.866 1.95h59.268c1.03 0 1.866-.874 1.866-1.95v-35.1Z" style="fill:#fff" transform="matrix(.96825 0 0 .92674 155.69 39.313)"/><path d="M408.166 344.164v32.529a4.475 4.475 0 0 1-4.473 4.473h-57.387a4.475 4.475 0 0 1-4.473-4.473v-32.529a4.475 4.475 0 0 1 4.473-4.473h57.387a4.475 4.475 0 0 1 4.473 4.473Zm-2.666 0c0-.997-.81-1.807-1.807-1.807h-57.387c-.997 0-1.806.81-1.806 1.807v32.529c0 .997.809 1.807 1.806 1.807h57.387c.997 0 1.807-.81 1.807-1.807v-32.529Z"/><path d="m195 327 63 39M195 366l63-39" style="fill:none;stroke:#000;stroke-width:2.81px;stroke-linecap:round;stroke-miterlimit:1.5" transform="matrix(.96825 0 0 .92674 155.69 39.313)"/><text x="66.637" y="27" style="font-family:&quot;SourceSans3Roman-Bold&quot;,&quot;Source Sans 3&quot;,sans-serif;font-weight:200;font-size:21.333px" transform="translate(300 311.429)">xx</text><text x="54.861" y="52.442" style="font-family:&quot;SourceSans3Roman-Bold&quot;,&quot;Source Sans 3&quot;,sans-serif;font-weight:200;font-size:42.667px" transform="translate(150 375)">25</text><text x="11.431" y="34.513" style="font-family:&quot;SourceSans3Roman-Bold&quot;,&quot;Source Sans 3&quot;,sans-serif;font-weight:200;font-size:42.667px" transform="translate(150 340.858)">1</text><text y="27.226" style="font-family:&quot;SourceSans3Roman-Bold&quot;,&quot;Source Sans 3&quot;,sans-serif;font-weight:200;font-size:24px" transform="translate(262 342.358)">4</text><path d="M258 328.95c0-1.076-.836-1.95-1.866-1.95h-59.268c-1.03 0-1.866.874-1.866 1.95v35.1c0 1.076.836 1.95 1.866 1.95h59.268c1.03 0 1.866-.874 1.866-1.95v-35.1Z" style="fill:#fff" transform="matrix(.96825 0 0 .92674 5.69 39.313)"/><path d="M258.167 344.164v32.529a4.475 4.475 0 0 1-4.474 4.473h-57.386a4.475 4.475 0 0 1-4.474-4.473v-32.529a4.475 4.475 0 0 1 4.474-4.473h57.386a4.475 4.475 0 0 1 4.474 4.473Zm-2.667 0c0-.997-.81-1.807-1.807-1.807h-57.386c-.998 0-1.807.81-1.807 1.807v32.529c0 .997.81 1.807 1.807 1.807h57.386c.998 0 1.807-.81 1.807-1.807v-32.529Z"/><path d="m195 327 63 39M195 366l63-39" style="fill:none;stroke:#000;stroke-width:2.81px;stroke-linecap:round;stroke-miterlimit:1.5" transform="matrix(.96825 0 0 .92674 5.69 39.313)"/><text x="66.637" y="27" style="font-family:&quot;SourceSans3Roman-Bold&quot;,&quot;Source Sans 3&quot;,sans-serif;font-weight:200;font-size:21.333px" transform="translate(150 311.429)">xx</text><text x="54.861" y="52.442" style="font-family:&quot;SourceSans3Roman-Bold&quot;,&quot;Source Sans 3&quot;,sans-serif;font-weight:200;font-size:42.667px" transform="translate(0 375)">25</text><text x="11.431" y="34.513" style="font-family:&quot;SourceSans3Roman-Bold&quot;,&quot;Source Sans 3&quot;,sans-serif;font-weight:200;font-size:42.667px" transform="translate(0 340.858)">1</text><text y="27.226" style="font-family:&quot;SourceSans3Roman-Bold&quot;,&quot;Source Sans 3&quot;,sans-serif;font-weight:200;font-size:24px" transform="translate(112 342.358)">2</text><path d="M258 328.95c0-1.076-.836-1.95-1.866-1.95h-59.268c-1.03 0-1.866.874-1.866 1.95v35.1c0 1.076.836 1.95 1.866 1.95h59.268c1.03 0 1.866-.874 1.866-1.95v-35.1Z" style="fill:#fff" transform="matrix(.96825 0 0 .92674 -144.31 39.313)"/><path d="M108.167 344.164v32.529a4.475 4.475 0 0 1-4.474 4.473H46.307a4.475 4.475 0 0 1-4.474-4.473v-32.529a4.475 4.475 0 0 1 4.474-4.473h57.386a4.475 4.475 0 0 1 4.474 4.473Zm-2.667 0c0-.997-.81-1.807-1.807-1.807H46.307c-.998 0-1.807.81-1.807 1.807v32.529c0 .997.81 1.807 1.807 1.807h57.386c.998 0 1.807-.81 1.807-1.807v-32.529Z"/><path d="m195 327 63 39M195 366l63-39" style="fill:none;stroke:#000;stroke-width:2.81px;stroke-linecap:round;stroke-miterlimit:1.5" transform="matrix(.96825 0 0 .92674 -144.31 39.313)"/><text x="66.637" y="27" style="font-family:&quot;SourceSans3Roman-Bold&quot;,&quot;Source Sans 3&quot;,sans-serif;font-weight:200;font-size:21.333px" transform="translate(0 311.429)">xx</text><path d="M0 300h150v150H0z" style="fill:#fff" transform="matrix(7 0 0 2 0 -600)"/><text x="26.104" y="47.275" style="font-family:&quot;SourceSans3Roman-Bold&quot;,&quot;Source Sans 3&quot;,sans-serif;font-weight:200;font-size:42.667px" transform="translate(750 150)">-<tspan x="38.221px 54.52px 66.637px 82.936px 95.053px 111.352px" y="47.275px 47.275px 47.275px 47.275px 47.275px 47.275px">x-x-x-</tspan></text><text x="16.845" y="89.942" style="font-family:&quot;SourceSans3Roman-Bold&quot;,&quot;Source Sans 3&quot;,sans-serif;font-weight:200;font-size:42.667px" transform="translate(750 150)">Bor<tspan x="76.664" y="89.942">d</tspan>er</text><text x="31.352" y="132.609" style="font-family:&quot;SourceSans3Roman-Bold&quot;,&quot;Source Sans 3&quot;,sans-serif;font-weight:200;font-size:42.667px" transform="translate(750 150)">Z<tspan x="53.112" y="132.609">o</tspan>ne</text><text x="8.781" y="47.275" style="font-family:&quot;SourceSans3Roman-Bold&quot;,&quot;Source Sans 3&quot;,sans-serif;font-weight:200;font-size:42.667px" transform="translate(900 150)">Inac<tspan x="80.461" y="47.275">t</tspan>ive</text><text x="16.845" y="89.942" style="font-family:&quot;SourceSans3Roman-Bold&quot;,&quot;Source Sans 3&quot;,sans-serif;font-weight:200;font-size:42.667px" transform="translate(900 150)">Bor<tspan x="76.664" y="89.942">d</tspan>er</text><text x="31.352" y="132.609" style="font-family:&quot;SourceSans3Roman-Bold&quot;,&quot;Source Sans 3&quot;,sans-serif;font-weight:200;font-size:42.667px" transform="translate(900 150)">Z<tspan x="53.112" y="132.609">o</tspan>ne</text><text x="43.085" y="40.942" style="font-family:&quot;SourceSans3Roman-Bold&quot;,&quot;Source Sans 3&quot;,sans-serif;font-weight:200;font-size:42.667px" transform="translate(600 248)">P<tspan x="64.845px 84.899px" y="40.942px 40.942px">TS</tspan></text><path d="M467.677 33.958v38.187h-1.438c-1.18 0-2.125.975-2.125 2.157v1.406h-4.625v6.594h.875v3.375h-1.75v7.093h1.75v3.375h-4.062v8.344h2.125v11.031h-4.094v3.032h-20.969v.156h20.97v19.406h-8.532v.125h8.531v4.625h-8.781v-2.25h8.531v-.125h-8.531v-2.375h-.125v4.75h-.125v1.156h9.031v4.344h-3.062v.125h3.062v2.25h-3.312v-2.375h-.125v5.188h-.063v1.125h3.5v3.343h-2.937v.125h2.937v2.25h-3.187v-2.375h-.125v5.47h-1.313v.718h4.625v21.687h-16.125l-.281-1.406c-.43-.506-.961-.884-1.563-1.219l5.657-4.28-.532-.72s-4.663 3.14-6.718 4.344c-2.011-.626-4.516-.783-7.157-.781l-.062 1.875h-5.625v2.187H393.27v-13.25h-10.063v-22.343h10.063v-4.032h-4.032v-2.5h-1.75v2.5h-4.28v-6.28h2.53v-.75h-3.78v-11.063h5.78v-3.282h-5.78v-2.312c1.07-.46 1.75-1.15 1.75-1.938v-3.78c0-1.393-2.106-2.5-4.75-2.5h-2.532V58.051h-.75v52.781h-3.781v3.531h-1c-2.646 0-4.75 1.108-4.75 2.5v3.781c0 .848.785 1.577 2 2.032v2.218h-18.344v3.282h18.094v11.062h-10.282l-3.812-3.531c-.564-.935-1.623-1.553-5.5-.5l-11.063 9.062c-1.356 1.451-1.008 2.249-.5 3l15.063 12.188v16.969h-13.563v-7.032h.5v-4.28h-8.78v-11.063h-1.032v11.062h-1c-4.594 0-8.281.997-8.281 2.25v18.531h-11.063v-2.937h-26.125v2.937h-4.031v10.72l-12.5.03v-3.03h-26.125v3.124l-46.719.156c-1.286 4.46 1.513 10.09-9.156 9.188H35.677l.5 16.594c.336 5.36 2.011 9.355 7.531 9.53l880.563.5c.806-17.957 8.827-28.69 16.093-40.187-20.972.45-67.021 3.455-123.875 6.313v-3.719h-2.5v3.844c-.716.036-1.405.058-2.125.094v-.032h-8.53v-3.53h-.345v3.53h-3.562v-3.53h-.719v3.53h-8.531v1.063c-20.21.928-41.403 1.805-63.094 2.5h-18.469v-1.406h-52.593v1.406h-9.407v-3.563h-10.312v3.563h-1.781v1.656c-9.192.006-18.353-.043-27.407-.156l-.5-8.563-15.28.063v-10.75h-52.595v10.906l-22.218.094V165.27h-28.438v-2.125h28.813c.787 0 1.406-.65 1.406-1.437v-12.063c0-.336-.118-.663-.313-.906h2.282v-.344h-2.72a1.35 1.35 0 0 0-.655-.187v-1.406h-11.063c.029-.113.031-.254.031-.375v-1.782c0-.787-.618-1.406-1.406-1.406h-8.187c-.788 0-1.407.619-1.407 1.406v1.782c0 .124.002.26.032.375h-.032v1.406h-6.78v-31.813h2.312v.532h2.312v-.532h12.094v-.156h-12.094v-2.312h1.594v-3.22h-1.594v-2.468h-.156v-3.906h-3.219v4.25h1.063v2.125h-14.22v-6.219h2.313v-8.344h-4.437V92.77h3.375v-7.093h-3.375v-3.375h1.25v-6.594h-5.344v-1.406c0-1.182-.944-2.157-2.125-2.157V33.958h-.156Zm-58.844 151.937 10.844-.375-.344-1.78c-.43-.507-.961-.885-1.562-1.22l5.656-4.28-.531-.72s-4.663 3.14-6.72 4.344c-2.01-.626-4.515-.783-7.155-.781l-.188 4.812ZM373.427 64.583v.781h1.5v-.781h-1.5Zm73.625 44.906v5.313h10.844v-5.313h-10.844Zm29.125 4.438h14.219v2.312h-2.313v-.719h-11.906v-1.593Zm13.687 4.781v6.594h3.75v-6.594h-3.75Zm-38.843 32.156h3.312v2.688h-3.312v-2.688Zm68 4.094v9.969h7.093v-9.969h-7.093Zm-67.875 5.562h3.187v2.97h-3.187v-2.97Zm79.25 9.375.343 14.032h54.75l2.657-.188-.844-1.281.312.062s-.218-1.142-.375-1.937l4.47-.219-.095-.812 36.157.125.343-2.157-36.843-.687-.094-.719-4.844-.156c-.04-.236-.137-.772-.156-.906-.16-1.116-2.442-.384-3.812-.219l-.813-1.219-29.844-3.531-21.312-.188Zm-220.063.25-3 1.25-.906 2.72-.344-.97-11.781 1.532h-7.594l-.469 1.062-.906.094-27 .344.25 1.25 25.344.156-2.219 4.625h27.625l-.437-1.25h2.187v-6l1.031-.031-1.78-4.782h-.001Zm-42.656 10.657-3 1.25-.906 2.718-.344-.968-11.781 1.531h-7.594l-.469 1.062-.906.094-27 .344.25 1.25 25.344.156-2.22 4.625h27.626l-.438-1.25h2.188v-6l1.031-.031-1.781-4.781Zm380 5.437.344 14.031h54.75l2.656-.187-.844-1.281.313.062s-.218-1.143-.375-1.937l4.468-.219-.093-.813 36.156.125.344-2.156-36.844-.687-.094-.719-4.843-.156c-.042-.236-.138-.772-.157-.907-.16-1.115-2.442-.383-3.812-.218l-.813-1.219-29.843-3.531-21.313-.188Zm176.969 9.594v2.125h3.906v-2.125h-3.906Z" style="fill-rule:nonzero;stroke:#000;stroke-width:1px;stroke-linejoin:miter;stroke-miterlimit:4" transform="matrix(.1459 0 0 .1459 603.794 194.045)"/><text x="12.82" y="40.517" style="font-family:&quot;SourceSans3Roman-Bold&quot;,&quot;Source Sans 3&quot;,sans-serif;font-weight:200;font-size:40px" transform="translate(627 150)">N<tspan x="36.5px 55.3px 72.58px 91.78px" y="40.517px 40.517px 40.517px 40.517px">AVAL</tspan></text><text x="38.733" y="40.942" style="font-family:&quot;SourceSans3Roman-Bold&quot;,&quot;Source Sans 3&quot;,sans-serif;font-weight:200;font-size:42.667px" transform="translate(450 248)">MA<tspan x="91.213" y="40.942">X</tspan></text><path d="M336.52 48.49a.37.37 0 0 1 .089.039.348.348 0 0 1 .041.551c-4.53 4.21-19.91 20.22-25.4 20.04a44158.76 44158.76 0 0 1-107.41-3.67c-10.07-.35-22.99-1.78-34.6-1.89-.321 0-.629-.122-.86-.34-2.18-2.02-3.82-3.66-6.77-4.59a235.936 235.936 0 0 0-20.92-5.6c-.42-.093-.99.08-1.71.52a1.133 1.133 0 0 1-.88.14c-1.527-.367-2.023-1.393-1.49-3.08.073-.213.22-.32.44-.32l158.4-.78c.24 0 .41-.107.51-.32.627-1.287.62-2.267-.02-2.94-.453-.473-1.313-.707-2.58-.7-52.333.213-104.67.453-157.01.72-.3 0-.557-.107-.77-.32l-1.38-1.37a1.475 1.475 0 0 0-.97-.44c-2.073-.113-3.867.467-5.38 1.74-.26.22-.563.33-.91.33l-99.23.37c-.307 0-.46.153-.46.46v2.756a.789.789 0 0 0 .786.784h.004l98.59-.33c.307 0 .497.15.57.45l.25 1.07a1.185 1.185 0 0 1-1.07 1.45c-4.393.26-8.753.507-13.08.74-5.55.31-9.44 1.34-10.79 6.94-.053.22-.19.337-.41.35l-28.98 2.56c-.613.053-.907.387-.88 1 .14 3.73-.71 5.96-4.67 6.81a802.233 802.233 0 0 0-19.79 4.49c-6.82 1.65-12.93 10.79-15.64 16.83-3.01 6.69.81 12.02 5.52 16.46a.521.521 0 0 1 .11.62l-1.54 3.09a.79.79 0 0 0 1.01 1.08c9.31-3.93 18.07-3.91 30.07-3.22 2.013.113 3.877.65 5.59 1.61.333.187.437.46.31.82-1.49 4.19-3.04 14.71 4.05 13.61 4.62-.72 6.35-3.317 5.19-7.79-.46-1.76-2.07-3.02-3.29-4.17-.767-.713-.633-1.157.4-1.33 22.04-3.66 44.12-1.68 66.79-.88.367.013.487.193.36.54-4.61 13.19 7.46 18.8 14.08 7.59.14-.24.21-.497.21-.77V112.725a.678.678 0 0 1 .72-.655c20.56 1.34 45.2-7.87 52.07-28.69a.551.551 0 0 1 .49-.37c27.033-1.14 54.003-2.293 80.91-3.46 5.85-.26 13.26 9.12 16.75 13.19a.5.5 0 0 0 .86-.45c-1.073-4.193-1.117-8.39-.13-12.59.08-.347.297-.51.65-.49 2.86.16 5.747.223 8.66.19 5.81-.07 7.54-2.99 11.03-7.98 2.84-4.06 5.57-8.093 8.19-12.1a.701.701 0 0 1 1.26.18c1.32 4.26 2.84 12.61 5.79 15.66a.469.469 0 0 0 .804-.331c0-.02-.002-.039-.004-.059l-3.42-26.38c-.047-.34.07-.613.35-.82a125.65 125.65 0 0 0 19.45-17.61c.347-.38.27-.637-.23-.77l-2.47-.65c-.4-.107-.757-.02-1.07.26a577.817 577.817 0 0 1-17.73 15.16c-3.74 3.07-5.17 1.92-9.85.32-4.31-1.48-12.96-5.66-17.15-5.44a.33.33 0 0 0-.16.61 79.661 79.661 0 0 0 19.75 9.04" style="fill-rule:nonzero;stroke:#000;stroke-width:1px;stroke-linejoin:miter;stroke-miterlimit:4" transform="matrix(.38162 0 0 .38162 450.033 192.142)"/><text x="4.22" y="40.517" style="font-family:&quot;SourceSans3Roman-Bold&quot;,&quot;Source Sans 3&quot;,sans-serif;font-weight:200;font-size:40px" transform="translate(478.5 150)">H<tspan x="27.98px 46.78px 62.86px" y="40.517px 40.517px 40.517px">ELO</tspan></text><text x="28.195" y="40.942" style="font-family:&quot;SourceSans3Roman-Bold&quot;,&quot;Source Sans 3&quot;,sans-serif;font-weight:200;font-size:42.667px" transform="translate(300 248)">A<tspan x="49.955px 70.093px" y="40.942px 40.942px">VA</tspan>IL</text><text x="4.22" y="40.517" style="font-family:&quot;SourceSans3Roman-Bold&quot;,&quot;Source Sans 3&quot;,sans-serif;font-weight:200;font-size:40px" transform="translate(330.502 150)">H<tspan x="27.98px 46.78px 62.86px" y="40.517px 40.517px 40.517px">ELO</tspan></text><path d="M336.52 48.49a.37.37 0 0 1 .089.039.348.348 0 0 1 .041.551c-4.53 4.21-19.91 20.22-25.4 20.04a44158.76 44158.76 0 0 1-107.41-3.67c-10.07-.35-22.99-1.78-34.6-1.89-.321 0-.629-.122-.86-.34-2.18-2.02-3.82-3.66-6.77-4.59a235.936 235.936 0 0 0-20.92-5.6c-.42-.093-.99.08-1.71.52a1.133 1.133 0 0 1-.88.14c-1.527-.367-2.023-1.393-1.49-3.08.073-.213.22-.32.44-.32l158.4-.78c.24 0 .41-.107.51-.32.627-1.287.62-2.267-.02-2.94-.453-.473-1.313-.707-2.58-.7-52.333.213-104.67.453-157.01.72-.3 0-.557-.107-.77-.32l-1.38-1.37a1.475 1.475 0 0 0-.97-.44c-2.073-.113-3.867.467-5.38 1.74-.26.22-.563.33-.91.33l-99.23.37c-.307 0-.46.153-.46.46v2.756a.789.789 0 0 0 .786.784h.004l98.59-.33c.307 0 .497.15.57.45l.25 1.07a1.185 1.185 0 0 1-1.07 1.45c-4.393.26-8.753.507-13.08.74-5.55.31-9.44 1.34-10.79 6.94-.053.22-.19.337-.41.35l-28.98 2.56c-.613.053-.907.387-.88 1 .14 3.73-.71 5.96-4.67 6.81a802.233 802.233 0 0 0-19.79 4.49c-6.82 1.65-12.93 10.79-15.64 16.83-3.01 6.69.81 12.02 5.52 16.46a.521.521 0 0 1 .11.62l-1.54 3.09a.79.79 0 0 0 1.01 1.08c9.31-3.93 18.07-3.91 30.07-3.22 2.013.113 3.877.65 5.59 1.61.333.187.437.46.31.82-1.49 4.19-3.04 14.71 4.05 13.61 4.62-.72 6.35-3.317 5.19-7.79-.46-1.76-2.07-3.02-3.29-4.17-.767-.713-.633-1.157.4-1.33 22.04-3.66 44.12-1.68 66.79-.88.367.013.487.193.36.54-4.61 13.19 7.46 18.8 14.08 7.59.14-.24.21-.497.21-.77V112.725a.678.678 0 0 1 .72-.655c20.56 1.34 45.2-7.87 52.07-28.69a.551.551 0 0 1 .49-.37c27.033-1.14 54.003-2.293 80.91-3.46 5.85-.26 13.26 9.12 16.75 13.19a.5.5 0 0 0 .86-.45c-1.073-4.193-1.117-8.39-.13-12.59.08-.347.297-.51.65-.49 2.86.16 5.747.223 8.66.19 5.81-.07 7.54-2.99 11.03-7.98 2.84-4.06 5.57-8.093 8.19-12.1a.701.701 0 0 1 1.26.18c1.32 4.26 2.84 12.61 5.79 15.66a.469.469 0 0 0 .804-.331c0-.02-.002-.039-.004-.059l-3.42-26.38c-.047-.34.07-.613.35-.82a125.65 125.65 0 0 0 19.45-17.61c.347-.38.27-.637-.23-.77l-2.47-.65c-.4-.107-.757-.02-1.07.26a577.817 577.817 0 0 1-17.73 15.16c-3.74 3.07-5.17 1.92-9.85.32-4.31-1.48-12.96-5.66-17.15-5.44a.33.33 0 0 0-.16.61 79.661 79.661 0 0 0 19.75 9.04" style="fill-rule:nonzero;stroke:#000;stroke-width:1px;stroke-linejoin:miter;stroke-miterlimit:4" transform="matrix(.38162 0 0 .38162 302.034 191.066)"/><text x="38.733" y="40.942" style="font-family:&quot;SourceSans3Roman-Bold&quot;,&quot;Source Sans 3&quot;,sans-serif;font-weight:200;font-size:42.667px" transform="translate(150 248)">MA<tspan x="91.213" y="40.942">X</tspan></text><path d="M27.72 96.22a1654.695 1654.695 0 0 0-.26 37.28c0 .147.067.257.2.33.24.14.38.07.42-.21l4.7-36.9c.053-.42.263-.523.63-.31 1.367.793 2.297 1.99 2.79 3.59a.433.433 0 0 0 .14.2l9.14 6.75c.148.116.248.28.28.46l.65 4.31a.73.73 0 0 0 .44.56c10.59 4.44 23.88 5.51 35.82 7.07 4.69.61 8.96 2.84 13.66 4.06.15.039.31.032.46-.02l6.35-2.27c1.52-.547 2.823-.22 3.91.98 3.16 3.45 6.39 8.13 10.23 10.31a.552.552 0 0 0 .79-.68 28.827 28.827 0 0 1-1.9-8.67l-.001-.047a.874.874 0 0 1 .981-.863c6.32.88 15.72 3.32 21.69 2.01 5.74-1.26 11.14-2.68 16.93-2.98 6.75-.35 14.01-.42 20.22-.85a631.882 631.882 0 0 0 44.43-4.67c4.62-.66 8.29.97 11.89 3.47.41.285.972.234 1.33-.12 3.29-3.22 6.3-5.45 11.12-6.23 7.373-1.193 14.78-2.1 22.22-2.72 4.71-.39 7.92.17 11.85 2.24a.623.623 0 0 0 .89-.7l-.46-1.85a.763.763 0 0 1 .61-.93c12.67-2.22 25.61-3 38.38-4.53 9.73-1.16 22.19-4.23 29.62-11.53a.477.477 0 0 0-.16-.78 79.251 79.251 0 0 1-13.15-6.77c-.92-.587-1.2-1.393-.84-2.42l20.87-60.27c.253-.727.01-1.19-.73-1.39-10.37-2.81-22.32-7.95-31.25.79-10 9.78-22.13 22.32-40.84 40.85-6.55 6.5-11.37 5.62-20.1 5.53-.48-.007-.673-.243-.58-.71l1.18-6.2c.093-.5-.117-.76-.63-.78l-4.52-.15c-.387-.013-.647.16-.78.52-1.86 5.2-5.11 7.34-10.72 8.15a185.45 185.45 0 0 1-28.12 1.92c-5.6-.04-10.59-1.18-15.69-2.86-22.14-7.26-43.05-13.49-66.34-10.96-3.84.42-6.22-.74-9.54-2.25a.582.582 0 0 0-.68.15l-2.85 3.34-.005.006a.678.678 0 0 1-.952.066l-.003-.002a8.038 8.038 0 0 0-4.07-1.95.573.573 0 0 0-.66.69l.63 2.66c.073.333-.02.603-.28.81-5.08 4-18.79 14.58-25.05 14.55-16.04-.067-32.087-.083-48.14-.05-3.72.01-6.78 1.4-10.33 2.15a.924.924 0 0 1-1.11-.84c-.84-12-1.35-24.017-1.53-36.05 0-.087-.043-.143-.13-.17-.093-.033-.19-.067-.29-.1-.16-.06-.243-.007-.25.16l-1.82 35.91c-.02.393-.19.703-.51.93l-11.7 7.98a.55.55 0 0 0-.04.88l11.18 9.3c.26.213.387.487.38.82" style="fill-rule:nonzero" transform="matrix(.31965 0 0 .31965 161.762 196.765)"/><text x="47.565" y="41.45" style="font-family:&quot;SourceSans3Roman-Bold&quot;,&quot;Source Sans 3&quot;,sans-serif;font-weight:200;font-size:42.667px" transform="translate(150 150)">AIR</text><text x="28.195" y="40.942" style="font-family:&quot;SourceSans3Roman-Bold&quot;,&quot;Source Sans 3&quot;,sans-serif;font-weight:200;font-size:42.667px" transform="translate(0 248)">A<tspan x="49.955px 70.093px" y="40.942px 40.942px">VA</tspan>IL</text><path d="M27.72 96.22a1654.695 1654.695 0 0 0-.26 37.28c0 .147.067.257.2.33.24.14.38.07.42-.21l4.7-36.9c.053-.42.263-.523.63-.31 1.367.793 2.297 1.99 2.79 3.59a.433.433 0 0 0 .14.2l9.14 6.75c.148.116.248.28.28.46l.65 4.31a.73.73 0 0 0 .44.56c10.59 4.44 23.88 5.51 35.82 7.07 4.69.61 8.96 2.84 13.66 4.06.15.039.31.032.46-.02l6.35-2.27c1.52-.547 2.823-.22 3.91.98 3.16 3.45 6.39 8.13 10.23 10.31a.552.552 0 0 0 .79-.68 28.827 28.827 0 0 1-1.9-8.67l-.001-.047a.874.874 0 0 1 .981-.863c6.32.88 15.72 3.32 21.69 2.01 5.74-1.26 11.14-2.68 16.93-2.98 6.75-.35 14.01-.42 20.22-.85a631.882 631.882 0 0 0 44.43-4.67c4.62-.66 8.29.97 11.89 3.47.41.285.972.234 1.33-.12 3.29-3.22 6.3-5.45 11.12-6.23 7.373-1.193 14.78-2.1 22.22-2.72 4.71-.39 7.92.17 11.85 2.24a.623.623 0 0 0 .89-.7l-.46-1.85a.763.763 0 0 1 .61-.93c12.67-2.22 25.61-3 38.38-4.53 9.73-1.16 22.19-4.23 29.62-11.53a.477.477 0 0 0-.16-.78 79.251 79.251 0 0 1-13.15-6.77c-.92-.587-1.2-1.393-.84-2.42l20.87-60.27c.253-.727.01-1.19-.73-1.39-10.37-2.81-22.32-7.95-31.25.79-10 9.78-22.13 22.32-40.84 40.85-6.55 6.5-11.37 5.62-20.1 5.53-.48-.007-.673-.243-.58-.71l1.18-6.2c.093-.5-.117-.76-.63-.78l-4.52-.15c-.387-.013-.647.16-.78.52-1.86 5.2-5.11 7.34-10.72 8.15a185.45 185.45 0 0 1-28.12 1.92c-5.6-.04-10.59-1.18-15.69-2.86-22.14-7.26-43.05-13.49-66.34-10.96-3.84.42-6.22-.74-9.54-2.25a.582.582 0 0 0-.68.15l-2.85 3.34-.005.006a.678.678 0 0 1-.952.066l-.003-.002a8.038 8.038 0 0 0-4.07-1.95.573.573 0 0 0-.66.69l.63 2.66c.073.333-.02.603-.28.81-5.08 4-18.79 14.58-25.05 14.55-16.04-.067-32.087-.083-48.14-.05-3.72.01-6.78 1.4-10.33 2.15a.924.924 0 0 1-1.11-.84c-.84-12-1.35-24.017-1.53-36.05 0-.087-.043-.143-.13-.17-.093-.033-.19-.067-.29-.1-.16-.06-.243-.007-.25.16l-1.82 35.91c-.02.393-.19.703-.51.93l-11.7 7.98a.55.55 0 0 0-.04.88l11.18 9.3c.26.213.387.487.38.82" style="fill-rule:nonzero" transform="matrix(.31965 0 0 .31965 15.762 196.765)"/><text x="47.565" y="41.45" style="font-family:&quot;SourceSans3Roman-Bold&quot;,&quot;Source Sans 3&quot;,sans-serif;font-weight:200;font-size:42.667px" transform="translate(0 150)">AIR</text><path d="M1200 0h150v150h-150z"/><text x="22.52" y="38.207" style="font-family:&quot;SourceSans3Roman-Bold&quot;,&quot;Source Sans 3&quot;,sans-serif;font-weight:200;font-size:32px;fill:#fff" transform="translate(1200 96)">TERROR</text><path d="M13.12 29.49c-.88-4.62-.86-9.23.06-13.83C17.073 7.14 23.893 1.92 33.64 0h7.12c5.233 1.393 9.92 3.7 14.06 6.92 2.34 1.84 3.927 4.197 4.76 7.07a24.607 24.607 0 0 1 2.15 9.75c.07 5-1.13 22.2-7.29 23.25a1.965 1.965 0 0 1-.88-.06l-2.38-.74c-.373-.12-.68-.023-.92.29-1.04 1.367-1.66 2.87-1.86 4.51l-.91 2.58c-.44.847-1.29 1.457-2.55 1.83-1.527.847-3.403 1.373-5.63 1.58-3.347.32-6.45-.173-9.31-1.48-3.45-1.22-3.41-4.22-4.27-7.07-.14-.447-.437-.61-.89-.49l-2.29.61a2.76 2.76 0 0 1-2.95-1.06l-4.13-5.77L14 34.06l-.33-.77c-.62-1.22-.803-2.487-.55-3.8Zm36.97-2.95c-2.28-.94-4.4-1.403-6.36-1.39-.967.32-1.728.872-2.29 1.65-.212.294-.297.62-.25.98l.71 6.31 3.96 3.94c6.59 1.61 7.22-3.673 6.87-8.43a1.28 1.28 0 0 0-.38-.81l-2.26-2.25Zm-23.05-.56c-7.06 1.2-9.97 7.46-3.93 12.36 1.56.44 2.893.237 4-.61 3.253-2.247 4.903-4.89 4.95-7.93-.133-1.953-.91-3.137-2.33-3.55-.607.08-1.013.02-1.22-.18l-1.47-.09Zm13.92 16.75c-.133-2.46-.75-4.427-1.85-5.9-.513-.26-.833-.6-.96-1.02-1.107-.88-2.137-.957-3.09-.23-2.3 3.013-2.756 6.295-1.31 9.82a.964.964 0 0 0 .7.6c1.815.441 3.587.533 5.32.26.173-1.527.57-2.703 1.19-3.53ZM4.1 84.05.73 80.8a.98.98 0 0 1-.32-.81c.193-2.933 1.727-4.237 4.6-3.91 6.57-.35 14.16-3.75 20.2-6.3 1.25-.53 2.25-1.43 3.55-2.06 0-.213-.073-.433-.22-.66l-8.09-3.31c-3.48-.767-6.577-1.897-9.29-3.39-3.01-.54-7.02.41-9.69-1.76a1.166 1.166 0 0 1-.43-.73c-.207-1.307-.007-2.187.6-2.64.907-.307 1.627-.793 2.16-1.46l.23-3.2c-.1-.633-.077-1.173.07-1.62.113-.333.333-.563.66-.69 1.573-.627 3.383-.47 5.43.47l3.62 2.74 5.71 4.02c4.5 2.307 9.107 4.467 13.82 6.48 6.18 2.63 6.71-.13 11.66-2.09 7.767-3.073 14.477-7.537 20.13-13.39 1.813-1.393 3.013-1.49 3.6-.29.63.4.99.73 1.05 1.54.24 3.133 1.613 5.723 4.12 7.77 1.09 2.06-.81 3.69-2.95 2.75-6.82 1.56-12.037 3.073-15.65 4.54-1.287.52-4.287 1.963-9 4.33 6.307 3.253 12.51 5.647 18.61 7.18 2.37.59 9.73-.1 9.83 3.81l.26.19v.5a33.906 33.906 0 0 0-3.16 7.02c-.93 2.9-2.9 3-5.01.99-4.753-4.527-9.68-7.727-14.78-9.6-3.65-1.34-7.09-3.29-10.4-4.85-4.54-2.15-7.92.57-11.7 2.68-.54.607-1.35 1.007-2.43 1.2l-12.74 7.21-3.84 3.92L8.92 89H5.53c-1.407-.867-1.883-2.12-1.43-3.76-.16-.413-.16-.81 0-1.19Z" style="fill:#fff" transform="translate(1237.3 15.926)"/><path d="M1050 0h150v150h-150z" style="fill:#dfd9c1"/><text x="20.6" y="38.207" style="font-family:&quot;SourceSans3Roman-Bold&quot;,&quot;Source Sans 3&quot;,sans-serif;font-weight:200;font-size:32px" transform="translate(1050 96)">REMO<tspan x="96.44" y="38.207">T</tspan>E</text><path d="m176.25 86.45.04-16.01a.1.1 0 0 0-.19-.03l-5.7 18.42c-.12.38-.37.623-.75.73l-13.16 3.77c-.353.1-.517-.033-.49-.4l.56-8.13c.08-1.1-.147-1.167-.68-.2l-6.54 11.93a.907.907 0 0 1-.79.47H136c-.333 0-.5-.167-.5-.5V70.29c0-.34.1-.65.3-.93l8.75-12.52c.353-.507.243-.64-.33-.4l-8.15 3.5a.412.412 0 0 1-.57-.37V47.8c0-.347.163-.577.49-.69l12.61-4.43c.347-.12.65-.05.91.21l12.4 12.39a.121.121 0 0 0 .095.046.122.122 0 0 0 .121-.121.12.12 0 0 0-.026-.075L149.35 35.4c-.167-.26-.393-.34-.68-.24l-21.43 7.15c-.38.127-.633.003-.76-.37l-4.18-12a.142.142 0 0 0-.056-.077c-.068-.047-.164-.026-.214.046A.167.167 0 0 0 122 30v18.74c0 .42-.19.537-.57.35l-12.69-6.34a.046.046 0 0 0-.035-.009c-.027.005-.045.035-.039.068a.073.073 0 0 0 .014.031l12.88 12.83a1.5 1.5 0 0 1 .44 1.06V69.1c0 .357-.298.65-.66.65h-12.42a.907.907 0 0 1-.79-.47l-7-12.71a.141.141 0 0 0-.135-.101.142.142 0 0 0-.135.181l.63 9.05c.027.387-.147.53-.52.43L87.7 62.36a.857.857 0 0 1-.62-.61l-5.67-18.44a.081.081 0 0 0-.08-.066.08.08 0 0 0-.081.081l.001.015v16.18c0 .533-.207.633-.62.3L68.04 49.74a.112.112 0 0 0-.061-.019.11.11 0 0 0-.099.159l8.23 13.28c.184.295.442.537.75.7l10.45 5.53c.393.213.49.517.29.91l-6.11 12.21a.14.14 0 0 0 .22.16l12.54-12.54c.28-.28.597-.333.95-.16l26.31 13.16c.327.167.49.433.49.8v66.82c0 .333-.167.5-.5.5H40.75c-.274 0-.5.226-.5.5v12c0 .333.167.5.5.5h312c.333 0 .5-.167.5-.5v-12c0-.274-.226-.5-.5-.5h-53.5a.895.895 0 0 1-.8-.44l-6.21-9.92c-.2-.307-.47-.53-.81-.67l-19.35-7.74a1.621 1.621 0 0 0-1.08-.05l-17.98 5.14c-.347.1-.52.327-.52.68V144.472a.533.533 0 0 1-.71.498l-10.37-3.67c-.293-.107-.55-.047-.77.18l-9.4 9.39c-.247.253-.55.38-.91.38h-94.31c-.353 0-.53-.177-.53-.53v-39.69c0-.353.157-.61.47-.77l26.3-13.14a.731.731 0 0 1 .86.14l12.41 12.41a.14.14 0 0 0 .23-.16l-6-12.14a.547.547 0 0 1 .24-.72l10.54-5.57c.34-.18.567-.453.68-.82l8.44-26.47.001-.015a.09.09 0 0 0-.09-.09.09.09 0 0 0-.071.035l-12.73 22.86a.28.28 0 0 1-.53-.126v-.004" style="fill-rule:nonzero" transform="matrix(.34748 0 0 .34748 1056.63 38.927)"/><text x="19.12" y="61.008" style="font-family:&quot;SourceSans3Roman-Bold&quot;,&quot;Source Sans 3&quot;,sans-serif;font-weight:200;font-size:40px" transform="translate(900 56)">A<tspan x="39.52px 61.12px" y="61.008px 61.008px">CT</tspan>IVE</text><path d="M934.002 22h87v50h-87z"/><text x="41.52" y="62.008" style="font-family:&quot;SourceSans3Roman-Bold&quot;,&quot;Source Sans 3&quot;,sans-serif;font-weight:200;font-size:40px;fill:#fff" transform="translate(900)">O<tspan x="67.04" y="62.008">A</tspan>S</text><text x="11.288" y="43.207" style="font-family:&quot;SourceSans3Roman-Bold&quot;,&quot;Source Sans 3&quot;,sans-serif;font-weight:200;font-size:32px" transform="translate(750 86)">C<tspan x="28.568" y="43.207">O</tspan>NTROL</text><path d="M612 15h122v81.333H612z" style="fill:none;stroke:#000;stroke-width:1.35px;stroke-linecap:round;stroke-miterlimit:1.5" transform="matrix(.9836 0 0 .9877 163.035 1.184)"/><path d="M0 0h900v600H0z" style="fill:#ce1126" transform="matrix(.13333 0 0 .13333 765 16)"/><path d="M0 0h600v600H0z" style="fill:#fff" transform="matrix(.13333 0 0 .13333 765 16)"/><path d="M0 0h300v600H0z" style="fill:#002654" transform="matrix(.13333 0 0 .13333 765 16)"/><text x="11.288" y="43.207" style="font-family:&quot;SourceSans3Roman-Bold&quot;,&quot;Source Sans 3&quot;,sans-serif;font-weight:200;font-size:32px" transform="translate(600 86)">C<tspan x="28.568" y="43.207">O</tspan>NTROL</text><path d="M612 15h122v81.333H612z" style="fill:none;stroke:#000;stroke-width:1.33px;stroke-linecap:round;stroke-miterlimit:1.5" transform="matrix(1 0 0 1 -.001 0)"/><path d="M0 0h900v600H0z" style="fill:#fff;fill-rule:nonzero" transform="matrix(.13556 0 0 .13556 612 15)"/><path d="M0 0h450v600H0z" style="fill:#063;fill-rule:nonzero" transform="matrix(.13556 0 0 .13556 612 15)"/><path d="M579.904 225c-26.762-46.353-76.381-75-129.904-75-82.288 0-150 67.712-150 150s67.712 150 150 150c53.523 0 103.142-28.647 129.904-75-22.759 28.425-57.261 45-93.675 45-65.83 0-120-54.17-120-120s54.17-120 120-120c36.414 0 70.916 16.575 93.675 45m5.772 75L450 255.916l83.853 115.413V228.671L450 344.084 585.676 300Z" style="fill:#d21034;fill-rule:nonzero" transform="matrix(.13556 0 0 .13556 612 15)"/><text x="42.829" y="46.442" style="font-family:&quot;SourceSans3Roman-Bold&quot;,&quot;Source Sans 3&quot;,sans-serif;font-weight:200;font-size:42.667px" transform="translate(450 87)">P<tspan x="65.528" y="46.442">S</tspan>L</text><path d="M612 15h122v81.333H612z" style="fill:none;stroke:#000;stroke-width:1.35px;stroke-linecap:round;stroke-miterlimit:1.5" transform="matrix(.9836 0 0 .9877 -136.965 1.184)"/><path d="M0 0h900v600H0z" style="fill:#ce1126" transform="matrix(.13333 0 0 .13333 465 16)"/><path d="M0 0h600v600H0z" style="fill:#fff" transform="matrix(.13333 0 0 .13333 465 16)"/><path d="M0 0h300v600H0z" style="fill:#002654" transform="matrix(.13333 0 0 .13333 465 16)"/><text x="52.344" y="46.442" style="font-family:&quot;SourceSans3Roman-Bold&quot;,&quot;Source Sans 3&quot;,sans-serif;font-weight:200;font-size:42.667px" transform="translate(300 87)">AP</text><path d="M612 15h122v81.333H612z" style="fill:none;stroke:#000;stroke-width:1.33px;stroke-linecap:round;stroke-miterlimit:1.5" transform="matrix(1 0 0 1 -300.001 0)"/><path d="M0 0h900v600H0z" style="fill:#fff;fill-rule:nonzero" transform="matrix(.13556 0 0 .13556 312 15)"/><path d="M0 0h450v600H0z" style="fill:#063;fill-rule:nonzero" transform="matrix(.13556 0 0 .13556 312 15)"/><path d="M579.904 225c-26.762-46.353-76.381-75-129.904-75-82.288 0-150 67.712-150 150s67.712 150 150 150c53.523 0 103.142-28.647 129.904-75-22.759 28.425-57.261 45-93.675 45-65.83 0-120-54.17-120-120s54.17-120 120-120c36.414 0 70.916 16.575 93.675 45m5.772 75L450 255.916l83.853 115.413V228.671L450 344.084 585.676 300Z" style="fill:#d21034;fill-rule:nonzero" transform="matrix(.13556 0 0 .13556 312 15)"/><text x="42.829" y="46.442" style="font-family:&quot;SourceSans3Roman-Bold&quot;,&quot;Source Sans 3&quot;,sans-serif;font-weight:200;font-size:42.667px" transform="translate(150 87)">P<tspan x="65.528" y="46.442">S</tspan>L</text><path d="M612 15h122v81.333H612z" style="fill:none;stroke:#000;stroke-width:1.33px;stroke-linecap:round;stroke-miterlimit:1.5" transform="matrix(1 0 0 1 -450.001 0)"/><path d="M0 0h900v600H0z" style="fill:#fff;fill-rule:nonzero" transform="matrix(.13556 0 0 .13556 162 15)"/><path d="M0 0h450v600H0z" style="fill:#063;fill-rule:nonzero" transform="matrix(.13556 0 0 .13556 162 15)"/><path d="M579.904 225c-26.762-46.353-76.381-75-129.904-75-82.288 0-150 67.712-150 150s67.712 150 150 150c53.523 0 103.142-28.647 129.904-75-22.759 28.425-57.261 45-93.675 45-65.83 0-120-54.17-120-120s54.17-120 120-120c36.414 0 70.916 16.575 93.675 45m5.772 75L450 255.916l83.853 115.413V228.671L450 344.084 585.676 300Z" style="fill:#d21034;fill-rule:nonzero" transform="matrix(.13556 0 0 .13556 162 15)"/><text x="25.592" y="68.609" style="font-family:&quot;SourceSans3Roman-Bold&quot;,&quot;Source Sans 3&quot;,sans-serif;font-weight:200;font-size:42.667px">TURN</text><text x="31.608" y="111.275" style="font-family:&quot;SourceSans3Roman-Bold&quot;,&quot;Source Sans 3&quot;,sans-serif;font-weight:200;font-size:42.667px">NO<tspan x="85.795" y="111.275">W</tspan></text></svg>