<svg xmlns="http://www.w3.org/2000/svg" xml:space="preserve" width="1503" height="1103" fill-rule="evenodd" stroke-linejoin="round" stroke-miterlimit="1.5" clip-rule="evenodd" viewBox="0 0 11271 8271"><path fill="#688dbd" d="M92 218h11016v7902H92z"/><path fill="#95afd1" d="M1550 3729c11-24 28-44 52-55 24-6 39-7 50-31 21-11 43-22 66-22 19 6 32 22 34-6 11-25 40-32 63-43 24-2 53 8 68 29 8 10 13 28 30 25 22 2 43 8 64 15 12-26 21-59 47-75 17-9 43 9 42-18 11-34 12-76 46-94 19-8 41-1 59-10 22-16 49-32 78-26 25 1 58 6 63 37 0 16 12 23 24 31 25 16 15 49 24 72 11 11 23 16 38 13 21-3 41 7 60 14 21-5 37-17 53-30 18-14 37-25 47-46 16-21 28-44 36-68 12-40 44-69 64-104 18-27 15-69 49-85 13-7 26-13 31-28 13-27 45-32 70-45 12-7 34-5 41-17 4-21 10-44 30-56 17-16 35-34 61-32 19-2 38 0 55-12 31-11 50-42 84-49 21-7 43-12 59-28 23-14 41-38 67-47l87-1c20-16 38-38 65-39 13-6 34 3 40-10 12-29 31-55 54-76 38-18 78-34 120-43 27-9 52-29 82-22 14 5 26-2 36-12 26-19 58-4 87-3 16 7 25-2 33-15 12-20 35-27 58-27 24-2 49-7 69 9 19 13 42 20 64 24 25-6 52-16 78-5 20-2 39-13 59-19 33-7 67-2 101-3 35-1 70 8 104-1 24-4 50-13 74 0 23 10 49 13 74 12 30-9 62-12 92-21 34-14 69-30 106-34 33-10 64-27 99-23 29-2 56 9 82 17 19 10 24 33 34 50 32-2 64 2 96 7 46-28 88-63 132-94 13-14 41 6 49-13 6-14 18-25 12-41-3-28 22-47 42-60 32 6 27-29 51-40 16-19 41-19 64-15 17-17 42-16 64-10 25 1 47 14 66 29 19 10 33 28 37 49 7 10 5 32 14 36 15-2 29-6 27-24 1-26 18-50 40-63 20-6 43 0 63 6 19 9 27 35 51 34 40 3 76 23 115 33 16 4 29 1 40-12 49-32 104-53 160-73 15-23 25-57 58-58 28-4 56-9 83-19 20-4 43-1 60-14 26-12 53 7 74 21 19-3 41 7 60 14 29 1 59 3 86 13 24-21 56-3 83-1 16-18 41-19 63-15 20 2 38 8 38-20 11-38 58 0 66-27 13-28 51-27 71-7 21 14 42 34 69 30 19-4 38-26 61-12 18 8 39-14 58 1 13 4 25 11 38 13 22-25 56-8 84-5 24 2 29 31 52 33 18 5 34 15 46 29 24 7 54 10 65 37 6 17 25 21 40 27 24 1 53 10 56 38 27-1 59 12 59 44 3 23 8 49-7 70-11 15 12 20 21 28 28 20 61 34 93 49 16 3 33 9 48 0 20-10 43-3 63-7 18-16 42-16 64-18 11-13 28-22 36-36 8-36 20-71 37-104 17-15 37-28 58-39 25 5 34-17 54-25 21-3 43-3 61-15 20-13 43-13 65-9 21 0 47 3 57 25 27-15 52-47 85-31 18 15 20 30 39 7 21-8 46-2 66-9 31-17 58-40 90-52 31 0 61 11 90 18 36 0 10-41 27-66 6-26 20-49 35-71 11-18 26-35 48-38 22-1 22-29 39-37 30-14 66-8 97-22 28-4 57 5 85 7 31 6 42 40 61 62 18 25 46 45 48 78-3 26 27 16 39 32 10 10 20 19 33 20 18-26 50-16 73-5 18 10 42-3 58 13 28-15 52 8 69 27 15 12 26 28 29 47 19-6 40-4 60-6 13-23 26-56 58-52 23 0 46-1 64 15 22-26 50-48 64-80 14-13-1-24-13-30-22-16-53-35-42-67 5-27 6-65 41-70 32-1 66-2 99 0 17 3 33 19 51 16 21-14 46-6 69-1 26-5 58-16 76 9 10 19 24 11 40 6 21-8 44-13 66-5 23 6 49 8 66 28 10 11 26-1 38-1 29-4 64-23 87 3 12 12 9 36 29 39 21 4 42 10 56 28 21 16 19 43 11 65-7 23-10 49 0 70 13 13 33 16 50 20 24-3 48-4 69-18 26-12 52-26 80-35 31-16 61-35 93-49 16-1 32 1 45-11 21-17 50-19 75-11 17 9 27 30 39 42 34-6 69-5 102 4 17 14 32 33 57 24 15-3 32-3 42-17 23-23 58-14 88-18 53-3 112-10 155 29 64 60 79 153 92 236 22 177 16 356 11 534-1351 162-2698 349-4046 533-2288 315-4575 637-6861 963-47-25-104-37-140-78-23-42 33-67 63-82 95-45 197-67 296-96 38-18 73-42 115-49 23 6 46 18 65 32 27-2 55-6 80 7 21 12 40-11 62-10 14-1 30 0 38-14 19-19 49-18 74-23 14 1 28 1 38-11 21-14 38-34 58-50 14-8 34-5 42-22 16-21 38-35 61-46 20-19 38-44 67-51 20-8 42-15 57-31 25-17 56-8 84-10 20 3 29-19 43-29 20-15 47-10 53-40 12-28 30-54 36-84 14-34 35-65 46-100-17-28 6-58 28-75 14-12 40 2 50-15 17-22 38-46 66-53z"/><path fill="#a8a87b" d="M9396 2217c0 14-12 33-5 44 19 16 39 29 59 43-1 20 5 43-10 59-12 25-30 46-50 66-15 16-28 34-50 41-13-1-25-17-38-20-15 1-35-6-39 13-8 12-13 29-24 37-22 2-45 1-66 6-13 5-24 27-38 13-13-7-11-28-18-41-3-22-25-33-38-49-13 7-28 19-39 2-13-13-35 0-50-12-14-5-31-18-37 4-6 20-25 2-38 1-22-3-37-19-53-32-11-5-36 4-38-12-6-19-6-41-15-59-24-28-46-57-67-88-24-1-48-8-72-6-26 10-55 10-83 15-11 13-14 36-35 37-14 5-31 6-37 23-14 20-28 40-32 64-9 19-8 28 8 24-1 20-5 39-16 56-20 5-40 13-61 16-27-8-53-15-81-20-30 17-59 38-90 54-19 3-40 1-57 6-11 12-22 24-39 17-19 3-28-8-33-25-10-2-25 16-37 21-15 15-37 13-56 18-7-12-8-35-28-30-18-1-37-7-53 5-19 12-40 16-62 17-15 5-21 30-41 25-21-4-36 16-54 25-14 34-26 68-33 104-19 16-36 37-57 50-20 4-44-1-60 15-15 12-35 3-53 6-21 2-41 18-62 9-24-1-46-11-66-23-37-16-69-39-102-61-2-17-14-36-2-51 10-13 11-29 8-45 4-21-22-11-34-15-21 5-21-13-25-28s-28-5-39-15c-17-9-40-12-46-32-6-16-20-23-36-25-18-1-30-12-41-25-19-12-47-10-58-32-10-14-31-9-46-14-14-2-17 25-36 13-22 0-43-16-64-17-13 13-27 11-42 2-16-12-24 19-41 13-29 2-60-4-83-24-11-3-29-30-34-15-4 14-18 29-32 30-12 0-37-18-34 5 2 21-19 29-32 42-14-13-32-15-50-16-17-6-27 9-39 18-15 2-33-5-49-7-17-10-25 4-35 12-31-9-61-19-93-18-17 0-32-3-45-13-10 8-21 22-37 9-14-6-10-29-30-31-15-12-28 12-44 9-37 0-69 18-106 21-18-2-28 9-34 25-9 12-13 32-31 33-62 23-128 45-178 91-26-2-53-2-78-14-33-14-68-23-104-27-18-6-26-29-43-35-16-5-30-4-37 14-4 16-4 36-10 51-16 16-40 16-61 24-12-7-36-1-39-16-5-24-10-48-21-69-20-13-37-32-62-32-16-6-29-5-36 12-17 0-36-5-52-2-14 8-23 20-24 37 3 22-19 14-33 15-14-2-32 13-28 27 2 15 8 31-9 40l-25 46c-18 2-38-4-54 3-45 34-89 68-138 97-42-7-84-10-126-8-20 5-10-23-21-33-5-16-15-27-33-28-23-8-49-9-73-4-32 12-65 22-99 28-35 13-68 32-105 35-29 5-57 19-87 12-28 2-53-13-79-18-36 5-71 16-107 9-42-3-85-2-126-1-24 8-47 19-71 24-18-5-35-10-53-3-17 4-35 11-51 2-26-6-50-18-73-32-18 3-39 1-56 6l-36 44-95-12c-16 8-28 30-49 23-18-1-37-6-53 6-34 19-75 20-110 38-17 6-35 12-45 29-18 20-26 47-39 70-25 4-53 0-75 12-13 11-25 26-40 34h-94c-25 21-51 43-79 60-28 11-59 14-80 36-20 17-45 27-68 38-19 2-40 0-58 5-13 14-35 23-35 45-6 12-1 35-16 39-34 8-66 20-97 36-11 16-18 36-38 43-16 5-25 15-28 32-7 26-19 49-35 70-18 26-40 50-48 81-11 35-35 63-55 94-26 19-50 42-78 57-18 4-35 20-53 9-19-8-38-14-59-11-17 3-30-4-42-16-12-10-27-17-26-35-3-14 0-31-7-43-13-12-35-19-35-40 2-22-19-17-34-19-22-4-41 15-58 28-18 2-39 0-55 6-16 24-16 55-27 82-8 10-5 38-21 35-13 1-34-14-42 0-15 22-23 48-34 72-21 2-42 0-62-9-22-8-48-4-68-14-14-15-20-40-42-45-14-5-30 10-41 17l-20 56c-18-2-35-5-48-18-11-15-27 1-41 4-12 11-18 29-28 43-14-3-30-15-41 0-21 10-25 36-38 54-17-4-29 4-40 15-14 14-23 33-38 43-14 3-31 1-44 6-18 12-3 26-5 41-11 48-46 88-56 137l-55 108c-16 4-37-2-48 15-13 11-23 31-44 29-25 5-52-1-76 3-15 16-35 26-56 33-18 6-36 13-47 29-15 19-37 30-58 41-13 13-25 31-40 42-16 4-34 6-45 22-19 20-43 35-65 53-27-2-55 0-81 10-12 10-20 27-38 24-27 0-52 10-77 20-23-7-46-21-72-15-16-1-36 9-48-7-12-10-29-20-44-23-30 13-58 29-87 43-108 40-219 74-326 116l7 3563h11016l-2-5708c-110 0-220-11-330-1-32 14-62 36-100 35-43 10-63-47-108-32-24-2-48 0-72 4-4-19-10-36-24-49-15-6-31 2-43 12a53 53 0 0 1-43 12c-21 3-38 19-57 27-21 11-40 24-63 29-29 13-57 30-88 40-21 1-43 10-64 6-23-8-48-10-64-29-18-10-15-32-21-48-3-29 6-56 13-84a53 53 0 0 0-39-22c-15-3-30-12-41-22-8-10-5-38-24-28l-88 18c-17-13-30-33-53-33-18-4-36-13-54-3-21 4-38 17-56 28-10-17-22-33-37-46-22 4-44 12-66 3-17-7-31 3-47 10-21-5-40-15-60-21h-81z"/><path fill="#614528" fill-rule="nonzero" d="m5377 2480-6 2-20 1c-23 0-36 3-43 9-5 5-8 12-10 22l-3 14-3 5-6 2-15 3-24 2c-4 0-7 3-7 7l-2 23c0 13-3 22-6 27-7 7-15 21-20 31l-4 13 2 6c1 3 3 7 7 11 10 13 29 29 38 32 12 4 20 3 49-10 33-15 56-17 87-7 19 5 28 7 35 4 6-2 11-5 18-12 24-22 39-53 40-86 2-44-10-71-37-89a97 97 0 0 0-52-18c-8 1-14 3-18 8zm-3177 998c-17 11-25 14-40 14-9 0-18 1-24 3l-8 4-1 1a987 987 0 0 1-31 95l-7 18-18-2-25-3c-3 0-7 2-8 5l-15 32a361 361 0 0 0-15 40c0 2 1 5 4 9l18 14c47 29 75 32 127 14 45-15 93-27 126-31 18-2 37-6 42-9 7-3 19-18 28-32 6-10 10-20 10-25 0-2-1-6-4-10-4-5-11-12-19-18-10-8-16-12-20-19-4-6-5-14-6-28-1-12-3-19-6-25s-7-10-16-16c-9-7-15-14-17-24-3-11-6-16-10-19-3-2-9-4-20-4-15 0-27 4-45 16zm6778 114c-30 5-71 28-90 49-18 20-26 41-26 76 0 43 24 77 72 100 26 12 33 14 78 15 60 3 90-3 122-22 35-21 50-46 53-84 1-24-1-35-8-53h-1c-12-29-49-64-78-75-25-8-89-12-122-6z"/><path fill="#bfab8e" fill-rule="nonzero" d="M5610 4140a550 550 0 0 1-182 125l-64 30-34 19c-4 2-5 6-4 10l20 47c37 86 56 119 136 227 69 94 93 147 102 226 7 68 3 124-15 195a556 556 0 0 0-21 248c16 64 16 102 0 221-10 70-8 106 8 187 8 38 16 93 19 122 3 28 10 87 17 129 20 129 29 198 37 283l10 82c1 3 63 734 660 564s545-989 553-1079c14-163 33-314 56-462 34-214 36-229 35-333-1-124-8-190-35-239-18-33-45-59-86-90a429 429 0 0 1-56-48 538 538 0 0 1-8-71c-2-63-4-70-15-93-32-66-131-118-211-109a540 540 0 0 0-136 47c-38 19-55 23-86 18-52-8-140-42-236-91-30-15-146-87-190-118-18-12-43-27-55-33-18-9-110-39-165-55-2-1-6-1-11 2-7 5-24 20-43 39zm-1678 774c-45 0-84 2-106 5-32 5-125 25-238 50-72 17-149 50-209 92-49 33-63 36-194 49-79 9-114 14-138 22l-30 12c-23 12-48 25-68 38-58 36-100 69-167 128-54 49-66 57-121 82l-100 52c-52 31-101 50-169 69-46 12-63 14-226 27-47 3-120 12-161 18-41 7-90 13-108 15-48 8-27 4-67 7-9 0-22 1-28 3-26 9-49 24-87 60-21 20-54 49-72 63-19 15-62 54-97 88-92 90-123 112-168 116-13 2-61-1-108-5-97-10-103-9-146 9-71 30-144 38-229 24-29-5-78-8-113-9-20-1-293 149-210 885-19 691 120 592 489 827 1046-489 1819-378 3230-1070 33-115 52-238 23-360-4-22 0-11-4-22-3-10-8-52-10-94-3-44-8-101-14-132-6-30-11-71-13-93-1-22-11-86-21-142l-23-137-17-128c-8-57-12-106-12-133 1-122-28-219-85-283-29-34-65-83-79-109l-11-19c-1-3-4-4-7-4l-77-1h-9zm4608 2029c139 153 2012 430 2027-408 14-837-189-880-195-883-4-3-16-6-41-10a8913 8913 0 0 1-254-48c-21-4-69-14-105-23-46-11-87-18-125-21-56-4-77-8-145-29-21-7-93-22-159-33a16385 16385 0 0 1-389-73c-70-12-106-21-243-59a812 812 0 0 1-178-60c-33-19-89-56-115-76-44-33-80-47-145-56-46-6-71-15-134-49a582 582 0 0 0-51-23c-1 0-4 0-7 4-8 8-40 51-76 102-41 57-107 155-149 218-94 140-124 183-176 250-22 29-54 74-70 100-35 54-72 108-128 184a1542 1542 0 0 0-40 60c-44 418 270 677 898 933z"/><path fill="#d2c5ac" fill-rule="nonzero" d="M6859 5846c-5 0-8 3-9 7l-2 22-8 78-11 105c-2 33-7 56-16 82l-12 36-9 19-13 20c-8 13-18 21-33 29-19 10-24 10-50 9-48-3-104-29-207-97-91-59-146-81-207-84l-38-2-4 1-50 25-75 39c-43 24-97 47-166 71l-127 44c-74 27-167 55-222 67-23 5-58 15-78 22-31 11-41 12-114 16-72 4-104 5-129-5-16-6-30-17-51-35-16-14-46-34-66-44l-35-18-4-1-86 1c-47 1-126 5-175 10a5327 5327 0 0 1-291 21c-53 4-74 4-108 0-54-7-74-14-107-39l-29-21c-4-3-9-2-11 1l-36 38c-19 21-43 44-54 50-20 14-28 16-135 46l-64 17-24 11-4 2h-1l-62 33c-34 18-76 37-93 43-38 13-131 31-212 43-91 13-104 19-161 70-12 11-53 42-91 69a1800 1800 0 0 0-105 82c-37 33-87 68-124 86-38 20-71 30-166 54l-153 42c-89 28-106 31-188 31-66 0-82 1-136 12-74 15-158 40-272 79a961 961 0 0 1-347 72c-76-1-77-1-153 28h-1c-29 12-64 21-113 29a854 854 0 0 0-248 75c-52 27-62 29-124 36a580 580 0 0 0-70 11c-6 2-24 14-39 27-78 66-106 84-199 125l-24 11c-3 1-3 5-5 7l-151 210c17 169 189 201 192 201l1584 1c2246-11 4125 1 6146 1h1813c182 0-44-377-94-456-190-357-145-413-374-479-37-38-152-49-267-80-38-10-85-24-106-31l-105-30c-37-9-93-24-125-34l-117-34c-152-39-299-102-403-172-108-72-185-116-260-147-49-21-207-80-253-95-16-5-69-26-118-45s-120-44-157-56c-256-80-252-78-386-145-133-65-231-110-252-116a4817 4817 0 0 0-402-78c-54-11-152-23-194-23z"/><path fill="#c0c7c0" fill-rule="nonzero" d="M802 6371c-1-4-4-53-6-109-5-113-10-169-20-205a821 821 0 0 0-39-94c-46-96-69-164-92-275-10-50-13-73-16-163-4-118-6-126-29-213-38-139-88-399-109-566-6-50-9-105-11-197l-4-128c-1-8-8-9-9-9l-3 1-31 15-28 15c-3 1-5 4-5 7v3408c0 5 4 9 8 9h515c3 0 5-1 7-3l22-26c22-25 39-46 46-60 4-8 6-13 6-17l-3-11c-4-6-12-17-21-26-25-26-56-86-66-124-4-18-6-67-7-196-4-276-10-343-58-543-25-108-26-117-37-318-4-89-9-165-10-172zm10007-3964h-1c-39 2-43 3-60 16-11 9-22 14-43 17-48 9-57 9-76-9-10-9-15-13-22-16-7-2-15-2-31-2h-30c-4 0-7 2-8 6l-4 15c-24 91-30 188-15 243 3 15 24 63 44 106 41 85 51 115 83 252l44 176c45 168 52 214 55 408s-2 252-38 419c-22 102-26 150-26 362 0 148 2 214 8 278 15 175 8 229-47 386-55 155-117 311-173 437-73 161-98 198-268 397a4337.909 4337.909 0 0 0-75 90c-35 47-56 113-75 236a774.994 774.994 0 0 0-13 224c3 67 3 94 0 120a705.992 705.992 0 0 1-73 221c-22 44-32 70-33 81 0 22 8 42 27 62 17 20 45 40 85 64 68 41 90 59 108 94 19 36 41 109 52 172s26 97 79 174c38 57 68 96 123 161 18 21 38 49 45 62 17 32 39 99 50 154l9 47c0 4 4 6.987 8 7l527.675 1.649c-89.722-1823.652 29.028-3635.56-7.123-5460.22z"/><g fill="none"><g stroke="#dae1f4" stroke-dasharray="20.83,20.83" stroke-width="20.83"><path d="M9013 3838c53 2 109-4 154-50 17-18 25-48 25-71 0-24-10-51-25-71-16-20-41-40-67-50s-61-11-89-10c-26 1-54 6-78 18-23 12-50 31-62 54s-13 60-8 84c4 22 21 43 37 58s40 23 58 29 36 8 55 9zm12 595c3-27 8-81 8-121 0-38-5-77-8-116s-3-83-8-117c-5-30-18-63-21-87-3-20-3-35 0-59l16-91"/><path d="M9121 2492c-23 16-68 48-84 75-14 25-6 58-8 87l-4 121c-2 40-8 81-8 121 0 39 6 78 8 117s5 82 4 120c0 37-7 74-8 109-2 33 0 68 0 100v246m608 800c0-37 1-109 4-163 4-54 12-108 17-162l13-167c3-53 3-111 8-158 4-43 14-84 21-125l25-150c5-28 7-58 16-84 10-25 20-54 42-71 25-18 70-34 108-41 39-8 100 0 125-5 12-1 25-9 30-20 10-25 18-85 33-125 16-45 47-98 62-142 14-40 25-87 30-125 3-33-6-74-5-100 1-20 7-39 13-58 7-24 24-55 33-84 13-39 35-116 46-154m-3425 909c38 8 115 24 158 37 36 11 74 30 104 42 27 10 54 16 80 29 31 15 71 43 108 62 37 20 74 39 113 55 37 15 79 27 116 37 35 10 81 20 104 25m-1604-254c24-16 72-49 113-59 40-9 88-2 129 0 39 3 77 14 117 17 47 4 111 3 166 4 54 2 113 4 163 4 45 1 97 5 137 0 36-4 78-16 104-29 22-10 44-26 54-48 12-29 14-83 21-124s15-82 21-124c6-41 12-87 14-126 3-37 1-74 3-111 2-40 10-94 12-129 2-27 2-54 2-81l-2-84-3-110m1228 2687c35 19 104 57 142 71 26 10 58 6 83 13 25 6 49 13 71 25 24 12 47 34 71 50 29 18 68 45 104 62s75 26 113 38l120 33c39 10 78 21 117 29 40 8 81 13 121 21l167 33c38 8 77 14 116 21 46 8 113 19 159 29 39 9 77 26 116 34 41 7 84 5 125 12s82 21 121 29l117 21 125 25 116 21"/><path d="m7633 6013 71-96 71-100c23-34 43-71 67-104 23-34 51-64 75-96l66-96 67-100 92-138 70-100 142-200 71-100 66-94 52-72c19-27 47-73 64-92 34-40 25-71 38-96 12-20 36-31 45-52 9-20 4-44 8-71"/><path d="M6858 5842c36 2 108 6 154 12 43 6 85 18 125 25 39 7 78 10 117 17s78 16 117 25c40 9 86 16 125 29 37 13 72 33 108 50s73 32 108 50c37 18 75 42 113 58 37 17 75 29 112 42l121 38c41 12 81 23 121 37 47 17 114 46 158 63l109 37c37 13 75 27 112 42 44 17 102 38 150 62 49 24 102 59 142 84 34 21 65 46 100 66a1779 1779 0 0 0 267 117c50 16 108 28 154 42 40 11 81 26 121 37 38 11 78 18 116 29 39 11 79 27 117 38 37 10 76 16 112 29 36 12 82 35 105 46M5324 4323c1 5 17 41 20 47 10 26 25 62 39 88 19 34 44 67 67 100 24 34 54 68 75 105 21 35 41 72 50 112 10 46 12 110 8 163-4 51-25 104-33 150-7 41-14 84-13 125 2 40 19 80 21 120 2 41-5 84-8 125s-15 81-13 121c3 47 23 112 30 159 6 40 7 80 12 120 6 48 18 116 25 163l17 121 16 175m-1620 66v567c-1 53-4 110-4 158-1 43-3 89 0 129 1 40 9 78 12 117 3 40 4 81 8 121 5 42 9 88 17 129 8 40 20 79 33 117 15 43 43 111 57 145M1850 5575c8 27 23 81 29 113 5 26 8 52 8 79 1 27-2 58-4 87-2 35-7 81-8 121-1 39 2 78 4 117 2 40 4 83 8 125l17 125c5 40 10 80 13 121l4 125c1 38-2 78 4 116 6 39 21 83 29 117 7 29 13 62 21 87 7 23 19 45 29 67l54 110m1217-372c-16-24-48-71-67-96-14-20-36-36-45-59-13-30-21-81-30-120s-18-78-25-117c-7-40-14-86-16-125-3-36 2-72 0-108-3-39-9-84-17-125-8-42-27-85-33-125s-4-81-5-121c0-41-1-81 1-121 1-40 7-87 8-121a3003 3003 0 0 0-17-200c-3-25-7-54-12-75-5-17-16-39-21-50"/><path d="M915 7444c16-6 49-20 72-32 24-11 49-22 71-37 23-15 46-38 67-54 19-15 36-35 58-42 32-10 90-5 130-17 38-10 71-35 108-50 38-14 80-27 121-37 46-11 109-17 154-29 40-11 76-35 117-42 40-7 83 4 125 0 41-3 83-11 125-21 45-10 102-27 145-41 40-13 78-30 117-42s77-24 117-33c39-10 80-21 120-25 48-5 109 4 163-5 54-8 116-33 163-45 38-11 78-19 116-30 38-10 77-18 113-33s71-35 104-58c32-23 60-55 92-79 36-29 91-64 129-92 32-24 58-60 95-75 44-17 110-18 163-29s108-19 158-38c51-18 104-57 146-75 35-14 73-21 108-33 37-12 80-16 113-38 35-22 75-74 96-100m622-1640c-1-28-2-85-1-126s5-81 8-121l8-117 13-121 12-129c4-36 12-72 13-108 1-40 0-88-4-129-4-39-16-78-21-117s-7-80-9-121v-121c0-40 0-81-4-120-3-39-7-79-16-117s-28-74-38-113c-10-38-16-87-21-120l-8-80-8-75m333-95c13 16 38 50 63 54 24 4 55-27 83-29 28-3 61 20 83 12 22-7 40-41 50-58 8-14 8-35 8-46m-2729 688 34 150c8 40 18 80 25 120 7 41 10 84 16 125s14 82 21 121 16 78 21 117c5 40 4 85 8 125a1230 1230 0 0 0 46 229c13 38 34 72 50 108 17 37 32 76 50 113s44 71 58 108c15 36 14 77 30 113s43 75 66 108c23 32 55 61 75 92 19 28 31 61 46 91l46 88M1994 3685c21 17 64 49 106 53 27 2 53-14 79-21 27-7 54-16 79-21 24-5 52 1 71-13 19-13 34-49 42-66m-964 347c15 24 45 70 60 99 12 22 23 45 29 70 7 32 7 78 12 117s14 78 17 117c3 38 0 78 4 116 4 42 10 94 21 134 10 36 28 70 46 104 19 37 47 80 71 121 28 49 77 138 100 175 9 16 13 12 33 46 17 27 11 22 67 104 22 33 39 69 58 104s34 73 54 108 48 73 67 100l46 63"/><path d="M729 5925c27 0 81 1 121 4 41 4 85 18 125 17 39-1 84-13 117-21 27-7 51-26 79-29 32-4 78 7 116 8 39 2 80 13 117 0 37-12 73-48 104-75 30-25 55-57 84-83 29-27 61-50 91-75 32-27 60-67 100-83 43-18 111-14 159-21 43-7 86-16 129-21 46-6 98-8 146-13 46-4 92-3 137-12 47-10 103-28 146-46 40-17 76-44 112-62 35-18 73-29 105-50 32-22 60-54 91-80 34-27 70-58 109-83 39-26 84-56 129-71s94-14 141-21c48-7 102-7 142-20 37-13 65-45 100-63 38-19 85-37 125-50 38-12 79-17 117-25 36-8 72-18 108-25 39-7 84-15 125-17 40-2 94 2 121 5"/></g><path stroke="#c13733" stroke-dasharray="83.33,41.67,0,0" stroke-width="20.83" d="M6854 7871c10-32 29-95 38-134 7-32 9-68 12-100l9-91c2-31 7-61 8-92 1-32-4-72-4-104 0-29 3-58 4-88v-95c1-31 4-62 4-92 0-29-4-58-4-88v-287c-1-29-7-58-8-88-3-31 0-67-5-100-4-32-14-64-20-95-7-31-10-63-17-92-8-28-17-59-29-83-12-23-35-50-46-63m-917-3625 113 204c30 56 64 102 79 142 11 30 7 63 8 96a2535 2535 0 0 1-8 271c-4 29-18 48-29 71-13 25-39 49-46 79-8 30-3 66 0 100 3 35 11 79 17 112 4 29 13 58 16 88 4 30 13 71 4 96-8 24-30 43-54 54-25 11-65 1-96 12-30 11-63 35-87 54-22 18-39 42-58 63l-67 75c-21 23-40 49-63 71a701 701 0 0 1-150 108c-25 13-53 20-79 33-28 15-61 36-87 55-25 16-47 37-71 54-25 17-54 32-79 50-26 17-50 36-75 54-27 18-57 38-84 54-24 15-48 32-75 42-28 9-63 15-95 16-35 1-90-3-151-4-49-1-104 2-133 0a651 651 0 0 1-179-50c-28-12-57-31-87-41-32-11-75-18-105-21-25-3-59-1-76 1"/><path stroke="#c13733" stroke-dasharray="83.33,41.67,0,0" stroke-width="20.83" d="M3754 2767c-1 17-5 53 0 79 6 29 23 63 34 96 10 32 18 71 29 100 10 26 26 49 37 75 12 27 22 61 34 91 11 30 25 59 37 88 13 29 27 58 38 87 10 29 20 58 25 88 4 30 2 64 4 96l4 91 4 92c1 31 2 61 0 92-2 30-15 61-12 91 2 31 21 61 29 92 8 32 15 69 21 100l12 83 13 96c3 29 10 58 12 88a736 736 0 0 1-12 187c-8 31-25 63-34 92-8 27-17 55-21 83-4 30-9 65-4 96s19 60 34 88c14 27 35 54 54 79 18 24 43 45 58 71 15 25 25 54 33 83 9 30 14 65 17 96 3 29-2 58 0 87 2 31 8 65 13 96l12 92 13 96c4 30 11 61 16 91 6 31 13 61 17 92s4 64 8 96c4 30 13 61 17 91 4 32 5 65 8 96s-5 65 9 92c13 26 44 52 70 67 27 14 59 17 88 20 29 4 58 2 87 0 32-1 68-6 100-8l96-4 84-8c29-3 63-7 95-9l96-4c29-1 59-7 88 0s60 25 87 42c27 16 47 48 75 58s61 4 92 4c32 0 73 1 104-4 27-4 52-18 79-25 29-8 62-13 92-21a1831 1831 0 0 0 175-54l87-33c32-11 70-22 100-34 29-11 56-24 84-37 27-14 55-33 83-46s58-31 88-33c29-3 62 7 91 16s57 23 84 38 56 37 83 54c26 16 51 34 79 46 30 13 72 32 100 33 26 1 54-10 71-29 20-24 40-80 50-112 8-27 5-56 8-84l13-108 8-96 8-100 9-96 12-96 13-95 12-88 17-100 12-96c5-32 11-64 13-96s1-64 0-95-1-62-4-92c-4-32-7-71-17-100-10-28-26-53-46-75-21-23-60-45-79-63-14-12-33-23-37-41-8-29 2-99-9-134-9-29-31-55-54-75s-54-36-83-45c-29-10-62-12-92-9-31 4-62 18-92 29-29 11-56 34-87 38-31 3-69-8-100-17s-59-25-88-37c-28-13-56-24-83-38-28-14-56-33-83-50l-79-50c-28-17-55-40-84-54s-63-20-91-29l-82-29"/><path stroke="#c13733" stroke-dasharray="83.33,41.67,0,0" stroke-width="20.83" d="m6763 4563 45-63 54-75 55-67 58-75 58-71a1420 1420 0 0 1 130-129l125-108"/><path stroke="#c13733" stroke-dasharray="83.33,41.67,0,0" stroke-width="20.83" d="m10675 4363-87 8-96 8-92 13-96 12c-32 4-68 12-100 13-31 0-62-5-92-9l-87-12c-30-3-61-4-92-4h-291c-30-2-59-5-88-9s-58-11-87-16-58-12-88-13c-32-1-71-1-104 4-32 6-62 20-92 29l-87 26c-29 8-58 20-88 25-30 4-61 0-91 0-30-1-59-1-88-5-30-3-64-11-96-16l-91-17c-32-5-66-6-96-13-29-6-56-19-83-29-29-10-58-24-88-33s-61-16-92-21-64-5-95-8-62-5-92-9l-88-12-95-12-88-9-96-12-96-21-75-21c-31-8-81-19-112-29-26-8-52-16-75-29-24-15-54-37-71-59-16-20-33-49-33-70-1-22 15-42 29-59 15-19 42-35 62-54 23-20 50-45 71-67 20-20 38-42 59-62 20-20 45-38 66-58l67-67c23-23 48-50 71-71 21-19 45-35 66-54a1003 1003 0 0 0 125-129c20-24 40-50 55-75 14-25 26-52 33-79 7-31 10-75 12-105 3-25 2-50 5-75 3-29 11-69 16-100 5-28 10-56 17-83 7-28 19-55 25-83 6-29 15-61 12-92-2-32-23-74-29-100-4-19-4-45-4-58"/><path stroke="#c13733" stroke-width="41.67" d="M479 4413c0 62 0 186 8 279 9 94 26 193 42 287 16 93 41 206 57 277 12 51 32 101 39 152 9 64 1 154 13 230 11 76 34 158 58 229 23 68 69 128 85 198 17 75 14 192 19 252l8 108 13 233c2 35 2 70 8 104 11 62 45 180 58 267 13 86 18 182 21 258 3 67-1 148 0 200 1 39-1 80 9 117 9 37 34 78 50 104 11 20 47 32 41 54-6 27-55 80-80 106"/><path stroke="#ccc" stroke-dasharray="33.33,33.33,0,0" stroke-width="16.67" d="M479 4413c0 62 0 186 8 279 9 94 26 193 42 287 16 93 41 206 57 277 12 51 32 101 39 152 9 64 1 154 13 230 11 76 34 158 58 229 23 68 69 128 85 198 17 75 14 192 19 252l8 108 13 233c2 35 2 70 8 104 11 62 45 180 58 267 13 86 18 182 21 258 3 67-1 148 0 200 1 39-1 80 9 117 9 37 34 78 50 104 11 20 47 32 41 54-6 27-55 80-80 106"/><path stroke="#c13733" stroke-width="41.67" d="M10538 2408c-9 37-27 111-30 159-2 43 0 87 13 129 15 50 59 111 79 171 24 73 45 180 67 266 21 85 50 168 62 254a2283 2283 0 0 1 4 505c-9 71-32 141-41 212-10 72-15 144-17 217-2 76 2 158 4 237 3 92 23 218 13 313-10 89-46 174-75 258-34 97-89 233-130 325-34 79-68 158-116 229-56 84-168 209-221 271-32 38-57 76-71 121-19 64-39 183-46 262-6 72 11 153 4 217-5 57-23 115-41 167-18 50-63 107-67 146-3 31 19 62 42 83 33 32 122 68 158 108 33 36 43 88 58 134 16 46 13 100 34 145 24 54 76 124 112 175 34 47 83 92 109 134 22 35 34 79 46 116 10 36 17 84 20 109"/><path stroke="#ccc" stroke-dasharray="33.33,33.33,0,0" stroke-width="16.67" d="M10538 2408c-9 37-27 111-30 159-2 43 0 87 13 129 15 50 59 111 79 171 24 73 45 180 67 266 21 85 50 168 62 254a2283 2283 0 0 1 4 505c-9 71-32 141-41 212-10 72-15 144-17 217-2 76 2 158 4 237 3 92 23 218 13 313-10 89-46 174-75 258-34 97-89 233-130 325-34 79-68 158-116 229-56 84-168 209-221 271-32 38-57 76-71 121-19 64-39 183-46 262-6 72 11 153 4 217-5 57-23 115-41 167-18 50-63 107-67 146-3 31 19 62 42 83 33 32 122 68 158 108 33 36 43 88 58 134 16 46 13 100 34 145 24 54 76 124 112 175 34 47 83 92 109 134 22 35 34 79 46 116 10 36 17 84 20 109"/><path stroke="gray" stroke-width="20.83" d="M400 4443c37-12 74-53 114-41 30 29 65 28 104 25 43 30 84-8 129-5 25-22 55-37 91-35 39 2 66-39 95-61 45-6 63-55 105-71 25-17 41-48 74-54 31-3 48-39 79-34 31-2 72 7 92-25 18-30 66-7 70-53 26-43 41-92 63-137 21-35 36-73 31-110 26-18 67-5 79-45 18-31 62-19 68-61 11-30 40-25 63-24 12-36 54-66 84-30 47 27 31-47 62-59 37-31 55 24 78 41 42 0 80 23 121 19 19-22 20-66 45-78 28 10 51 9 53-26 17-29 5-94 53-89 37 9 56-39 93-30 40-7 23 48 60 56 15 30 7 75 48 90 28 14 65-1 94 20 37 6 69-24 97-45 37-22 57-61 77-97 11-41 36-75 61-108 28-28 20-81 59-96 29-21 44-59 85-63 30-10 69-11 64-52 7-36 45-56 79-51 40-4 73-32 105-55 34-13 72-21 98-49 21-15 39-37 67-31h68c24-27 54-47 91-44 40 4 35-52 61-73 28-31 74-38 113-50 34-10 65-34 101-21 25-4 42-34 70-21l68 9 38-46c37-9 69 1 101 20 33 18 68 9 104 2 43 21 81-25 125-18 46-1 92 3 137 4 32-3 66-19 96-3 40 15 85 15 125 0 42-3 81-22 120-37 35-7 68-18 102-29 45-7 106 2 110 58 29 17 87 1 126 15 31-1 54-29 80-44 26-17 50-39 76-55h48c8-27 38-47 36-73-15-42 34-39 57-44-3-38 34-61 67-45 31-27 75-11 104 15 29 30 10 99 70 87 37-3 70-24 65-66 17-54 60 1 84 14 47 3 89 24 133 37 36 13 63-6 89-28 46-29 99-44 148-65 17-26 29-61 68-54 37-11 75-16 112-25 36-26 42 48 76 30 16-26 44 14 70 2 30-6 68 28 89 10 29-20 73 25 96-14 35-13 72 33 95-8 2-30 17-34 45-24 26-12 27-54 55-19 28 24 73 39 107 22 20-22 48 15 70-9 31 9 69 33 93 4 42-5 59 37 99 42 22 34 73 20 87 60 19 37 88 14 87 61 16 20 65-6 55 37-5 29-29 67 4 90 43 28 88 57 137 73 34 15 64-8 97-6 35 7 58-27 94-20 37-20 69-54 73-98 9-37 28-79 71-82 30 1 43-37 77-29 30-14 59-27 92-17 16 5 13 43 41 25 31 6 68-64 80-16 28 19 52-2 76-14 39 5 71-17 102-38 27-29 62-13 95-4 37 10 95-5 94-53 12-26-29-4-9-31 6-32 25-60 45-85 34-2 48-29 69-48 33 1 65-15 97-13 57-9 74 46 107 81 32 24 3 94 59 83 25 18 60 45 91 37 16-41 56 10 86-2 17 31 49-14 64 22 30 15 12 83 54 72 23-34 77-1 96-33 10-42 53-49 82-20 41 2 63-48 90-73 19-27 42-63 23-94-18-19-67-29-52-63 1-39 56-13 84-20 33 16 66 23 100 9 31 20 74-20 95 20 19 54 65-25 106-6 45-2 66 56 111 32 28-3 71-31 73 15 16 31 88 16 77 61-11 39-19 94 17 122 39 29 90 28 134 15 35-16 69-35 106-47 36-16 68-49 108-47 27-11 71-47 85 0 3 47 55 11 84 18 41-13 56 40 94 32 44 8 76-21 111-33l302.217-5.484"/></g></svg>
