<svg xmlns="http://www.w3.org/2000/svg" width="390" height="390"
	xmlns:xlink="http://www.w3.org/1999/xlink"
>

<!--
	<rect x="0" y="0" width="39" height="39" fill="silver" />
-->

<defs>

<!--
		<path d="M 7,4 L 14,4 A 3,3, 0,0,1, 14,10 L 7,10 A 3,3, 0,0,1, 7,4 z"/>
		<path d="M 0,0 21,14 M 0,14 L 21,0"/>
		<path d="M 0,14 21,0"/>
-->

<g id="france">
	<rect x="0" y="0" width="8" height="16" fill="#002153" />
	<rect x="8" y="0" width="8" height="16" fill="#fff" />
	<rect x="16" y="0" width="8" height="16" fill="#cf0821" />
	<rect x="-0.5" y="0" width="25" height="16" fill="none" stroke="black" />
</g>

<g id="algeria">
	<g transform="scale(.02666666666666666666 .02666666666666666666)">
	<path fill="#fff" d="M0 0h900v600H0z"/>
	<path fill="#063" d="M0 0h450v600H0z"/>
	<path fill="#d21034" d="M579.903811 225a150 150 0 1 0 0 150 120 120 0 1 1 0-150M585.676275 300 450 255.916106 533.852549 371.329239v-142.658277L450 344.083894z"/>
	</g>
	<rect x="-0.5" y="0" width="25" height="16" fill="none" stroke="black" />
</g>

<g id="inf_25">
	<g font-family="Dinish" font-weight="bold" text-anchor="middle" fill="#000">
		<text font-size="12" text-anchor="middle" x="23" y="35">25</text>
		<text font-size="12" text-anchor="start" x="4" y="20">1</text>
		<text font-size="7" text-anchor="middle" x="23" y="7">XX</text>
	</g>
	<g stroke-width="1" fill="white" stroke="black" transform="translate(12.5,8.5)">
		<rect x="0" y="0" width="21" height="14"/>
		<path d="M 0,0 21,14 M 0,14 L 21,0"/>
	</g>
</g>

<g id="tri_25">
	<g font-family="Dinish" font-weight="bold" text-anchor="middle" fill="#000">
		<text font-size="12" text-anchor="middle" x="23" y="35">25</text>
		<text font-size="12" text-anchor="start" x="4" y="20">1</text>
		<text font-size="7" text-anchor="middle" x="23" y="7">XX</text>
	</g>
	<g stroke-width="1" fill="white" stroke="black" transform="translate(12.5,8.5)">
		<rect x="0" y="0" width="21" height="14"/>
		<path d="M 0,0 21,14 M 0,14 L 21,0"/>
	</g>
</g>

<g id="arm_25">
	<g font-family="Dinish" font-weight="bold" text-anchor="middle" fill="#000">
		<text font-size="12" text-anchor="middle" x="23" y="35">25</text>
		<text font-size="12" text-anchor="start" x="4" y="20">1</text>
		<text font-size="7" text-anchor="middle" x="23" y="7">XX</text>
	</g>
	<g stroke-width="1" fill="white" stroke="black" transform="translate(12.5,8.5)">
		<rect x="0" y="0" width="21" height="14"/>
		<path d="M 7,4 L 14,4 A 3,3, 0,0,1, 14,10 L 7,10 A 3,3, 0,0,1, 7,4 z"/>
	</g>
</g>

<g id="rec_25">
	<g font-family="Dinish" font-weight="bold" text-anchor="middle" fill="#000">
		<text font-size="12" text-anchor="middle" x="23" y="35">25</text>
		<text font-size="12" text-anchor="start" x="4" y="20">1</text>
		<text font-size="7" text-anchor="middle" x="23" y="7">XX</text>
	</g>
	<g stroke-width="1" fill="white" stroke="black" transform="translate(12.5,8.5)">
		<rect x="0" y="0" width="21" height="14"/>
		<path d="M 7,4 L 14,4 A 3,3, 0,0,1, 14,10 L 7,10 A 3,3, 0,0,1, 7,4 z"/>
		<path d="M 0,14 21,0"/>
	</g>
</g>

<g id="blank_12">
	<g font-family="Dinish" font-weight="bold" text-anchor="middle" fill="#000">
		<text font-size="12" text-anchor="middle" x="23" y="35">12</text>
		<text font-size="12" text-anchor="start" x="4" y="20">2</text>
		<text font-size="7" text-anchor="middle" x="23" y="7">XX</text>
	</g>
	<g stroke-width="1" fill="white" stroke="black" transform="translate(12.5,8.5)">
		<rect x="0" y="0" width="21" height="14"/>
	</g>
</g>

<g id="inf_9">
	<g font-family="Dinish" font-weight="bold" text-anchor="middle" fill="#000">
		<text font-size="12" text-anchor="middle" x="23" y="35">9</text>
		<text font-size="12" text-anchor="start" x="4" y="20">2</text>
		<text font-size="7" text-anchor="middle" x="23" y="7">X</text>
	</g>
	<g stroke-width="1" fill="white" stroke="black" transform="translate(12.5,8.5)">
		<rect x="0" y="0" width="21" height="14"/>
		<path d="M 0,0 21,14 M 0,14 L 21,0"/>
	</g>
</g>

<g id="inf_6">
	<g font-family="Dinish" font-weight="bold" text-anchor="middle" fill="#000">
		<text font-size="12" text-anchor="middle" x="23" y="35">6</text>
		<text font-size="12" text-anchor="start" x="4" y="20">1</text>
		<text font-size="7" text-anchor="middle" x="23" y="7">X</text>
	</g>
	<g stroke-width="1" fill="white" stroke="black" transform="translate(12.5,8.5)">
		<rect x="0" y="0" width="21" height="14"/>
		<path d="M 0,0 21,14 M 0,14 L 21,0"/>
	</g>
</g>

<g id="inf_5">
	<g font-family="Dinish" font-weight="bold" text-anchor="middle" fill="#000">
		<text font-size="12" text-anchor="middle" x="23" y="35">5</text>
		<text font-size="12" text-anchor="start" x="4" y="20">1</text>
		<text font-size="7" text-anchor="middle" x="23" y="7">X</text>
	</g>
	<g stroke-width="1" fill="white" stroke="black" transform="translate(12.5,8.5)">
		<rect x="0" y="0" width="21" height="14"/>
		<path d="M 0,0 21,14 M 0,14 L 21,0"/>
	</g>
</g>

<g id="helo_5">
	<g font-family="Dinish" font-weight="bold" text-anchor="middle" fill="#000">
		<text font-size="12" text-anchor="middle" x="23" y="35">5</text>
		<text font-size="12" text-anchor="start" x="4" y="20">2</text>
		<text font-size="7" text-anchor="middle" x="23" y="7">X</text>
	</g>
	<g stroke-width="1" fill="white" stroke="black" transform="translate(12.5,8.5)">
		<rect x="0" y="0" width="21" height="14"/>
		<path d="M 4,7 L 17,3 A 1,1, 0,0,1, 17,7 L 4,3 A 1,1, 0,0,0, 4,7 z"/>
		<text font-family="Dinish" font-weight="bold" text-anchor="middle" fill="#000" stroke="none" font-size="6.5" x="10.5" y="12.5">HELO</text>
	</g>
</g>

<g id="helo_6">
	<g font-family="Dinish" font-weight="bold" text-anchor="middle" fill="#000">
		<text font-size="12" text-anchor="middle" x="23" y="35">6</text>
		<text font-size="12" text-anchor="start" x="4" y="20">2</text>
		<text font-size="7" text-anchor="middle" x="23" y="7">X</text>
	</g>
	<g stroke-width="1" fill="white" stroke="black" transform="translate(12.5,8.5)">
		<rect x="0" y="0" width="21" height="14"/>
		<path d="M 4,7 L 17,3 A 1,1, 0,0,1, 17,7 L 4,3 A 1,1, 0,0,0, 4,7 z"/>
		<text font-family="Dinish" font-weight="bold" text-anchor="middle" fill="#000" stroke="none" font-size="6.5" x="10.5" y="12.5">HELO</text>
	</g>
</g>

<g id="helo_9">
	<g font-family="Dinish" font-weight="bold" text-anchor="middle" fill="#000">
		<text font-size="12" text-anchor="middle" x="23" y="35">9</text>
		<text font-size="12" text-anchor="start" x="4" y="20">3</text>
		<text font-size="7" text-anchor="middle" x="23" y="7">X</text>
	</g>
	<g stroke-width="1" fill="white" stroke="black" transform="translate(12.5,8.5)">
		<rect x="0" y="0" width="21" height="14"/>
		<path d="M 4,7 L 17,3 A 1,1, 0,0,1, 17,7 L 4,3 A 1,1, 0,0,0, 4,7 z"/>
		<text font-family="Dinish" font-weight="bold" text-anchor="middle" fill="#000" stroke="none" font-size="6.5" x="10.5" y="12.5">HELO</text>
	</g>
</g>

<g id="cadre">
	<g font-family="Dinish" font-weight="bold" text-anchor="middle" fill="#fff">
		<text font-size="12" text-anchor="middle" x="23" y="35">1</text>
		<text font-size="12" text-anchor="start" x="4" y="20">4</text>
	</g>
	<g stroke-width="1" fill="white" stroke="black" transform="translate(12.5,8.5)">
		<rect x="0" y="0" width="21" height="14"/>
		<!-- <text font-family="Noto Emoji" font-weight="bold" text-anchor="middle" fill="#000" stroke="none" font-size="12" x="10.5" y="11">&#x1f4e2;</text> -->
	</g>
</g>

<g id="band">
	<g font-family="Dinish" font-weight="bold" text-anchor="middle" fill="#fff">
		<text font-size="12" text-anchor="middle" x="23" y="35">2</text>
		<text font-size="12" text-anchor="start" x="4" y="20">3</text>
		<text font-size="7" text-anchor="middle" x="23" y="7">I</text>
	</g>
	<g stroke-width="1" fill="white" stroke="black" transform="translate(12.5,8.5)">
		<rect x="0" y="0" width="21" height="14"/>
		<text font-family="Dinish" font-weight="bold" text-anchor="middle" fill="#000" stroke="none" font-size="12" x="10.5" y="11">L</text>
	</g>
</g>

<g id="failek">
	<g font-family="Dinish" font-weight="bold" text-anchor="middle" fill="#fff">
		<text font-size="12" text-anchor="middle" x="23" y="35">4</text>
		<text font-size="12" text-anchor="start" x="4" y="20">2</text>
		<text font-size="7" text-anchor="middle" x="23" y="7">II</text>
	</g>
	<g stroke-width="1" fill="white" stroke="black" transform="translate(12.5,8.5)">
		<rect x="0" y="0" width="21" height="14"/>
		<text font-family="Dinish" font-weight="bold" text-anchor="middle" fill="#000" stroke="none" font-size="12" x="10.5" y="11">L</text>
	</g>
</g>

<g id="police">
	<g font-family="Dinish" font-weight="bold" text-anchor="middle" fill="#000">
		<text font-size="12" text-anchor="middle" x="19.5" y="35">2</text>
	</g>
	<g stroke-width="1" fill="white" stroke="black">
		<path d="M 9,4 30,4
		C 30,8 32,16 19.5,25 
		C 7,16 9,8 9,4
		z" />
	</g>
	<g font-family="Dinish Condensed" font-weight="bold" text-anchor="middle" fill="#000">
		<text font-size="7" text-anchor="middle" x="19.5" y="12">POLICE</text>
	</g>
</g>

<g id="front">
	<g font-family="Dinish" font-weight="bold" text-anchor="middle" fill="#fff">
		<text font-size="12" text-anchor="middle" x="19.5" y="35">3</text>
		<!-- <text font-family="Noto Emoji" font-size="13" x="19.5" y="20">&#x270a;</text> -->
	</g>
	<g stroke-width="1" fill="white" stroke="black" transform="translate(12.5,8.5)">
	</g>
</g>

<g id="bz1">
	<g font-family="Dinish" font-weight="bold" text-anchor="middle" fill="#000">
		<text font-size="10" text-anchor="middle" x="19.5" y="12">-X-X-X-</text>
		<text font-size="10" text-anchor="middle" x="19.5" y="22">Border</text>
		<text font-size="10" text-anchor="middle" x="19.5" y="33">Zone</text>
	</g>
</g>

<g id="bz2">
	<g font-family="Dinish" font-weight="bold" text-anchor="middle" fill="#000">
		<text font-size="10" text-anchor="middle" x="19.5" y="11">Inactive</text>
		<text font-size="10" text-anchor="middle" x="19.5" y="22">Border</text>
		<text font-size="10" text-anchor="middle" x="19.5" y="33">Zone</text>
	</g>
</g>

<g id="naval_pts">
	<g font-family="Dinish" font-weight="bold" text-anchor="middle" fill="#000">
		<text font-size="10" text-anchor="middle" x="19.5" y="11">NAVAL</text>
		<text font-size="10" text-anchor="middle" x="19.5" y="35">PTS</text>
		<!-- <text font-family="Noto Emoji" font-size="12" text-anchor="middle" x="19.5" y="24">&#x1f6a2;</text> -->
	</g>
</g>

<g id="helo_avail">
	<g font-family="Dinish" font-weight="bold" text-anchor="middle" fill="#000">
		<text font-size="10" text-anchor="middle" x="19.5" y="11">HELO</text>
		<text font-size="10" text-anchor="middle" x="19.5" y="35">AVAIL</text>
		<!-- <text font-family="Noto Emoji" font-size="12" text-anchor="middle" x="19.5" y="24">&#x1f681;</text> -->
	</g>
</g>

<g id="helo_max">
	<g font-family="Dinish" font-weight="bold" text-anchor="middle" fill="#000">
		<text font-size="10" text-anchor="middle" x="19.5" y="11">HELO</text>
		<text font-size="10" text-anchor="middle" x="19.5" y="35">MAX</text>
		<!-- <text font-family="Noto Emoji" font-size="12" text-anchor="middle" x="19.5" y="24">&#x1f681;</text> -->
	</g>
</g>

<g id="air_avail">
	<g font-family="Dinish" font-weight="bold" text-anchor="middle" fill="#000">
		<text font-size="10" text-anchor="middle" x="19.5" y="11">AIR</text>
		<text font-size="10" text-anchor="middle" x="19.5" y="35">AVAIL</text>
		<!-- <text font-family="Noto Emoji" font-size="12" text-anchor="middle" x="19.5" y="24">&#x2708;</text> -->
	</g>
</g>

<g id="air_max">
	<g font-family="Dinish" font-weight="bold" text-anchor="middle" fill="#000">
		<text font-size="10" text-anchor="middle" x="19.5" y="11">AIR</text>
		<text font-size="10" text-anchor="middle" x="19.5" y="35">MAX</text>
		<!-- <text font-family="Noto Emoji" font-size="12" text-anchor="middle" x="19.5" y="24">&#x2708;</text> -->
	</g>
</g>

<g id="remote">
	<g font-family="Dinish" font-weight="bold" text-anchor="middle" fill="#000">
		<text font-size="9" text-anchor="middle" x="19.5" y="34">REMOTE</text>
	</g>
</g>

<g id="terror">
	<rect x="0" y="0" width="39" height="39" fill="#444" />
	<g font-family="Dinish" font-weight="bold" text-anchor="middle" fill="#fff">
		<text font-size="9" text-anchor="middle" x="19.5" y="34">TERROR</text>
	</g>
</g>

<g id="turn">
	<g font-family="Dinish" font-weight="bold" text-anchor="middle" fill="#000">
		<text font-size="11" text-anchor="middle" x="19.5" y="17">TURN</text>
		<text font-size="11" text-anchor="middle" x="19.5" y="31">NOW</text>
	</g>
</g>

<g id="oas">
	<rect x="5" y="5" width="29" height="15" fill="#444" />
	<g font-family="Dinish" font-weight="bold" text-anchor="middle" fill="#fff">
		<text font-size="10" text-anchor="middle" x="19.5" y="16">OAS</text>
	</g>
	<g font-family="Dinish" font-weight="bold" text-anchor="middle" fill="#000">
		<text font-size="10" text-anchor="middle" x="19.5" y="30">ACTIVE</text>
	</g>
</g>

<g id="gov_psl">
	<use xlink:href="#france" x="7" y="5.5" />
	<g font-family="Dinish" font-weight="bold" text-anchor="middle" fill="#000">
		<text font-size="12" text-anchor="middle" x="19.5" y="34">PSL</text>
	</g>
</g>

<g id="fln_psl">
	<use xlink:href="#algeria" x="7" y="5.5" />
	<g font-family="Dinish" font-weight="bold" text-anchor="middle" fill="#000">
		<text font-size="12" text-anchor="middle" x="19.5" y="34">PSL</text>
	</g>
</g>

<g id="fln_ap">
	<use xlink:href="#algeria" x="7" y="5.5" />
	<g font-family="Dinish" font-weight="bold" text-anchor="middle" fill="#000">
		<text font-size="12" text-anchor="middle" x="19.5" y="34">AP</text>
	</g>
</g>

<g id="gov_ctl">
	<use xlink:href="#france" x="7" y="5.5" />
	<g font-family="Dinish" font-weight="bold" text-anchor="middle" fill="#000">
		<text font-size="8" text-anchor="middle" x="19.5" y="34">CONTROL</text>
	</g>
</g>

<g id="fln_ctl">
	<use xlink:href="#algeria" x="7" y="5.5" />
	<g font-family="Dinish" font-weight="bold" text-anchor="middle" fill="#000">
		<text font-size="8" text-anchor="middle" x="19.5" y="34">CONTROL</text>
	</g>
</g>

</defs>

<use xlink:href="#turn"	x="0" y="0"/>
<use xlink:href="#fln_psl"	x="39" y="0"/>
<use xlink:href="#fln_ap"	x="78" y="0"/>
<use xlink:href="#gov_psl"	x="117" y="0"/>
<use xlink:href="#fln_ctl"	x="156" y="0"/>
<use xlink:href="#gov_ctl"	x="195" y="0"/>
<use xlink:href="#oas"	x="234" y="0"/>
<use xlink:href="#remote"	x="273" y="0"/>
<use xlink:href="#terror"	x="312" y="0"/>

<use xlink:href="#air_avail"	x="0" y="39"/>
<use xlink:href="#air_max"	x="39" y="39"/>
<use xlink:href="#helo_avail"	x="78" y="39"/>
<use xlink:href="#helo_max"	x="117" y="39"/>
<use xlink:href="#naval_pts"	x="156" y="39"/>
<use xlink:href="#bz1"	x="195" y="39"/>
<use xlink:href="#bz2"	x="234" y="39"/>

<use xlink:href="#inf_25"	x="0" y="78"/>
<use xlink:href="#inf_25"	x="39" y="78"/>
<use xlink:href="#inf_25"	x="78" y="78"/>
<use xlink:href="#inf_25"	x="117" y="78"/>
<use xlink:href="#inf_25"	x="156" y="78"/>
<use xlink:href="#inf_25"	x="195" y="78"/>
<use xlink:href="#inf_25"	x="234" y="78"/>
<use xlink:href="#inf_25"	x="273" y="78"/>
<use xlink:href="#inf_25"	x="312" y="78"/>
<use xlink:href="#inf_25"	x="351" y="78"/>

<use xlink:href="#tri_25"	x="0" y="117"/>
<use xlink:href="#arm_25"	x="39" y="117"/>
<use xlink:href="#rec_25"	x="78" y="117"/>
<use xlink:href="#blank_12"	x="117" y="117"/>
<use xlink:href="#inf_6"	x="156" y="117"/>
<use xlink:href="#helo_6"	x="195" y="117"/>

<use xlink:href="#inf_9"	x="0" y="156"/>
<use xlink:href="#inf_9"	x="39" y="156"/>
<use xlink:href="#inf_9"	x="78" y="156"/>
<use xlink:href="#helo_9"	x="117" y="156"/>
<use xlink:href="#inf_5"	x="156" y="156"/>
<use xlink:href="#helo_5"	x="195" y="156"/>
<use xlink:href="#police"	x="234" y="156"/>

<use xlink:href="#failek"	x="0" y="195"/>
<use xlink:href="#band"	x="39" y="195"/>
<use xlink:href="#cadre"	x="78" y="195"/>
<use xlink:href="#front"	x="117" y="195"/>

<!--

<use xlink:href="#inf_25" x="0" y="39"/>
<use xlink:href="#arm_25" x="0" y="78"/>
<use xlink:href="#tri_25" x="0" y="117"/>
<use xlink:href="#rec_25" x="0" y="156"/>
<use xlink:href="#police" x="0" y="195"/>
<use xlink:href="#front" x="0" y="234"/>

<use xlink:href="#blank_12" x="39" y="39"/>
<use xlink:href="#inf_6" x="39" y="78"/>
<use xlink:href="#inf_9" x="39" y="117"/>
<use xlink:href="#inf_5" x="39" y="156"/>

<use xlink:href="#helo_5" x="39" y="0"/>
<use xlink:href="#helo_6" x="78" y="0"/>
<use xlink:href="#helo_9" x="117" y="0"/>

<use xlink:href="#cadre" x="117" y="39"/>
<use xlink:href="#band" x="117" y="78"/>
<use xlink:href="#failek" x="117" y="117"/>
<use xlink:href="#front" x="117" y="156"/>

<use xlink:href="#bz1" x="156" y="117"/>
<use xlink:href="#bz2" x="156" y="156"/>

<use xlink:href="#naval_pts" x="195" y="117"/>
<use xlink:href="#helo_avail" x="195" y="156"/>
<use xlink:href="#helo_max" x="195" y="195"/>
<use xlink:href="#air_avail" x="195" y="234"/>
<use xlink:href="#air_max" x="195" y="273"/>

<use xlink:href="#remote" x="234" y="273"/>
<use xlink:href="#terror" x="273" y="312"/>
-->

</svg>
