<?xml version="1.0" encoding="UTF-8" standalone="no"?>
<svg
   xmlns:dc="http://purl.org/dc/elements/1.1/"
   xmlns:cc="http://creativecommons.org/ns#"
   xmlns:rdf="http://www.w3.org/1999/02/22-rdf-syntax-ns#"
   xmlns:svg="http://www.w3.org/2000/svg"
   xmlns="http://www.w3.org/2000/svg"
   xmlns:xlink="http://www.w3.org/1999/xlink"
   xmlns:sodipodi="http://sodipodi.sourceforge.net/DTD/sodipodi-0.dtd"
   xmlns:inkscape="http://www.inkscape.org/namespaces/inkscape"
   width="390"
   height="390"
   version="1.1"
   id="svg1286"
   sodipodi:docname="grid.svg"
   inkscape:version="1.0.2 (e86c870879, 2021-01-15)">
  <rect
     x="0"
     y="0"
     width="390"
     height="390"
     fill="#c0c0c0"
     id="rect826"
     style="display:none"
     sodipodi:insensitive="true" />
  <metadata
     id="metadata1290">
    <rdf:RDF>
      <cc:Work
         rdf:about="">
        <dc:format>image/svg+xml</dc:format>
        <dc:type
           rdf:resource="http://purl.org/dc/dcmitype/StillImage" />
      </cc:Work>
    </rdf:RDF>
  </metadata>
  <sodipodi:namedview
     pagecolor="#ffffff"
     bordercolor="#666666"
     borderopacity="1"
     objecttolerance="10"
     gridtolerance="10"
     guidetolerance="10"
     inkscape:pageopacity="0"
     inkscape:pageshadow="2"
     inkscape:window-width="640"
     inkscape:window-height="480"
     id="namedview1288"
     showgrid="false"
     inkscape:zoom="3.5719844"
     inkscape:cx="253.39665"
     inkscape:cy="131.38689"
     inkscape:current-layer="g489"
     showguides="true"
     inkscape:guide-bbox="true"
     inkscape:document-rotation="0">
    <inkscape:grid
       type="xygrid"
       id="grid2690" />
    <sodipodi:guide
       position="136,172"
       orientation="0,-1"
       id="guide2692" />
  </sodipodi:namedview>
  <!--
	<rect x="0" y="0" width="39" height="39" fill="silver" />
-->
  <defs
     id="defs1198">
    <!--
		<path d="M 7,4 L 14,4 A 3,3, 0,0,1, 14,10 L 7,10 A 3,3, 0,0,1, 7,4 z"/>
		<path d="M 0,0 21,14 M 0,14 L 21,0"/>
		<path d="M 0,14 21,0"/>
-->
    <g
       id="france">
      <rect
         x="0"
         y="0"
         width="8"
         height="16"
         fill="#002153"
         id="rect828" />
      <rect
         x="8"
         y="0"
         width="8"
         height="16"
         fill="#fff"
         id="rect830" />
      <rect
         x="16"
         y="0"
         width="8"
         height="16"
         fill="#cf0821"
         id="rect832" />
      <rect
         x="-0.5"
         y="0"
         width="25"
         height="16"
         fill="none"
         stroke="black"
         id="rect834" />
    </g>
    <g
       id="algeria">
      <g
         transform="scale(.02666666666666666666 .02666666666666666666)"
         id="g843">
        <path
           fill="#fff"
           d="M0 0h900v600H0z"
           id="path837" />
        <path
           fill="#063"
           d="M0 0h450v600H0z"
           id="path839" />
        <path
           fill="#d21034"
           d="M579.903811 225a150 150 0 1 0 0 150 120 120 0 1 1 0-150M585.676275 300 450 255.916106 533.852549 371.329239v-142.658277L450 344.083894z"
           id="path841" />
      </g>
      <rect
         x="-0.5"
         y="0"
         width="25"
         height="16"
         fill="none"
         stroke="black"
         id="rect845" />
    </g>
    <g
       id="inf_25">
      <g
         font-family="Dinish"
         font-weight="bold"
         text-anchor="middle"
         fill="#000"
         id="g854">
        <text
           font-size="12"
           text-anchor="middle"
           x="23"
           y="35"
           id="text848">25</text>
        <text
           font-size="12"
           text-anchor="start"
           x="4"
           y="20"
           id="text850">1</text>
        <text
           font-size="7"
           text-anchor="middle"
           x="23"
           y="7"
           id="text852">XX</text>
      </g>
      <g
         stroke-width="1"
         fill="white"
         stroke="black"
         transform="translate(12.5,8.5)"
         id="g860">
        <rect
           x="0"
           y="0"
           width="21"
           height="14"
           id="rect856" />
        <path
           d="M 0,0 21,14 M 0,14 L 21,0"
           id="path858" />
      </g>
    </g>
    <g
       id="tri_25">
      <g
         font-family="Dinish"
         font-weight="bold"
         text-anchor="middle"
         fill="#000"
         id="g869">
        <text
           font-size="12"
           text-anchor="middle"
           x="23"
           y="35"
           id="text863">25</text>
        <text
           font-size="12"
           text-anchor="start"
           x="4"
           y="20"
           id="text865">1</text>
        <text
           font-size="7"
           text-anchor="middle"
           x="23"
           y="7"
           id="text867">XX</text>
      </g>
      <g
         stroke-width="1"
         fill="white"
         stroke="black"
         transform="translate(12.5,8.5)"
         id="g875">
        <rect
           x="0"
           y="0"
           width="21"
           height="14"
           id="rect871" />
        <path
           d="M 0,0 21,14 M 0,14 L 21,0"
           id="path873" />
      </g>
    </g>
    <g
       id="arm_25">
      <g
         font-family="Dinish"
         font-weight="bold"
         text-anchor="middle"
         fill="#000"
         id="g884">
        <text
           font-size="12"
           text-anchor="middle"
           x="23"
           y="35"
           id="text878">25</text>
        <text
           font-size="12"
           text-anchor="start"
           x="4"
           y="20"
           id="text880">1</text>
        <text
           font-size="7"
           text-anchor="middle"
           x="23"
           y="7"
           id="text882">XX</text>
      </g>
      <g
         stroke-width="1"
         fill="white"
         stroke="black"
         transform="translate(12.5,8.5)"
         id="g890">
        <rect
           x="0"
           y="0"
           width="21"
           height="14"
           id="rect886" />
        <path
           d="M 7,4 L 14,4 A 3,3, 0,0,1, 14,10 L 7,10 A 3,3, 0,0,1, 7,4 z"
           id="path888" />
      </g>
    </g>
    <g
       id="rec_25">
      <g
         font-family="Dinish"
         font-weight="bold"
         text-anchor="middle"
         fill="#000"
         id="g899">
        <text
           font-size="12"
           text-anchor="middle"
           x="23"
           y="35"
           id="text893">25</text>
        <text
           font-size="12"
           text-anchor="start"
           x="4"
           y="20"
           id="text895">1</text>
        <text
           font-size="7"
           text-anchor="middle"
           x="23"
           y="7"
           id="text897">XX</text>
      </g>
      <g
         stroke-width="1"
         fill="white"
         stroke="black"
         transform="translate(12.5,8.5)"
         id="g907">
        <rect
           x="0"
           y="0"
           width="21"
           height="14"
           id="rect901" />
        <path
           d="M 7,4 L 14,4 A 3,3, 0,0,1, 14,10 L 7,10 A 3,3, 0,0,1, 7,4 z"
           id="path903" />
        <path
           d="M 0,14 21,0"
           id="path905" />
      </g>
    </g>
    <g
       id="blank_12">
      <g
         font-family="Dinish"
         font-weight="bold"
         text-anchor="middle"
         fill="#000"
         id="g916">
        <text
           font-size="12"
           text-anchor="middle"
           x="23"
           y="35"
           id="text910">12</text>
        <text
           font-size="12"
           text-anchor="start"
           x="4"
           y="20"
           id="text912">2</text>
        <text
           font-size="7"
           text-anchor="middle"
           x="23"
           y="7"
           id="text914">XX</text>
      </g>
      <g
         stroke-width="1"
         fill="white"
         stroke="black"
         transform="translate(12.5,8.5)"
         id="g920">
        <rect
           x="0"
           y="0"
           width="21"
           height="14"
           id="rect918" />
      </g>
    </g>
    <g
       id="inf_9">
      <g
         font-family="Dinish"
         font-weight="bold"
         text-anchor="middle"
         fill="#000"
         id="g929">
        <text
           font-size="12"
           text-anchor="middle"
           x="23"
           y="35"
           id="text923">9</text>
        <text
           font-size="12"
           text-anchor="start"
           x="4"
           y="20"
           id="text925">2</text>
        <text
           font-size="7"
           text-anchor="middle"
           x="23"
           y="7"
           id="text927">X</text>
      </g>
      <g
         stroke-width="1"
         fill="white"
         stroke="black"
         transform="translate(12.5,8.5)"
         id="g935">
        <rect
           x="0"
           y="0"
           width="21"
           height="14"
           id="rect931" />
        <path
           d="M 0,0 21,14 M 0,14 L 21,0"
           id="path933" />
      </g>
    </g>
    <g
       id="inf_6">
      <g
         font-family="Dinish"
         font-weight="bold"
         text-anchor="middle"
         fill="#000"
         id="g944">
        <text
           font-size="12"
           text-anchor="middle"
           x="23"
           y="35"
           id="text938">6</text>
        <text
           font-size="12"
           text-anchor="start"
           x="4"
           y="20"
           id="text940">1</text>
        <text
           font-size="7"
           text-anchor="middle"
           x="23"
           y="7"
           id="text942">X</text>
      </g>
      <g
         stroke-width="1"
         fill="white"
         stroke="black"
         transform="translate(12.5,8.5)"
         id="g950">
        <rect
           x="0"
           y="0"
           width="21"
           height="14"
           id="rect946" />
        <path
           d="M 0,0 21,14 M 0,14 L 21,0"
           id="path948" />
      </g>
    </g>
    <g
       id="inf_5">
      <g
         font-family="Dinish"
         font-weight="bold"
         text-anchor="middle"
         fill="#000"
         id="g959">
        <text
           font-size="12"
           text-anchor="middle"
           x="23"
           y="35"
           id="text953">5</text>
        <text
           font-size="12"
           text-anchor="start"
           x="4"
           y="20"
           id="text955">1</text>
        <text
           font-size="7"
           text-anchor="middle"
           x="23"
           y="7"
           id="text957">X</text>
      </g>
      <g
         stroke-width="1"
         fill="white"
         stroke="black"
         transform="translate(12.5,8.5)"
         id="g965">
        <rect
           x="0"
           y="0"
           width="21"
           height="14"
           id="rect961" />
        <path
           d="M 0,0 21,14 M 0,14 L 21,0"
           id="path963" />
      </g>
    </g>
    <g
       id="helo_5">
      <g
         font-family="Dinish"
         font-weight="bold"
         text-anchor="middle"
         fill="#000"
         id="g974">
        <text
           font-size="12"
           text-anchor="middle"
           x="23"
           y="35"
           id="text968">5</text>
        <text
           font-size="12"
           text-anchor="start"
           x="4"
           y="20"
           id="text970">2</text>
        <text
           font-size="7"
           text-anchor="middle"
           x="23"
           y="7"
           id="text972">X</text>
      </g>
      <g
         stroke-width="1"
         fill="white"
         stroke="black"
         transform="translate(12.5,8.5)"
         id="g982">
        <rect
           x="0"
           y="0"
           width="21"
           height="14"
           id="rect976" />
        <path
           d="M 4,7 L 17,3 A 1,1, 0,0,1, 17,7 L 4,3 A 1,1, 0,0,0, 4,7 z"
           id="path978" />
        <text
           font-family="Dinish"
           font-weight="bold"
           text-anchor="middle"
           fill="#000"
           stroke="none"
           font-size="6.5"
           x="10.5"
           y="12.5"
           id="text980">HELO</text>
      </g>
    </g>
    <g
       id="helo_6">
      <g
         font-family="Dinish"
         font-weight="bold"
         text-anchor="middle"
         fill="#000"
         id="g991">
        <text
           font-size="12"
           text-anchor="middle"
           x="23"
           y="35"
           id="text985">6</text>
        <text
           font-size="12"
           text-anchor="start"
           x="4"
           y="20"
           id="text987">2</text>
        <text
           font-size="7"
           text-anchor="middle"
           x="23"
           y="7"
           id="text989">X</text>
      </g>
      <g
         stroke-width="1"
         fill="white"
         stroke="black"
         transform="translate(12.5,8.5)"
         id="g999">
        <rect
           x="0"
           y="0"
           width="21"
           height="14"
           id="rect993" />
        <path
           d="M 4,7 L 17,3 A 1,1, 0,0,1, 17,7 L 4,3 A 1,1, 0,0,0, 4,7 z"
           id="path995" />
        <text
           font-family="Dinish"
           font-weight="bold"
           text-anchor="middle"
           fill="#000"
           stroke="none"
           font-size="6.5"
           x="10.5"
           y="12.5"
           id="text997">HELO</text>
      </g>
    </g>
    <g
       id="helo_9">
      <g
         font-family="Dinish"
         font-weight="bold"
         text-anchor="middle"
         fill="#000"
         id="g1008">
        <text
           font-size="12"
           text-anchor="middle"
           x="23"
           y="35"
           id="text1002">9</text>
        <text
           font-size="12"
           text-anchor="start"
           x="4"
           y="20"
           id="text1004">3</text>
        <text
           font-size="7"
           text-anchor="middle"
           x="23"
           y="7"
           id="text1006">X</text>
      </g>
      <g
         stroke-width="1"
         fill="white"
         stroke="black"
         transform="translate(12.5,8.5)"
         id="g1016">
        <rect
           x="0"
           y="0"
           width="21"
           height="14"
           id="rect1010" />
        <path
           d="M 4,7 L 17,3 A 1,1, 0,0,1, 17,7 L 4,3 A 1,1, 0,0,0, 4,7 z"
           id="path1012" />
        <text
           font-family="Dinish"
           font-weight="bold"
           text-anchor="middle"
           fill="#000"
           stroke="none"
           font-size="6.5"
           x="10.5"
           y="12.5"
           id="text1014">HELO</text>
      </g>
    </g>
    <g
       id="cadre">
      <g
         font-family="Dinish"
         font-weight="bold"
         text-anchor="middle"
         fill="#fff"
         id="g1023">
        <text
           font-size="12"
           text-anchor="middle"
           x="23"
           y="35"
           id="text1019">1</text>
        <text
           font-size="12"
           text-anchor="start"
           x="4"
           y="20"
           id="text1021">4</text>
      </g>
      <g
         stroke-width="1"
         fill="white"
         stroke="black"
         transform="translate(12.5,8.5)"
         id="g1027">
        <rect
           x="0"
           y="0"
           width="21"
           height="14"
           id="rect1025" />
        <!-- <text font-family="Noto Emoji" font-weight="bold" text-anchor="middle" fill="#000" stroke="none" font-size="12" x="10.5" y="11">&#x1f4e2;</text> -->
      </g>
    </g>
    <g
       id="band">
      <g
         font-family="Dinish"
         font-weight="bold"
         text-anchor="middle"
         fill="#fff"
         id="g1036">
        <text
           font-size="12"
           text-anchor="middle"
           x="23"
           y="35"
           id="text1030">2</text>
        <text
           font-size="12"
           text-anchor="start"
           x="4"
           y="20"
           id="text1032">3</text>
        <text
           font-size="7"
           text-anchor="middle"
           x="23"
           y="7"
           id="text1034">I</text>
      </g>
      <g
         stroke-width="1"
         fill="white"
         stroke="black"
         transform="translate(12.5,8.5)"
         id="g1042">
        <rect
           x="0"
           y="0"
           width="21"
           height="14"
           id="rect1038" />
        <text
           font-family="Dinish"
           font-weight="bold"
           text-anchor="middle"
           fill="#000"
           stroke="none"
           font-size="12"
           x="10.5"
           y="11"
           id="text1040">L</text>
      </g>
    </g>
    <g
       id="failek">
      <g
         font-family="Dinish"
         font-weight="bold"
         text-anchor="middle"
         fill="#fff"
         id="g1051">
        <text
           font-size="12"
           text-anchor="middle"
           x="23"
           y="35"
           id="text1045">4</text>
        <text
           font-size="12"
           text-anchor="start"
           x="4"
           y="20"
           id="text1047">2</text>
        <text
           font-size="7"
           text-anchor="middle"
           x="23"
           y="7"
           id="text1049">II</text>
      </g>
      <g
         stroke-width="1"
         fill="white"
         stroke="black"
         transform="translate(12.5,8.5)"
         id="g1057">
        <rect
           x="0"
           y="0"
           width="21"
           height="14"
           id="rect1053" />
        <text
           font-family="Dinish"
           font-weight="bold"
           text-anchor="middle"
           fill="#000"
           stroke="none"
           font-size="12"
           x="10.5"
           y="11"
           id="text1055">L</text>
      </g>
    </g>
    <g
       id="police">
      <g
         font-family="Dinish"
         font-weight="bold"
         text-anchor="middle"
         fill="#000"
         id="g1062">
        <text
           font-size="12"
           text-anchor="middle"
           x="19.5"
           y="35"
           id="text1060">2</text>
      </g>
      <g
         stroke-width="1"
         fill="white"
         stroke="black"
         id="g1066">
        <path
           d="M 9,4 30,4   C 30,8 32,16 19.5,25    C 7,16 9,8 9,4   z"
           id="path1064" />
      </g>
      <g
         font-family="Dinish Condensed"
         font-weight="bold"
         text-anchor="middle"
         fill="#000"
         id="g1070">
        <text
           font-size="7"
           text-anchor="middle"
           x="19.5"
           y="12"
           id="text1068">POLICE</text>
      </g>
    </g>
    <g
       id="front">
      <g
         font-family="Dinish"
         font-weight="bold"
         text-anchor="middle"
         fill="#fff"
         id="g1075">
        <text
           font-size="12"
           text-anchor="middle"
           x="19.5"
           y="35"
           id="text1073">3</text>
        <!-- <text font-family="Noto Emoji" font-size="13" x="19.5" y="20">&#x270a;</text> -->
      </g>
      <g
         stroke-width="1"
         fill="white"
         stroke="black"
         transform="translate(12.5,8.5)"
         id="g1077" />
    </g>
    <g
       id="bz1">
      <g
         font-family="Dinish"
         font-weight="bold"
         text-anchor="middle"
         fill="#000"
         id="g1086">
        <text
           font-size="10"
           text-anchor="middle"
           x="19.5"
           y="12"
           id="text1080">-X-X-X-</text>
        <text
           font-size="10"
           text-anchor="middle"
           x="19.5"
           y="22"
           id="text1082">Border</text>
        <text
           font-size="10"
           text-anchor="middle"
           x="19.5"
           y="33"
           id="text1084">Zone</text>
      </g>
    </g>
    <g
       id="bz2">
      <g
         font-family="Dinish"
         font-weight="bold"
         text-anchor="middle"
         fill="#000"
         id="g1095">
        <text
           font-size="10"
           text-anchor="middle"
           x="19.5"
           y="11"
           id="text1089">Inactive</text>
        <text
           font-size="10"
           text-anchor="middle"
           x="19.5"
           y="22"
           id="text1091">Border</text>
        <text
           font-size="10"
           text-anchor="middle"
           x="19.5"
           y="33"
           id="text1093">Zone</text>
      </g>
    </g>
    <g
       id="naval_pts">
      <g
         font-family="Dinish"
         font-weight="bold"
         text-anchor="middle"
         fill="#000"
         id="g1102">
        <text
           font-size="10"
           text-anchor="middle"
           x="19.5"
           y="11"
           id="text1098">NAVAL</text>
        <text
           font-size="10"
           text-anchor="middle"
           x="19.5"
           y="35"
           id="text1100">PTS</text>
        <!-- <text font-family="Noto Emoji" font-size="12" text-anchor="middle" x="19.5" y="24">&#x1f6a2;</text> -->
      </g>
    </g>
    <g
       id="helo_avail">
      <g
         font-family="Dinish"
         font-weight="bold"
         text-anchor="middle"
         fill="#000"
         id="g1109">
        <text
           font-size="10"
           text-anchor="middle"
           x="19.5"
           y="11"
           id="text1105">HELO</text>
        <text
           font-size="10"
           text-anchor="middle"
           x="19.5"
           y="35"
           id="text1107">AVAIL</text>
        <!-- <text font-family="Noto Emoji" font-size="12" text-anchor="middle" x="19.5" y="24">&#x1f681;</text> -->
      </g>
    </g>
    <g
       id="helo_max">
      <g
         font-family="Dinish"
         font-weight="bold"
         text-anchor="middle"
         fill="#000"
         id="g1116">
        <text
           font-size="10"
           text-anchor="middle"
           x="19.5"
           y="11"
           id="text1112">HELO</text>
        <text
           font-size="10"
           text-anchor="middle"
           x="19.5"
           y="35"
           id="text1114">MAX</text>
        <!-- <text font-family="Noto Emoji" font-size="12" text-anchor="middle" x="19.5" y="24">&#x1f681;</text> -->
      </g>
    </g>
    <g
       id="air_avail">
      <g
         font-family="Dinish"
         font-weight="bold"
         text-anchor="middle"
         fill="#000"
         id="g1123">
        <text
           font-size="10"
           text-anchor="middle"
           x="19.5"
           y="11"
           id="text1119">AIR</text>
        <text
           font-size="10"
           text-anchor="middle"
           x="19.5"
           y="35"
           id="text1121">AVAIL</text>
        <!-- <text font-family="Noto Emoji" font-size="12" text-anchor="middle" x="19.5" y="24">&#x2708;</text> -->
      </g>
    </g>
    <g
       id="air_max">
      <g
         font-family="Dinish"
         font-weight="bold"
         text-anchor="middle"
         fill="#000"
         id="g1130">
        <text
           font-size="10"
           text-anchor="middle"
           x="19.5"
           y="11"
           id="text1126">AIR</text>
        <text
           font-size="10"
           text-anchor="middle"
           x="19.5"
           y="35"
           id="text1128">MAX</text>
        <!-- <text font-family="Noto Emoji" font-size="12" text-anchor="middle" x="19.5" y="24">&#x2708;</text> -->
      </g>
    </g>
    <g
       id="remote">
      <g
         font-family="Dinish"
         font-weight="bold"
         text-anchor="middle"
         fill="#000"
         id="g1135">
        <text
           font-size="9"
           text-anchor="middle"
           x="19.5"
           y="34"
           id="text1133">REMOTE</text>
      </g>
    </g>
    <g
       id="terror">
      <g
         font-family="Dinish"
         font-weight="bold"
         text-anchor="middle"
         fill="#fff"
         id="g1142">
        <text
           font-size="9"
           text-anchor="middle"
           x="19.5"
           y="34"
           id="text1140">TERROR</text>
      </g>
    </g>
    <g
       id="turn">
      <g
         font-family="Dinish"
         font-weight="bold"
         text-anchor="middle"
         fill="#000"
         id="g1149">
        <text
           font-size="11"
           text-anchor="middle"
           x="19.5"
           y="17"
           id="text1145">TURN</text>
        <text
           font-size="11"
           text-anchor="middle"
           x="19.5"
           y="31"
           id="text1147">NOW</text>
      </g>
    </g>
    <g
       id="oas">
      <rect
         x="5"
         y="5"
         width="29"
         height="15"
         fill="#444"
         id="rect1152" />
      <g
         font-family="Dinish"
         font-weight="bold"
         text-anchor="middle"
         fill="#fff"
         id="g1156">
        <text
           font-size="10"
           text-anchor="middle"
           x="19.5"
           y="16"
           id="text1154">OAS</text>
      </g>
      <g
         font-family="Dinish"
         font-weight="bold"
         text-anchor="middle"
         fill="#000"
         id="g1160">
        <text
           font-size="10"
           text-anchor="middle"
           x="19.5"
           y="32"
           id="text1158">ACTIVE</text>
      </g>
    </g>
    <g
       id="gov_psl">
      <use
         xlink:href="#france"
         x="7"
         y="5.5"
         id="use1163" />
      <g
         font-family="Dinish"
         font-weight="bold"
         text-anchor="middle"
         fill="#000"
         id="g1167">
        <text
           font-size="12"
           text-anchor="middle"
           x="19.5"
           y="34"
           id="text1165">PSL</text>
      </g>
    </g>
    <g
       id="fln_psl">
      <use
         xlink:href="#algeria"
         x="7"
         y="5.5"
         id="use1170" />
      <g
         font-family="Dinish"
         font-weight="bold"
         text-anchor="middle"
         fill="#000"
         id="g1174">
        <text
           font-size="12"
           text-anchor="middle"
           x="19.5"
           y="34"
           id="text1172">PSL</text>
      </g>
    </g>
    <g
       id="fln_ap">
      <use
         xlink:href="#algeria"
         x="7"
         y="5.5"
         id="use1177" />
      <g
         font-family="Dinish"
         font-weight="bold"
         text-anchor="middle"
         fill="#000"
         id="g1181">
        <text
           font-size="12"
           text-anchor="middle"
           x="19.5"
           y="34"
           id="text1179">AP</text>
      </g>
    </g>
    <g
       id="gov_ctl">
      <use
         xlink:href="#france"
         x="7"
         y="5.5"
         id="use1184" />
      <g
         font-family="Dinish"
         font-weight="bold"
         text-anchor="middle"
         fill="#000"
         id="g1188">
        <text
           font-size="8"
           text-anchor="middle"
           x="19.5"
           y="34"
           id="text1186">CONTROL</text>
      </g>
    </g>
    <g
       id="fln_ctl">
      <use
         xlink:href="#algeria"
         x="7"
         y="5.5"
         id="use1191" />
      <g
         font-family="Dinish"
         font-weight="bold"
         text-anchor="middle"
         fill="#000"
         id="g1195">
        <text
           font-size="8"
           text-anchor="middle"
           x="19.5"
           y="34"
           id="text1193">CONTROL</text>
      </g>
    </g>
  </defs>
  <g
     id="g1543"
     sodipodi:insensitive="true"
     style="display:inline">
    <use
       xlink:href="#turn"
       x="0"
       y="0"
       id="use1200"
       width="100%"
       height="100%" />
    <use
       xlink:href="#fln_psl"
       x="39"
       y="0"
       id="use1202"
       width="100%"
       height="100%" />
    <use
       xlink:href="#fln_ap"
       x="78"
       y="0"
       id="use1204"
       width="100%"
       height="100%" />
    <use
       xlink:href="#gov_psl"
       x="117"
       y="0"
       id="use1206"
       width="100%"
       height="100%" />
    <use
       xlink:href="#fln_ctl"
       x="156"
       y="0"
       id="use1208"
       width="100%"
       height="100%" />
    <use
       xlink:href="#gov_ctl"
       x="195"
       y="0"
       id="use1210"
       width="100%"
       height="100%" />
    <use
       xlink:href="#oas"
       x="234"
       y="0"
       id="use1212"
       width="100%"
       height="100%" />
    <use
       xlink:href="#remote"
       x="273"
       y="0"
       id="use1214"
       width="100%"
       height="100%" />
    <use
       xlink:href="#terror"
       x="312"
       y="0"
       id="use1216"
       width="100%"
       height="100%" />
    <use
       xlink:href="#air_avail"
       x="0"
       y="39"
       id="use1218"
       width="100%"
       height="100%" />
    <use
       xlink:href="#air_max"
       x="39"
       y="39"
       id="use1220"
       width="100%"
       height="100%" />
    <use
       xlink:href="#helo_avail"
       x="78"
       y="39"
       id="use1222"
       width="100%"
       height="100%" />
    <use
       xlink:href="#helo_max"
       x="117"
       y="39"
       id="use1224"
       width="100%"
       height="100%" />
    <use
       xlink:href="#naval_pts"
       x="156"
       y="39"
       id="use1226"
       width="100%"
       height="100%" />
    <use
       xlink:href="#bz1"
       x="195"
       y="39"
       id="use1228"
       width="100%"
       height="100%" />
    <use
       xlink:href="#bz2"
       x="234"
       y="39"
       id="use1230"
       width="100%"
       height="100%" />
    <use
       xlink:href="#inf_25"
       x="0"
       y="78"
       id="use1232"
       width="100%"
       height="100%" />
    <use
       xlink:href="#inf_25"
       x="39"
       y="78"
       id="use1234"
       width="100%"
       height="100%" />
    <use
       xlink:href="#inf_25"
       x="78"
       y="78"
       id="use1236"
       width="100%"
       height="100%" />
    <use
       xlink:href="#inf_25"
       x="117"
       y="78"
       id="use1238"
       width="100%"
       height="100%" />
    <use
       xlink:href="#inf_25"
       x="156"
       y="78"
       id="use1240"
       width="100%"
       height="100%" />
    <use
       xlink:href="#inf_25"
       x="195"
       y="78"
       id="use1242"
       width="100%"
       height="100%" />
    <use
       xlink:href="#inf_25"
       x="234"
       y="78"
       id="use1244"
       width="100%"
       height="100%" />
    <use
       xlink:href="#inf_25"
       x="273"
       y="78"
       id="use1246"
       width="100%"
       height="100%" />
    <use
       xlink:href="#inf_25"
       x="312"
       y="78"
       id="use1248"
       width="100%"
       height="100%" />
    <use
       xlink:href="#inf_25"
       x="351"
       y="78"
       id="use1250"
       width="100%"
       height="100%" />
    <use
       xlink:href="#tri_25"
       x="0"
       y="117"
       id="use1252"
       width="100%"
       height="100%" />
    <use
       xlink:href="#arm_25"
       x="39"
       y="117"
       id="use1254"
       width="100%"
       height="100%" />
    <use
       xlink:href="#rec_25"
       x="78"
       y="117"
       id="use1256"
       width="100%"
       height="100%" />
    <use
       xlink:href="#blank_12"
       x="117"
       y="117"
       id="use1258"
       width="100%"
       height="100%" />
    <use
       xlink:href="#inf_6"
       x="156"
       y="117"
       id="use1260"
       width="100%"
       height="100%" />
    <use
       xlink:href="#helo_6"
       x="195"
       y="117"
       id="use1262"
       width="100%"
       height="100%" />
    <use
       xlink:href="#inf_9"
       x="0"
       y="156"
       id="use1264"
       width="100%"
       height="100%" />
    <use
       xlink:href="#inf_9"
       x="39"
       y="156"
       id="use1266"
       width="100%"
       height="100%" />
    <use
       xlink:href="#inf_9"
       x="78"
       y="156"
       id="use1268"
       width="100%"
       height="100%" />
    <use
       xlink:href="#helo_9"
       x="117"
       y="156"
       id="use1270"
       width="100%"
       height="100%" />
    <use
       xlink:href="#inf_5"
       x="156"
       y="156"
       id="use1272"
       width="100%"
       height="100%" />
    <use
       xlink:href="#helo_5"
       x="195"
       y="156"
       id="use1274"
       width="100%"
       height="100%" />
    <use
       xlink:href="#police"
       x="234"
       y="156"
       id="use1276"
       width="100%"
       height="100%" />
    <use
       xlink:href="#failek"
       x="0"
       y="195"
       id="use1278"
       width="100%"
       height="100%" />
    <use
       xlink:href="#band"
       x="39"
       y="195"
       id="use1280"
       width="100%"
       height="100%" />
    <use
       xlink:href="#cadre"
       x="78"
       y="195"
       id="use1282"
       width="100%"
       height="100%" />
    <use
       xlink:href="#front"
       x="117"
       y="195"
       id="use1284"
       width="100%"
       height="100%" />
  </g>
  <g
     id="g1498"
     transform="translate(-48.008946,-16.0594)"
     style="display:inline">
    <path
       id="path2687"
       style="clip-rule:evenodd;display:inline;fill:#000000;fill-opacity:1;fill-rule:evenodd;stroke-width:0.346667;stroke-linejoin:round;stroke-miterlimit:2"
       d="m 134.54297,197.04688 c -0.23886,0.003 -0.45952,0.12814 -0.58399,0.33203 l -1.52734,2.49218 c -0.0209,0.0342 -0.0416,0.14079 -0.0703,0.24414 l -0.0195,-0.0117 c -0.28088,-0.0728 -0.58201,0.0269 -0.74805,0.27343 l -3.19922,4.75196 c -0.17552,0.26067 -0.15211,0.60514 0.0547,0.84179 l 4.6875,5.36914 -0.86914,5.0586 c -0.0729,0.42366 0.25371,0.81053 0.68359,0.81054 h 7.22656 c 0.40113,-1e-4 0.71831,-0.34 0.69141,-0.74023 l -0.3125,-4.68555 1.50586,-1.91797 c 0.0745,-0.0947 0.12478,-0.20706 0.14258,-0.32617 l 0.42578,-2.85937 c 0.0355,-0.23882 -0.0494,-0.44441 -0.19336,-0.58789 l 1.0332,-0.92188 c 0.29918,-0.26573 0.31192,-0.72859 0.0274,-1.00976 l -1.20899,-1.19727 c -0.0991,-0.0978 -0.22142,-0.14571 -0.34765,-0.17187 0.0304,-0.0931 0.0649,-0.18201 0.0762,-0.32813 -2.8e-4,-0.0851 -0.0223,-0.16746 -0.10547,-0.24219 l -1.77539,-1.33398 c -0.0916,-0.0726 -0.19768,-0.10892 -0.30469,-0.12891 0.13261,-0.32206 0.0208,-0.70038 -0.29883,-0.87109 l -1.99023,-1.06445 c -0.12009,-0.0642 -0.25002,-0.0779 -0.37695,-0.0684 -0.0507,-0.15391 -0.15363,-0.28521 -0.29102,-0.3711 l -1.95703,-1.23047 c -0.11235,-0.0703 -0.24249,-0.10687 -0.375,-0.10546 z"
       transform="translate(47.659249,16.89737)"
       sodipodi:nodetypes="sccccccccccccccccccccccccccccccss" />
    <path
       id="path6"
       style="clip-rule:evenodd;display:inline;fill:#ffffff;fill-rule:evenodd;stroke-width:0.346667;stroke-linejoin:round;stroke-miterlimit:2"
       d="m 134.55078,197.70312 -0.006,0.002 h -0.006 l -0.006,0.002 -0.006,0.004 -0.006,0.004 -0.002,0.006 0.0312,0.0195 0.0215,-0.0312 -0.006,-0.002 -0.008,-0.002 z m 0,0.0371 -1.5293,2.49219 2.09766,0.96485 1.38672,-2.22852 z m 2.66602,1.65821 -0.006,0.002 h -0.006 l -0.006,0.002 -0.006,0.004 -0.006,0.004 -0.004,0.006 0.0312,0.0195 0.0195,-0.0332 -0.004,-0.002 h -0.006 z m -0.002,0.0371 -1.3125,2.16015 1.59961,0.79688 -0.10937,0.86523 1.81445,-2.75976 z m -5.04882,1.29101 -0.008,0.002 -0.006,0.002 -0.006,0.004 -0.006,0.004 -0.002,0.006 0.0293,0.0195 0.0156,-0.0332 -0.0117,-0.004 z m 0.002,0.0371 -3.19727,4.75195 4.9043,5.61524 -0.92383,5.38476 h 7.22656 l -0.33203,-4.95117 1.67188,-2.12695 0.42578,-2.85938 -1.91797,1.59571 -1.59961,-1.42774 -2.91601,-0.69921 2.8457,4.45312 0.63867,0.4668 -1.03125,0.0312 -0.32031,1.16406 -0.42774,-1.16406 -1.06445,0.16797 1.17188,-1.0293 -2.77149,-4.28906 -2.16797,-0.73047 0.78125,-0.69727 -0.21289,-1.16211 h 0.46094 l 0.71094,0.9961 1.59961,-0.0664 0.85351,-0.46484 0.10742,-1.06446 z m 7.52734,0.62891 -0.006,0.002 -0.006,0.004 -0.006,0.004 -0.004,0.006 0.0312,0.0215 0.0234,-0.0312 -0.006,-0.004 -0.008,-0.002 h -0.006 -0.006 z m 0.01,0.0371 -2.84375,3.98633 1.70508,0.63086 2.80859,-3.32227 h -0.0352 z m 2.09765,1.98828 -0.006,0.002 h -0.008 l -0.006,0.004 -0.004,0.004 -0.006,0.004 0.0293,0.0234 0.0274,-0.0254 -0.002,-0.002 -0.006,-0.004 -0.006,-0.004 h -0.008 z m 0,0.0371 -2.63085,3.05859 0.8164,0.83008 3.02149,-2.69336 z m -5.15429,1.16406 -1.70703,0.49805 0.88867,0.36719 z"
       transform="translate(47.659249,16.89737)" />
  </g>
  <!--

<use xlink:href="#inf_25" x="0" y="39"/>
<use xlink:href="#arm_25" x="0" y="78"/>
<use xlink:href="#tri_25" x="0" y="117"/>
<use xlink:href="#rec_25" x="0" y="156"/>
<use xlink:href="#police" x="0" y="195"/>
<use xlink:href="#front" x="0" y="234"/>

<use xlink:href="#blank_12" x="39" y="39"/>
<use xlink:href="#inf_6" x="39" y="78"/>
<use xlink:href="#inf_9" x="39" y="117"/>
<use xlink:href="#inf_5" x="39" y="156"/>

<use xlink:href="#helo_5" x="39" y="0"/>
<use xlink:href="#helo_6" x="78" y="0"/>
<use xlink:href="#helo_9" x="117" y="0"/>

<use xlink:href="#cadre" x="117" y="39"/>
<use xlink:href="#band" x="117" y="78"/>
<use xlink:href="#failek" x="117" y="117"/>
<use xlink:href="#front" x="117" y="156"/>

<use xlink:href="#bz1" x="156" y="117"/>
<use xlink:href="#bz2" x="156" y="156"/>

<use xlink:href="#naval_pts" x="195" y="117"/>
<use xlink:href="#helo_avail" x="195" y="156"/>
<use xlink:href="#helo_max" x="195" y="195"/>
<use xlink:href="#air_avail" x="195" y="234"/>
<use xlink:href="#air_max" x="195" y="273"/>

<use xlink:href="#remote" x="234" y="273"/>
<use xlink:href="#terror" x="273" y="312"/>
-->
  <g
     id="g489"
     style="display:inline">
    <path
       d="m 107.27181,209.73019 h -1.47565 a 0.12884975,0.14057673 0 1 0 0,0.28115 h 1.47565 a 0.12884975,0.14057673 0 1 0 0,-0.28115 z m -1.69331,-1.97706 1.05604,-1.21103 a 0.12928295,0.14104936 0 0 0 -0.1898,-0.19092 l -1.05559,1.21151 a 0.12884765,0.14057444 0 1 0 0.18935,0.19044 z m -0.0413,4.23527 a 0.12928295,0.14104936 0 0 0 -0.22375,0.0955 c 0,0.0337 0.0113,0.0679 0.0344,0.0949 l 1.09694,1.21149 a 0.12928295,0.14104936 0 0 0 0.1898,-0.19043 z"
       style="fill-rule:nonzero;stroke-width:0.454674"
       id="path36" />
    <path
       d="m 104.01536,206.29656 c 0.15018,0 0.5119,0.11206 0.51234,0.34575 v 6.62789 c 0,0.23413 -0.36216,0.34574 -0.51191,0.34574 -0.15018,0 -1.3529,-1.99797 -2.49163,-2.21548 -0.75437,-0.14437 -1.57142,-0.21608 -2.27007,-0.24838 l 0.714321,3.56281 c -0.01042,0.0959 -0.06312,0.18237 -0.157577,0.18237 h -1.176169 c -0.217649,0 -0.268579,-0.15387 -0.223743,-0.57656 l -0.775698,-3.19094 h -1.670667 c -0.535848,0 -0.969839,-0.37992 -0.969839,-0.8482 v -0.65062 c 0,-0.46826 0.433991,-0.8482 0.969405,-0.8482 h 2.33928 c 0.800946,0 2.082027,-0.0532 3.220757,-0.2707 1.13873,-0.21751 2.34103,-2.21548 2.4912,-2.21548 z m -0.41832,1.61092 c -0.0932,0 -0.84143,1.13361 -1.54965,1.25709 -0.70823,0.12302 -1.00946,0.1534 -1.00946,0.1534 -0.333,0 -0.333,1.33166 0,1.33166 0,0 0.54021,0.0718 1.00989,0.15339 0.70823,0.12343 1.45606,1.2571 1.54966,1.2571 0.0932,0 0.21851,-0.0632 0.21851,-0.19613 v -3.76038 c -4.3e-4,-0.13247 -0.12579,-0.19613 -0.21895,-0.19613 z"
       id="path38"
       style="stroke-width:0.454674" />
    <path
       d="m 101.01696,176.18858 v -8.94681 m -1.320665,1.07361 h 2.641325 m -5.61281,6.08384 c 0.623792,0.59646 1.870935,1.78936 4.29215,1.78936 2.4212,0 3.66834,-1.1929 4.29213,-1.78936"
       style="fill:none;stroke:#000000;stroke-width:0.916639px;stroke-linecap:round;stroke-linejoin:miter;stroke-miterlimit:1.5"
       id="path100" />
    <path
       d="m 23.05325,176.9304 c 0.57142,-0.35785 1.713823,-1.07353 2.611207,-1.07353 0.897821,0 2.149023,0.71568 2.774407,1.07353 m -10.771228,0 c 0.571419,-0.35785 1.713822,-1.07353 2.611207,-1.07353 0.897821,0 2.149023,0.71568 2.774407,1.07353"
       style="fill:none;stroke:#000000;stroke-width:0.911362px;stroke-linecap:round;stroke-linejoin:miter;stroke-miterlimit:1.5"
       id="path118" />
    <path
       d="m 20.669393,138.46834 2.29026,-2.53326 2.404859,2.53326 z"
       id="path176"
       style="stroke-width:0.456853" />
    <path
       d="m 20.669393,138.46834 2.29026,-2.53326 2.404859,2.53326 z m 2.09124,-0.95432 h 0.438718 l -0.224826,-0.23668 z"
       id="path178"
       style="stroke-width:0.456853" />
    <path
       id="path360"
       style="fill-rule:nonzero;stroke:#000000;stroke-width:0.0381333px;stroke-linejoin:miter;stroke-miterlimit:4"
       d="m 174.72832,53.74 c 0,0.482907 0,0.965814 0,1.448721 -0.0745,-0.01539 -0.15319,0.0344 -0.1352,0.11701 -0.004,0.03952 -0.079,0.0082 -0.11264,0.01819 -0.0596,-0.01517 -0.0726,0.01621 -0.0628,0.0704 0,0.05985 0,0.119697 0,0.179546 0.0589,-0.01496 0.024,0.06393 0.0333,0.09856 0.0229,0.0644 -0.0875,-0.0046 -0.0666,0.05787 0,0.08028 0,0.160569 0,0.240853 0.0549,-0.01156 0.0804,0.0063 0.0666,0.06336 0.0124,0.055 -0.008,0.07774 -0.0634,0.06456 -0.0391,0.0053 -0.1105,-0.02173 -0.0909,0.04224 0,0.09142 0,0.182845 0,0.274267 0.0435,-1.1e-4 0.10115,-0.01443 0.0808,0.04928 0,0.123049 0,0.246098 0,0.369147 -0.0518,0 -0.10354,0 -0.15531,0 -0.009,0.03411 0.0182,0.104354 -0.0141,0.115093 -0.26051,0 -0.52101,0 -0.78152,0 0.0305,0.01374 0.0864,0.002 0.12672,0.0059 0.22296,0 0.44592,0 0.66888,0 0,0.24544 0,0.49088 0,0.73632 -0.10793,0 -0.21586,0 -0.32379,0 0.0379,0.01052 0.0954,0.0015 0.1408,0.0045 0.061,0 0.12199,0 0.18299,0 0,0.05859 0,0.117173 0,0.17576 -0.11105,0 -0.2221,0 -0.33315,0 0.005,-0.03804 -0.0209,-0.106157 0.0422,-0.08563 0.0937,0 0.18747,0 0.2812,0 -0.0379,-0.01052 -0.0954,-0.0015 -0.1408,-0.0045 -0.0609,0 -0.12176,0 -0.18264,0 0.002,-0.02893 -0.002,-0.134363 -0.005,-0.05493 -5.4e-4,0.05887 0.003,0.121444 -0.005,0.173227 0.007,0.03529 0.0796,0.0059 0.11264,0.01552 0.0767,0 0.15347,0 0.23021,0 0,0.05489 0,0.109778 0,0.164667 -0.0298,0.0028 -0.11152,-0.006 -0.10944,0.0049 0.0329,0.01063 0.11045,-0.02341 0.10944,0.02112 0.0125,0.05502 -0.008,0.07722 -0.0634,0.06416 -0.0596,0.01528 -0.0721,-0.01644 -0.0625,-0.0704 -0.007,-0.04832 -0.005,0.06352 -0.005,0.08587 0.001,0.04649 -0.001,0.08918 -0.002,0.133946 0.0443,0 0.0885,0 0.13277,0 0,0.04229 0,0.08459 0,0.12688 -0.0247,0.0016 -0.12678,-0.0041 -0.0975,0.0049 0.0356,0.0087 0.11371,-0.02521 0.0975,0.0352 0.0203,0.06285 -0.0337,0.05135 -0.0774,0.05008 -0.0634,0.02072 -0.0398,-0.04558 -0.0436,-0.08448 -0.011,0.0056 -0.002,0.0813 -0.005,0.11403 -0.005,0.03854 0.0212,0.108044 -0.0422,0.08797 -0.0344,0.03943 0.0549,0.02508 0.0839,0.02704 0.0438,6.87e-4 0.10449,-0.01548 0.0842,0.04928 0,0.257787 0,0.515573 0,0.77336 -0.20396,0 -0.40791,0 -0.61187,0 0.009,-0.07279 -0.11675,-0.09636 -0.0195,-0.137703 0.0547,-0.04134 0.10936,-0.08268 0.16404,-0.124027 -0.0683,-0.05543 -0.17474,0.108091 -0.25918,0.127943 -0.0843,0.01113 -0.21902,-0.04875 -0.28757,-0.0061 0.0157,0.05987 -0.0225,0.06418 -0.072,0.057 -0.0477,0 -0.0954,0 -0.14315,0 -3.6e-4,0.04368 0.015,0.103127 -0.0493,0.08285 -0.34596,0 -0.69191,0 -1.03787,0 0,-0.16744 0,-0.33488 0,-0.50232 -0.12723,0 -0.25445,0 -0.38168,0 0,-0.282533 0,-0.565067 0,-0.8476 0.12723,0 0.25445,0 0.38168,0 0,-0.05108 0,-0.102151 0,-0.153227 -0.051,0 -0.10192,0 -0.15288,0 -0.009,-0.03476 0.0251,-0.111649 -0.0352,-0.09464 -0.0561,-0.01422 -0.0216,0.0622 -0.031,0.09464 -0.0542,0 -0.10839,0 -0.16259,0 0,-0.07939 0,-0.158773 0,-0.23816 0.0318,-0.0097 0.10758,0.02462 0.096,-0.02843 -0.0477,0 -0.0954,0 -0.14317,0 0,-0.139938 0,-0.279875 0,-0.419813 0.073,0 0.14606,0 0.21909,0 -0.005,-0.03901 0.01,-0.09724 -0.007,-0.124453 -0.0707,0 -0.14137,0 -0.21205,0 -0.0248,-0.081 0.0435,-0.104761 0.0662,-0.16824 -0.008,-0.06993 0.0285,-0.165421 -0.0524,-0.203519 -0.0691,-0.03637 -0.14875,-0.02599 -0.22385,-0.02761 0,-0.712169 0,-1.424338 0,-2.136507 -0.0547,-0.01235 -0.0177,0.06696 -0.0284,0.09856 0,0.634596 0,1.269191 0,1.903787 -0.0478,0 -0.0957,0 -0.14352,0 0,0.04472 0,0.08944 0,0.13416 -0.0799,-0.0017 -0.20348,0.0037 -0.21806,0.10168 0.008,0.06744 -0.0265,0.156994 0.0446,0.198781 0.0438,0.0016 0.0523,0.119966 -0.004,0.0989 -0.22019,0 -0.44037,0 -0.66056,0 0.005,0.03901 -0.01,0.09724 0.007,0.124453 0.22645,0 0.45291,0 0.67936,0 0,0.139938 0,0.279875 0,0.419813 -0.13012,0 -0.26023,0 -0.39035,0 -0.061,-0.05462 -0.11937,-0.114341 -0.18107,-0.166224 -0.0816,-0.0193 -0.1739,-3.93e-4 -0.2321,0.0624 -0.11984,0.09813 -0.23968,0.19626 -0.35952,0.29439 -0.0778,0.06089 -0.007,0.135519 0.0521,0.171609 0.16671,0.13485 0.33343,0.269701 0.50015,0.404551 0,0.214587 0,0.429173 0,0.64376 -0.17148,0 -0.34297,0 -0.51445,0 0,-0.08886 0,-0.177725 0,-0.266587 0.0409,-0.003 0.009,-0.07882 0.0191,-0.11264 0.0204,-0.06284 -0.0338,-0.05114 -0.0774,-0.04995 -0.0852,0 -0.17047,0 -0.2557,0 0,-0.139822 0,-0.279645 0,-0.419467 -0.0625,-0.01894 -0.0325,0.05467 -0.0392,0.09152 0,0.109316 0,0.218631 0,0.327947 -0.1162,0.0033 -0.24889,-0.0054 -0.34554,0.06821 -0.0143,0.09048 -0.002,0.185571 -0.006,0.277896 0,0.147404 0,0.294809 0,0.442213 -0.13994,0 -0.27988,0 -0.41982,0 -0.0104,-0.03372 0.023,-0.111319 -0.0211,-0.11128 -0.32333,0 -0.64667,0 -0.97,0 -0.0104,0.03372 0.0231,0.111319 -0.0211,0.11128 -0.0439,0 -0.0878,0 -0.13176,0 0,0.135547 0,0.271093 0,0.40664 -0.15808,4.67e-4 -0.31616,9.33e-4 -0.47424,0.0014 -0.009,-0.03411 0.0182,-0.104354 -0.0141,-0.115093 -0.32568,0 -0.65136,0 -0.97704,0 -0.008,0.03585 0.0174,0.10579 -0.0141,0.118607 -0.58603,0.002 -1.17205,0.0039 -1.75808,0.0059 -0.0338,0.107761 0.0108,0.264557 -0.11239,0.325168 -0.12673,0.04938 -0.26449,0.01483 -0.39689,0.02358 -1.82067,0 -3.64135,0 -5.46202,0 0.01,0.23422 0.008,0.469227 0.0264,0.702891 0.0108,0.126242 0.0854,0.265569 0.22325,0.282285 0.18673,0.01223 0.37474,0.0027 0.562,0.0059 10.96597,0.0063 21.93195,0.01252 32.89792,0.01878 0.013,-0.428797 0.17316,-0.840153 0.40311,-1.198226 0.0516,-0.104268 0.18385,-0.249688 0.18855,-0.32599 -1.13374,0.03685 -2.26569,0.113921 -3.39845,0.171962 -0.42734,0.02314 -0.85471,0.04566 -1.28214,0.06716 0,-0.04703 0,-0.09406 0,-0.141094 -0.0347,0.0085 -0.11162,-0.02509 -0.0946,0.0352 -0.0105,0.03393 0.0231,0.110061 -0.0211,0.111661 -0.12639,0.0039 -0.25524,3.84e-4 -0.38314,0.0016 0,-0.04472 0,-0.08944 0,-0.13416 -0.0296,0.01468 -0.005,0.08332 -0.0132,0.11968 -0.009,0.0336 -0.0797,0.005 -0.11264,0.01448 -0.0472,0.0045 -0.0115,-0.07396 -0.0226,-0.1056 -0.003,-0.06983 -0.0446,0.0033 -0.027,0.04184 0.0127,0.05504 -0.008,0.0767 -0.0634,0.06376 -0.0868,0 -0.17361,0 -0.26042,0 -6e-4,0.09118 -0.16782,0.0232 -0.23477,0.05091 -0.74753,0.03179 -1.49512,0.06683 -2.2431,0.08429 -0.20538,0 -0.41075,0 -0.61613,0 0.0194,-0.06302 -0.0308,-0.05643 -0.0774,-0.05339 -0.63933,0 -1.27865,0 -1.91798,0 0.0194,0.06302 -0.0308,0.05643 -0.0774,0.05339 -0.0931,0 -0.18619,0 -0.27928,0 0,-0.04507 0,-0.09013 0,-0.1352 -0.13046,0 -0.26092,0 -0.39138,0 0,0.04507 0,0.09013 0,0.1352 -0.0543,-0.01099 -0.0814,0.0053 -0.0673,0.06275 -0.34667,-4e-6 -0.69335,-0.0017 -1.04,-0.0059 -0.006,-0.108276 -0.0125,-0.216551 -0.0187,-0.324827 -0.19321,8e-4 -0.38641,0.0016 -0.57962,0.0024 0,-0.136033 0,-0.272065 0,-0.408098 -0.66515,0 -1.33031,0 -1.99546,0 0,0.137973 0,0.275947 0,0.41392 -0.28091,0.0012 -0.56183,0.0023 -0.84274,0.0035 0,-0.386533 0,-0.773067 0,-1.1596 -0.35961,0 -0.71922,0 -1.07883,0 -1.9e-4,-0.04343 -0.0143,-0.100794 0.0493,-0.08043 0.34792,0 0.69584,0 1.04376,0 0.0771,-0.01028 0.0477,-0.09938 0.0534,-0.15299 -0.002,-0.126054 0.004,-0.252886 -0.003,-0.378432 -0.0311,-0.03179 0.13055,-0.0037 0.057,-0.02811 -0.0383,-0.0054 -0.12191,0.02065 -0.10684,-0.0425 -0.005,-0.03897 -0.0791,-0.0079 -0.11264,-0.01784 -0.10239,0 -0.20478,0 -0.30717,0 0.006,-0.05562 0.008,-0.149075 -0.0735,-0.1352 -0.10272,0.0021 -0.20616,-0.0043 -0.30842,0.0032 -0.0576,0.03253 -0.0264,0.107542 -0.0345,0.160118 0.006,0.04996 -0.0729,0.01403 -0.1056,0.02488 -0.0505,0 -0.10109,0 -0.15163,0 0,-0.402249 0,-0.804497 0,-1.206746 0.0479,-0.0049 0.085,9.86e-4 0.10882,0.02011 0.0584,0.01546 0.0605,-0.02544 0.10882,-0.02011 0.1388,0 0.2776,0 0.4164,0 -0.0305,-0.01374 -0.0864,-0.002 -0.12672,-0.0059 -0.11064,0 -0.22128,0 -0.33192,0 0.005,-0.03848 -0.0212,-0.107828 0.0422,-0.08771 0.0393,-0.0043 0.008,-0.07906 0.0181,-0.11264 -0.0268,-0.01522 -0.0834,-5.91e-4 -0.0603,-0.06571 -0.001,-0.04146 -0.01,-0.07536 -0.006,-0.12176 0.0126,-0.05504 -0.008,-0.07687 -0.0634,-0.06389 -0.0598,-0.01678 -0.0666,0.01943 -0.0587,0.0704 0.006,0.03769 -0.0223,0.109639 0.0402,0.0908 1.2e-4,0.04347 0.0144,0.101119 -0.0493,0.08077 -0.16338,0 -0.32676,0 -0.49014,0 0,-0.07869 0,-0.157387 0,-0.23608 0.0385,-0.0048 0.10782,0.02119 0.0877,-0.04224 0,-0.09142 0,-0.182845 0,-0.274267 -0.0562,0 -0.11232,0 -0.16848,0 0,-0.04264 0,-0.08528 0,-0.12792 0.0428,0 0.0855,0 0.12827,0 0,-0.08967 0,-0.179342 0,-0.269013 -0.0428,0 -0.0855,0 -0.12827,0 0,-0.04276 0,-0.08551 0,-0.128267 0.0644,0.02042 0.0458,-0.04218 0.0475,-0.08448 0,-0.05516 0,-0.110311 0,-0.165466 -0.0676,0 -0.1352,0 -0.2028,0 0.0226,-0.07707 -0.0512,-0.119546 -0.0804,-0.15632 0,-0.475863 0,-0.951725 0,-1.427588 z m -2.23219,5.763681 c 0.13705,-0.0047 0.2741,-0.0095 0.41115,-0.01421 0.0209,-0.07314 -0.11851,-0.105439 -0.0328,-0.14342 0.0584,-0.04417 0.11685,-0.08835 0.17528,-0.13252 -0.0687,-0.05545 -0.17485,0.107998 -0.25948,0.127944 -0.0844,0.01113 -0.21882,-0.04874 -0.2877,-0.0061 -0.002,0.05609 -0.004,0.112182 -0.006,0.168273 z m -1.34333,-4.602 c -0.0229,0.04463 0.0798,0.04516 0.0568,0 -0.0189,0 -0.0379,0 -0.0568,0 z m 2.7931,1.70352 c 0,0.06725 0,0.134507 0,0.20176 0.13705,0 0.27409,0 0.41114,0 0,-0.06725 0,-0.134507 0,-0.20176 -0.13705,0 -0.27409,0 -0.41114,0 z m 1.10482,0.16848 c 0.17981,0 0.35961,0 0.53942,0 -0.005,0.03848 0.0212,0.107828 -0.0422,0.08771 -0.0578,0.01475 -0.0388,-0.04729 -0.10178,-0.02739 -0.1318,0 -0.26359,0 -0.39539,0 0,-0.02011 -1e-5,-0.04021 -1e-5,-0.06032 z m 0.51931,0.181306 c 0,0.08343 0,0.166863 0,0.250294 0.0474,0 0.0948,0 0.14213,0 0,-0.08343 0,-0.166863 0,-0.250294 -0.0474,0 -0.0948,0 -0.14213,0 z m -1.47368,1.21992 c 0.0396,0.0047 0.098,-0.0094 0.12584,0.007 -0.009,0.03483 0.0251,0.111815 -0.0352,0.09488 -0.0391,-0.0052 -0.11027,0.02168 -0.0906,-0.04224 0,-0.01989 0,-0.03979 0,-0.05968 z m 2.57955,0.155307 c 0,0.126071 0,0.252142 0,0.378213 0.0898,0 0.17957,0 0.26936,0 0,-0.126071 0,-0.252142 0,-0.378213 -0.0898,0 -0.17957,0 -0.26936,0 z m -2.5747,0.21112 c 0.0375,0.0052 0.0954,-0.01004 0.12099,0.007 -0.0112,0.03106 0.0243,0.108767 -0.0211,0.105627 -0.032,-0.01068 -0.11147,0.02612 -0.0999,-0.02816 0,-0.02817 0,-0.05634 0,-0.08451 z m 3.0063,0.35568 c 0.004,0.177378 0.009,0.354755 0.0132,0.532133 0.6993,-9.62e-4 1.39873,0.0019 2.09795,-0.0014 0.0434,-0.0027 0.10796,0.005 0.0527,-0.04661 0.0215,-0.0026 -0.0361,-0.09353 0.0205,-0.08019 0.0472,-0.0023 0.0945,-0.0046 0.14174,-0.0069 -0.0212,-0.05663 0.0626,-0.02074 0.0946,-0.0305 0.4244,0.0015 0.8488,0.003 1.2732,0.0045 0.006,-0.04316 0.031,-0.101565 -0.0365,-0.08273 -0.44938,-0.0084 -0.89876,-0.01672 -1.34814,-0.02508 0.001,-0.05237 -0.0741,-0.01929 -0.10955,-0.03078 -0.0578,0.0079 -0.0859,-0.0054 -0.102,-0.05685 -0.0774,0.01006 -0.12944,0.01241 -0.17862,-0.03688 -0.37751,-0.04319 -0.75462,-0.0925 -1.13237,-0.131859 -0.26225,-0.0023 -0.52449,-0.0046 -0.78674,-0.0068 z m -8.34809,0.0094 c -0.0372,0.01951 -0.0863,0.02799 -0.11628,0.05417 -0.0138,0.02096 -0.027,0.131083 -0.0413,0.06969 -0.0266,-0.0211 -0.0838,0.0072 -0.12222,0.0053 -0.15855,0.01783 -0.31606,0.05179 -0.47636,0.04278 -0.0468,0 -0.0935,0 -0.14024,0 -0.005,0.05578 -0.0606,0.04272 -0.10128,0.04434 -0.32504,0.0042 -0.65008,0.0084 -0.97512,0.01254 -0.007,0.06315 0.0511,0.04663 0.0945,0.04801 0.29228,0.0018 0.58455,0.0036 0.87683,0.0054 -0.0281,0.05847 -0.0561,0.116942 -0.0842,0.175413 0.34932,0 0.69865,0 1.04797,0 -0.041,-0.05934 0.0164,-0.0488 0.0608,-0.04749 0.0134,-0.03074 0.002,-0.08638 0.006,-0.12672 0.0106,-0.0327 -0.026,-0.11099 0.0281,-0.101699 0.0191,-0.01784 -0.0253,-0.07806 -0.031,-0.112444 -0.009,-0.02309 -0.0173,-0.04618 -0.026,-0.06927 z m -1.61824,0.404213 c -0.0372,0.01951 -0.0863,0.02799 -0.11628,0.05417 -0.0138,0.02096 -0.027,0.131083 -0.0413,0.06969 -0.0266,-0.02109 -0.0838,0.0072 -0.12222,0.0053 -0.15844,0.01783 -0.31583,0.0518 -0.47601,0.04277 -0.0469,0 -0.0937,0 -0.14059,0 -0.005,0.05578 -0.0607,0.04272 -0.10128,0.04434 -0.32504,0.0042 -0.65008,0.0084 -0.97512,0.01254 -0.007,0.06315 0.0511,0.04663 0.0945,0.04801 0.29228,0.0018 0.58455,0.0036 0.87683,0.0054 -0.0281,0.05847 -0.0561,0.116942 -0.0842,0.175413 0.34932,0 0.69865,0 1.04797,0 -0.041,-0.05934 0.0164,-0.0488 0.0608,-0.04749 0.0134,-0.03074 0.002,-0.08638 0.006,-0.12672 0.0106,-0.0327 -0.026,-0.11099 0.0281,-0.101698 0.0191,-0.01784 -0.0253,-0.07806 -0.031,-0.112444 -0.009,-0.02309 -0.0173,-0.04618 -0.026,-0.06927 z m 14.41545,0.206267 c 0.004,0.177493 0.009,0.354987 0.0132,0.53248 0.6993,-10e-4 1.39874,0.002 2.09794,-0.0015 0.0434,-0.0029 0.108,0.0046 0.0526,-0.04684 0.0217,-0.0024 -0.0355,-0.09345 0.0211,-0.07993 0.0471,-0.0023 0.0943,-0.0046 0.14139,-0.0069 -0.0212,-0.05662 0.0626,-0.02076 0.0946,-0.03053 0.4244,0.0014 0.8488,0.0028 1.2732,0.0042 0.007,-0.04309 0.0314,-0.101213 -0.0361,-0.0824 -0.4495,-0.0085 -0.89899,-0.01695 -1.34849,-0.02542 0.003,-0.05208 -0.0737,-0.01884 -0.10855,-0.03043 -0.0981,0.03148 -0.0807,-0.103244 -0.18508,-0.05277 -0.061,0.02741 -0.0687,-0.06709 -0.13738,-0.04626 -0.36341,-0.04143 -0.72642,-0.08895 -1.09007,-0.126563 -0.26277,-0.0024 -0.52553,-0.0047 -0.7883,-0.0071 z m 6.71354,0.364 c -1.2e-4,0.04347 -0.0144,0.101119 0.0493,0.08077 0.0315,-0.01077 0.11087,0.02627 0.0988,-0.02816 0.0196,-0.06298 -0.0315,-0.05523 -0.0774,-0.05261 -0.0235,0 -0.0471,0 -0.0706,0 z" />
    <path
       d="m 150.39821,54.768134 a 0.03882667,0.03882667 0 0 1 0.009,0.0038 0.03466667,0.03466667 0 0 1 0.004,0.05477 c -0.44928,0.417733 -1.97531,2.00616 -2.52027,1.98848 -3.55264,-0.117174 -7.10493,-0.238507 -10.65722,-0.364347 -0.9991,-0.03467 -2.28107,-0.176453 -3.43304,-0.187547 a 0.12306667,0.12306667 0 0 1 -0.0853,-0.03363 c -0.21632,-0.200374 -0.37891,-0.36296 -0.67184,-0.45552 a 23.4416,23.4416 0 0 0 -2.0755,-0.55536 c -0.0416,-0.0094 -0.0985,0.0076 -0.16986,0.05131 a 0.11197333,0.11197333 0 0 1 -0.0874,0.01387 c -0.15115,-0.03605 -0.20072,-0.137973 -0.14768,-0.305413 0.007,-0.02115 0.0218,-0.03189 0.0437,-0.03189 l 15.71648,-0.07731 c 0.0239,0 0.0406,-0.0104 0.0506,-0.03155 0.062,-0.12792 0.0617,-0.224987 -0.002,-0.291893 -0.0447,-0.0468 -0.13035,-0.07003 -0.25584,-0.06933 -5.19272,0.02115 -10.38544,0.04472 -15.57851,0.07141 a 0.10469333,0.10469333 0 0 1 -0.0766,-0.03189 L 130.324,54.380201 a 0.14733333,0.14733333 0 0 0 -0.096,-0.04368 c -0.20592,-0.01109 -0.38376,0.04645 -0.53387,0.17264 a 0.13589333,0.13589333 0 0 1 -0.0905,0.03293 l -9.84568,0.0364 c -0.0302,0 -0.0454,0.01525 -0.0454,0.04576 v 0.27352 a 0.078,0.078 0 0 0 0.078,0.07765 h 3.5e-4 l 9.78224,-0.03259 c 0.0302,0 0.0492,0.01491 0.0565,0.04472 l 0.0246,0.10608 a 0.11786667,0.11786667 0 0 1 -0.10608,0.143867 c -0.43576,0.02565 -0.8684,0.05027 -1.29792,0.07349 -0.55051,0.03051 -0.93635,0.132773 -1.07051,0.68848 -0.005,0.02184 -0.0187,0.03328 -0.0406,0.03467 l -2.8756,0.254106 c -0.0607,0.0052 -0.0898,0.03848 -0.0874,0.09915 0.0142,0.37024 -0.0704,0.591413 -0.46315,0.675653 -0.65346,0.139707 -1.30797,0.28808 -1.96352,0.445467 -0.67669,0.163973 -1.28301,1.070853 -1.55202,1.669893 -0.29848,0.663867 0.0804,1.19288 0.54773,1.633147 a 0.05234667,0.05234667 0 0 1 0.0111,0.06171 l -0.15288,0.306453 a 0.07904,0.07904 0 0 0 0.0704,0.11336 0.07418667,0.07418667 0 0 0 0.0298,-0.0062 c 0.92387,-0.389653 1.79296,-0.38792 2.98341,-0.31928 0.20003,0.01109 0.3848,0.06448 0.55467,0.159813 0.0333,0.01837 0.0433,0.04541 0.0309,0.08112 -0.14768,0.415654 -0.3016,1.459467 0.40179,1.350614 0.45864,-0.07141 0.63024,-0.329334 0.51515,-0.773067 -0.0458,-0.17472 -0.20558,-0.29952 -0.32656,-0.413573 -0.0759,-0.07107 -0.0628,-0.115094 0.0399,-0.13208 2.18678,-0.363307 4.37736,-0.166747 6.62688,-0.08736 0.0364,0.0014 0.0482,0.01907 0.0357,0.05373 -0.4576,1.308667 0.74013,1.865067 1.39707,0.75296 a 0.14906667,0.14906667 0 0 0 0.0208,-0.07627 v -0.741866 a 0.06725333,0.06725333 0 0 1 0.0714,-0.06483 c 2.03979,0.132773 4.48483,-0.78104 5.16637,-2.846827 a 0.05512,0.05512 0 0 1 0.0485,-0.03675 c 2.68216,-0.113014 5.35842,-0.227414 8.0281,-0.3432 0.58032,-0.02565 1.3156,0.9048 1.66192,1.308666 a 0.04992,0.04992 0 0 0 0.0853,-0.04472 2.58128,2.58128 0 0 1 -0.0128,-1.24904 c 0.008,-0.03432 0.0295,-0.05061 0.0645,-0.04853 0.28357,0.0156 0.57026,0.02219 0.85904,0.01872 0.5765,-0.0069 0.7481,-0.296747 1.09442,-0.791787 a 45.314187,45.314187 0 0 0 0.81259,-1.200506 0.07002667,0.07002667 0 0 1 0.12515,0.01768 c 0.13104,0.422933 0.28184,1.251466 0.57442,1.55376 a 0.04645333,0.04645333 0 0 0 0.0797,-0.03259 l -3.5e-4,-0.0059 -0.33939,-2.617334 a 0.08146667,0.08146667 0 0 1 0.0347,-0.08147 12.476533,12.476533 0 0 0 1.92989,-1.7472 c 0.0347,-0.03779 0.027,-0.06344 -0.0225,-0.07661 l -0.24509,-0.06448 a 0.10885333,0.10885333 0 0 0 -0.10643,0.026 57.783441,57.783441 0 0 1 -1.75899,1.504187 c -0.37128,0.304373 -0.51306,0.19032 -0.97725,0.03155 -0.42779,-0.14664 -1.28613,-0.5616 -1.70179,-0.53976 a 0.03293333,0.03293333 0 0 0 -0.0312,0.03293 c 0,0.01109 0.006,0.02184 0.0153,0.02773 a 7.9033067,7.9033067 0 0 0 1.9597,0.896827"
       style="fill-rule:nonzero;stroke:#000000;stroke-width:0.100533px;stroke-linejoin:miter;stroke-miterlimit:4"
       id="path370" />
    <path
       d="m 111.91856,54.488374 a 0.02946667,0.02946667 0 0 1 0.009,0.0038 c 0.0156,0.0097 0.0201,0.0312 0.0101,0.04715 a 0.04298667,0.04298667 0 0 1 -0.006,0.0076 c -0.44928,0.417386 -1.97531,2.00616 -2.51992,1.988133 -3.55299,-0.116827 -7.10528,-0.238507 -10.657576,-0.364 -0.999093,-0.03467 -2.281066,-0.1768 -3.43304,-0.187547 a 0.1248,0.1248 0 0 1 -0.08528,-0.03363 c -0.21632,-0.20072 -0.378906,-0.363307 -0.671493,-0.45552 a 23.41872,23.41872 0 0 0 -2.07584,-0.555707 c -0.0416,-0.0094 -0.09811,0.008 -0.16952,0.05165 a 0.11232,0.11232 0 0 1 -0.08736,0.01387 c -0.151493,-0.0364 -0.20072,-0.13832 -0.148027,-0.30576 0.0073,-0.02115 0.02184,-0.03155 0.04368,-0.03155 l 15.716476,-0.07731 a 0.05165333,0.05165333 0 0 0 0.0506,-0.03189 c 0.0624,-0.127573 0.0617,-0.224986 -0.002,-0.291546 -0.0451,-0.04715 -0.13034,-0.07037 -0.25618,-0.06968 -5.19238,0.02115 -10.385442,0.04507 -15.578509,0.07141 a 0.10504,0.10504 0 0 1 -0.07661,-0.03155 l -0.136934,-0.135893 a 0.14317333,0.14317333 0 0 0 -0.09603,-0.04368 c -0.20592,-0.01144 -0.38376,0.04611 -0.533867,0.17264 a 0.13485333,0.13485333 0 0 1 -0.09013,0.03259 l -9.845681,0.03675 c -0.03051,0 -0.04576,0.01525 -0.04576,0.04576 v 0.273174 a 0.07834667,0.07834667 0 0 0 0.078,0.078 h 3.47e-4 l 9.78224,-0.03293 c 0.03051,0 0.04923,0.01491 0.05651,0.04472 l 0.02496,0.10608 a 0.11752,0.11752 0 0 1 -0.106427,0.143867 c -0.43576,0.026 -0.8684,0.05027 -1.297573,0.07349 -0.550853,0.03085 -0.936693,0.13312 -1.070853,0.688827 -0.0052,0.02184 -0.01872,0.03328 -0.04056,0.03467 l -2.875254,0.25376 c -0.06101,0.0055 -0.09013,0.03848 -0.08736,0.09949 0.01387,0.369893 -0.07072,0.591067 -0.463493,0.675653 -0.653467,0.13936 -1.307974,0.28808 -1.96352,0.445467 -0.676694,0.163627 -1.283014,1.070507 -1.55168,1.669893 -0.298827,0.663867 0.08008,1.192534 0.547386,1.633147 a 0.052,0.052 0 0 1 0.01109,0.06136 l -0.15288,0.3068 a 0.07869333,0.07869333 0 0 0 0.100186,0.10712 c 0.923867,-0.39 1.79296,-0.38792 2.98376,-0.319627 a 1.26776,1.26776 0 0 1 0.554667,0.159814 c 0.03293,0.01837 0.04333,0.04576 0.03051,0.08147 -0.14768,0.415654 -0.3016,1.459467 0.401786,1.350267 0.45864,-0.07141 0.630241,-0.328987 0.515147,-0.77272 -0.04576,-0.17472 -0.205573,-0.299867 -0.32656,-0.41392 -0.07592,-0.07072 -0.06275,-0.114747 0.03987,-0.13208 2.186773,-0.36296 4.377707,-0.1664 6.62688,-0.08736 0.0364,0.0014 0.04819,0.01941 0.03571,0.05373 -0.457254,1.308667 0.740133,1.865414 1.397066,0.75296 a 0.14837333,0.14837333 0 0 0 0.0208,-0.07627 v -0.741867 a 0.06725333,0.06725333 0 0 1 0.06899,-0.06483 h 0.0024 c 2.040133,0.13312 4.484826,-0.780693 5.166373,-2.84648 a 0.05442667,0.05442667 0 0 1 0.04853,-0.03675 7239.8214,7239.8214 0 0 0 8.028103,-0.343547 c 0.58032,-0.02565 1.3156,0.905147 1.66192,1.309013 a 0.04992,0.04992 0 0 0 0.0853,-0.04472 2.5868267,2.5868267 0 0 1 -0.0128,-1.249386 c 0.008,-0.03432 0.0295,-0.05061 0.0645,-0.04853 0.28392,0.01595 0.57027,0.02219 0.85939,0.01907 0.57651,-0.0073 0.74811,-0.296747 1.09443,-0.791787 a 47.696134,47.696134 0 0 0 0.81258,-1.200853 0.06933333,0.06933333 0 0 1 0.1248,0.01803 c 0.13104,0.422586 0.28184,1.25112 0.57443,1.55376 0.009,0.0087 0.0208,0.01387 0.0333,0.01387 a 0.0468,0.0468 0 0 0 0.0464,-0.0468 l -3.4e-4,-0.0059 -0.33904,-2.617333 a 0.08077333,0.08077333 0 0 1 0.0347,-0.08147 12.473067,12.473067 0 0 0 1.9299,-1.7472 c 0.0343,-0.03779 0.0267,-0.06309 -0.0229,-0.07627 l -0.2451,-0.06448 a 0.10781333,0.10781333 0 0 0 -0.10608,0.02565 57.726241,57.726241 0 0 1 -1.75933,1.504186 c -0.37093,0.30472 -0.51307,0.190667 -0.97725,0.03189 -0.42779,-0.146987 -1.28614,-0.5616 -1.70179,-0.53976 a 0.03258667,0.03258667 0 0 0 -0.016,0.06032 7.9098934,7.9098934 0 0 0 1.95971,0.897173"
       style="fill-rule:nonzero;stroke:#000000;stroke-width:0.100533px;stroke-linejoin:miter;stroke-miterlimit:4"
       id="path374" />
    <path
       style="fill-rule:nonzero;stroke-width:0.346667"
       d="m 6.4018934,59.155547 a 137.76672,137.76672 0 0 0 -0.021493,3.09816 c 0,0.01213 0.00555,0.02149 0.01664,0.02739 0.01976,0.01179 0.031547,0.0059 0.034667,-0.01733 l 0.3906934,-3.066614 c 0.00451,-0.03501 0.02184,-0.04368 0.052347,-0.026 0.1137067,0.06621 0.1910134,0.16536 0.23192,0.29848 a 0.03709333,0.03709333 0 0 0 0.01144,0.01664 l 0.7598934,0.560907 a 0.06413333,0.06413333 0 0 1 0.023227,0.03813 l 0.05408,0.358454 c 0.00312,0.02045 0.016987,0.03813 0.0364,0.04645 0.8801867,0.368853 1.9846667,0.457947 2.9768268,0.5876 0.39,0.05061 0.74464,0.23608 1.135334,0.337307 a 0.0624,0.0624 0 0 0 0.03813,-0.0017 l 0.527973,-0.188586 c 0.126187,-0.04541 0.234694,-0.01837 0.324827,0.08147 0.262773,0.286694 0.531093,0.675654 0.850373,0.85696 a 0.04610667,0.04610667 0 0 0 0.06899,-0.03952 0.04784,0.04784 0 0 0 -0.0035,-0.01699 2.38576,2.38576 0 0 1 -0.157734,-0.72072 l -3.46e-4,-0.0038 a 0.0728,0.0728 0 0 1 0.07245,-0.07245 l 0.0094,6.93e-4 c 0.5252,0.07315 1.306241,0.275947 1.80232,0.167094 0.477013,-0.104694 0.925946,-0.22256 1.40712,-0.24752 0.560907,-0.02912 1.164453,-0.03501 1.68064,-0.07072 1.23552,-0.08597 2.466187,-0.21528 3.692347,-0.388267 0.384106,-0.05477 0.688826,0.08077 0.988,0.288427 a 0.08736,0.08736 0 0 0 0.110586,-0.01005 c 0.27352,-0.267626 0.523814,-0.452746 0.924214,-0.517573 a 23.9668,23.9668 0 0 1 1.846693,-0.226027 c 0.391387,-0.03259 0.65832,0.01421 0.98488,0.18616 a 0.052,0.052 0 0 0 0.07384,-0.05824 l -0.03813,-0.15392 a 0.06344,0.06344 0 0 1 0.05061,-0.07731 c 1.053173,-0.184427 2.128533,-0.249254 3.18968,-0.37648 0.808773,-0.09637 1.844267,-0.35152 2.46168,-0.958187 0.0021,-0.0017 0.0038,-0.0042 0.0055,-0.0062 a 0.03986667,0.03986667 0 0 0 -0.01872,-0.05859 6.5897867,6.5897867 0 0 1 -1.09304,-0.56264 c -0.07627,-0.04853 -0.09949,-0.115786 -0.06968,-0.201066 l 1.734373,-5.008987 c 0.02115,-0.06032 10e-4,-0.0988 -0.06067,-0.11544 -0.861813,-0.233653 -1.855013,-0.660747 -2.59688,0.06552 -0.831306,0.812933 -1.839413,1.855013 -3.394213,3.395253 -0.544267,0.540107 -0.945013,0.46696 -1.670587,0.459334 -0.03987,-3.47e-4 -0.05581,-0.02011 -0.04819,-0.05893 l 0.09811,-0.515146 c 0.0076,-0.0416 -0.0097,-0.06309 -0.05235,-0.06483 l -0.375787,-0.01248 c -0.03189,-0.001 -0.05373,0.01317 -0.06483,0.04333 -0.154613,0.431947 -0.424666,0.609787 -0.890933,0.67704 a 15.403787,15.403787 0 0 1 -2.33688,0.159814 c -0.465573,-0.0035 -0.880187,-0.09811 -1.303813,-0.237814 -1.840107,-0.6032 -3.577947,-1.12112 -5.513734,-0.910693 -0.318933,0.03467 -0.51688,-0.06171 -0.792827,-0.1872 a 0.04853333,0.04853333 0 0 0 -0.05651,0.01248 l -0.236774,0.27768 -3.46e-4,3.47e-4 a 0.05616,0.05616 0 0 1 -0.07904,0.0055 h -2.9e-4 a 0.66560001,0.66560001 0 0 0 -0.338347,-0.16224 l -0.0087,-6.93e-4 a 0.04749333,0.04749333 0 0 0 -0.04749,0.04715 c 0,0.0038 6.94e-4,0.0073 0.0014,0.01109 l 0.05235,0.220827 a 0.0624,0.0624 0 0 1 -0.02323,0.06725 c -0.42224,0.332453 -1.561733,1.211947 -2.081733,1.20952 -1.33328,-0.0055 -2.6669069,-0.0069 -4.0008803,-0.0042 -0.3092266,6.93e-4 -0.56368,0.116133 -0.8586933,0.178533 a 0.07696,0.07696 0 0 1 -0.092213,-0.06968 54.674534,54.674534 0 0 1 -0.1272267,-2.99624 c 0,-0.0073 -0.00347,-0.01179 -0.010747,-0.01421 a 0.93842668,0.93842668 0 0 0 -0.02392,-0.0083 c -0.01352,-0.0049 -0.020453,-3.47e-4 -0.0208,0.01352 l -0.1514933,2.984453 a 0.09568,0.09568 0 0 1 -0.042293,0.07731 l -0.9724,0.663173 a 0.04541333,0.04541333 0 0 0 -0.00312,0.07315 L 6.37033,59.08728 a 0.08216,0.08216 0 0 1 0.031547,0.06829"
       id="path554" />
    <path
       style="fill-rule:nonzero;stroke-width:0.346667"
       d="m 44.361894,59.155547 a 137.76672,137.76672 0 0 0 -0.02149,3.09816 c 0,0.01213 0.0055,0.02149 0.01664,0.02739 0.01976,0.01179 0.03155,0.0059 0.03467,-0.01733 l 0.390686,-3.06662 c 0.0045,-0.03501 0.02184,-0.04368 0.05235,-0.026 0.113707,0.06621 0.191013,0.16536 0.23192,0.29848 a 0.03709333,0.03709333 0 0 0 0.01144,0.01664 l 0.75989,0.560907 a 0.06413333,0.06413333 0 0 1 0.02323,0.03813 l 0.05408,0.358454 c 0.0031,0.02045 0.01699,0.03813 0.0364,0.04645 0.880187,0.368853 1.984667,0.457947 2.976827,0.5876 0.39,0.05061 0.74464,0.23608 1.135333,0.337307 a 0.0624,0.0624 0 0 0 0.03813,-0.0017 l 0.527974,-0.188586 c 0.126186,-0.04541 0.234693,-0.01837 0.324826,0.08147 0.262774,0.286694 0.531094,0.675654 0.850374,0.85696 a 0.04610667,0.04610667 0 0 0 0.06899,-0.03952 0.04784,0.04784 0 0 0 -0.0035,-0.01699 2.38576,2.38576 0 0 1 -0.157734,-0.72072 l -3.46e-4,-0.0038 a 0.0728,0.0728 0 0 1 0.07245,-0.07245 l 0.0094,6.93e-4 c 0.5252,0.07315 1.30624,0.275947 1.80232,0.167094 0.477014,-0.104694 0.925947,-0.22256 1.40712,-0.24752 0.560907,-0.02912 1.164454,-0.03501 1.68064,-0.07072 1.23552,-0.08597 2.466187,-0.21528 3.692347,-0.388267 0.384107,-0.05477 0.688827,0.08077 0.988,0.288427 a 0.08736,0.08736 0 0 0 0.110587,-0.01005 c 0.27352,-0.267626 0.523813,-0.452746 0.924213,-0.517573 a 23.9668,23.9668 0 0 1 1.846693,-0.226027 c 0.391387,-0.03259 0.65832,0.01421 0.98488,0.18616 a 0.052,0.052 0 0 0 0.07384,-0.05824 l -0.03813,-0.15392 a 0.06344,0.06344 0 0 1 0.05061,-0.07731 c 1.053174,-0.184427 2.128534,-0.249254 3.18968,-0.37648 0.808774,-0.09637 1.844267,-0.35152 2.46168,-0.958187 0.0021,-0.0017 0.0038,-0.0042 0.0055,-0.0062 a 0.03986667,0.03986667 0 0 0 -0.01872,-0.05859 6.5897867,6.5897867 0 0 1 -1.09304,-0.56264 c -0.07627,-0.04853 -0.09949,-0.115786 -0.06968,-0.201066 l 1.734373,-5.008987 c 0.02115,-0.06032 10e-4,-0.0988 -0.06067,-0.11544 -0.861814,-0.233653 -1.855014,-0.660747 -2.59688,0.06552 -0.831307,0.812933 -1.839414,1.855013 -3.394214,3.395253 -0.544266,0.540107 -0.945013,0.46696 -1.670586,0.459334 -0.03987,-3.47e-4 -0.05581,-0.02011 -0.04819,-0.05893 l 0.09811,-0.515146 c 0.0076,-0.0416 -0.0097,-0.06309 -0.05235,-0.06483 l -0.375787,-0.01248 c -0.03189,-10e-4 -0.05373,0.01317 -0.06483,0.04333 -0.154614,0.431947 -0.424667,0.609787 -0.890934,0.67704 a 15.403787,15.403787 0 0 1 -2.33688,0.159814 c -0.465573,-0.0035 -0.880186,-0.09811 -1.303813,-0.237814 -1.840107,-0.6032 -3.577947,-1.12112 -5.513733,-0.910693 -0.318934,0.03467 -0.51688,-0.06171 -0.792827,-0.1872 a 0.04853333,0.04853333 0 0 0 -0.05651,0.01248 l -0.236773,0.27768 -3.47e-4,3.47e-4 a 0.05616,0.05616 0 0 1 -0.07904,0.0055 h -3.46e-4 A 0.66560001,0.66560001 0 0 0 51.8124,55.861901 l -0.0087,-6.93e-4 a 0.04749333,0.04749333 0 0 0 -0.04749,0.04715 c 0,0.0038 6.93e-4,0.0073 0.0014,0.01109 l 0.05235,0.220827 a 0.0624,0.0624 0 0 1 -0.02323,0.06725 c -0.42224,0.332453 -1.561733,1.211947 -2.081733,1.20952 -1.33328,-0.0055 -2.666907,-0.0069 -4.00088,-0.0042 -0.309227,6.93e-4 -0.56368,0.116133 -0.858693,0.178533 a 0.07696,0.07696 0 0 1 -0.09221,-0.06968 54.674534,54.674534 0 0 1 -0.127226,-2.99624 c 0,-0.0073 -0.0035,-0.01179 -0.01075,-0.01421 a 0.93842668,0.93842668 0 0 0 -0.02392,-0.0083 c -0.01352,-0.0049 -0.02045,-3.47e-4 -0.0208,0.01352 l -0.151493,2.984453 a 0.09568,0.09568 0 0 1 -0.04229,0.07731 l -0.9724,0.663173 a 0.04541333,0.04541333 0 0 0 -0.0031,0.07315 l 0.929067,0.77272 a 0.08216,0.08216 0 0 1 0.03155,0.06829"
       id="path526" />
    <path
       d="m 325.10816,11.80816 a 9.2958668,9.2958668 0 0 1 0.0156,-3.5956266 c 1.01227,-2.2152 2.78547,-3.5724 5.3196,-4.0716 h 1.8512 c 1.36067,0.3622666 2.5792,0.962 3.6556,1.7992 0.6084,0.4784 1.02094,1.09096 1.2376,1.8380267 a 6.3987734,6.3987734 0 0 1 0.55918,2.5351729 c 0.018,1.3 -0.29398,5.772 -1.89558,6.044827 -0.0763,0.01213 -0.15253,0.0069 -0.2288,-0.0156 l -0.6188,-0.1924 c -0.0971,-0.0312 -0.1768,-0.0059 -0.2392,0.07557 -0.2704,0.355334 -0.4316,0.746027 -0.4836,1.172427 l -0.23642,0.6708 c -0.1144,0.220134 -0.33558,0.378907 -0.66318,0.475974 -0.39693,0.220133 -0.88469,0.357066 -1.46362,0.4108 -0.87014,0.0832 -1.67718,-0.04507 -2.42078,-0.3848 -0.89682,-0.3172 -0.88642,-1.0972 -1.11002,-1.838374 -0.0364,-0.116133 -0.11371,-0.158427 -0.23158,-0.127227 l -0.59522,0.158427 a 0.71760001,0.71760001 0 0 1 -0.76718,-0.2756 l -1.07362,-1.500027 -0.38238,-1.9916 -0.0856,-0.200373 c -0.1612,-0.3172 -0.20904,-0.646533 -0.14318,-0.988 z m 9.61238,-0.766827 c -0.5928,-0.2444 -1.144,-0.36504 -1.6536,-0.361573 -0.25134,0.0832 -0.44928,0.22672 -0.59558,0.429173 a 0.34493334,0.34493334 0 0 0 -0.0648,0.2548 l 0.18442,1.640427 1.0296,1.0244 c 1.71358,0.418773 1.8772,-0.955067 1.78638,-2.191627 a 0.33626667,0.33626667 0 0 0 -0.0988,-0.210773 z m -5.99318,-0.1456 c -1.8356,0.312 -2.59202,1.9396 -1.02162,3.2136 0.4056,0.1144 0.75226,0.06136 1.04,-0.158773 0.84586,-0.584133 1.27469,-1.271227 1.28682,-2.061627 -0.0347,-0.507866 -0.23642,-0.815706 -0.60562,-0.923173 -0.15774,0.0208 -0.26347,0.0052 -0.3172,-0.0468 z m 3.6192,4.354827 c -0.0347,-0.6396 -0.19482,-1.150933 -0.48082,-1.534 -0.13347,-0.0676 -0.21667,-0.156 -0.2496,-0.2652 -0.28774,-0.2288 -0.55571,-0.24856 -0.80358,-0.05963 -0.598,0.783467 -0.71656,1.636614 -0.34042,2.5532 0.034,0.0832 0.0953,0.134854 0.182,0.156 0.47181,0.114747 0.93253,0.138667 1.3832,0.0676 0.0451,-0.396933 0.14802,-0.70304 0.30922,-0.917973 z m -9.5836,10.7432 -0.87602,-0.844826 a 0.25514667,0.25514667 0 0 1 -0.0832,-0.210774 c 0.0503,-0.762666 0.44893,-1.10136 1.196,-1.016426 1.70802,-0.09117 3.6816,-0.975174 5.252,-1.638 0.32482,-0.137974 0.58482,-0.371974 0.92282,-0.5356 a 0.31616,0.31616 0 0 0 -0.0572,-0.1716 l -2.10322,-0.860774 c -0.9048,-0.199333 -1.71011,-0.49296 -2.41558,-0.881226 -0.78242,-0.1404 -1.8252,0.106426 -2.51922,-0.4576 a 0.30368,0.30368 0 0 1 -0.11198,-0.189974 c -0.0537,-0.339733 -0.002,-0.568533 0.156,-0.6864 0.23574,-0.07973 0.42294,-0.206266 0.5616,-0.3796 l 0.06,-0.832 c -0.026,-0.164667 -0.0201,-0.305067 0.018,-0.4212 a 0.28010667,0.28010667 0 0 1 0.1716,-0.179227 c 0.40907,-0.162933 0.87984,-0.122373 1.41198,0.122027 l 0.9412,0.7124 1.48442,1.0452 c 1.17,0.599734 2.36774,1.161334 3.5932,1.6848 1.6068,0.683974 1.74478,-0.03363 3.0316,-0.543226 2.01934,-0.799067 3.76411,-1.959707 5.23398,-3.481574 0.47146,-0.362267 0.78346,-0.387227 0.936,-0.07523 0.16362,0.104 0.25722,0.189627 0.27282,0.4004 0.0624,0.814667 0.41947,1.487894 1.0712,2.020027 0.28358,0.5356 -0.21042,0.959574 -0.76682,0.715174 -1.7732,0.4056 -3.12971,0.799066 -4.06918,1.1804 -0.33453,0.1352 -1.11453,0.510293 -2.34,1.125626 1.63974,0.845867 3.25278,1.468134 4.83878,1.8668 0.61602,0.153574 2.52962,-0.026 2.55562,0.990774 l 0.0676,0.04923 v 0.13 a 8.8108801,8.8108801 0 0 0 -0.8216,1.8252 c -0.24162,0.754 -0.754,0.78 -1.30242,0.257574 -1.23587,-1.176934 -2.5168,-2.008934 -3.8428,-2.496 -0.94918,-0.3484 -1.84358,-0.855574 -2.704,-1.261174 -1.1804,-0.558826 -2.0592,0.148374 -3.042,0.6968 -0.1404,0.157734 -0.35118,0.261734 -0.63198,0.312 l -3.3124,1.874774 -0.9984,1.0192 -0.5252,0.4212 h -0.88122 c -0.36574,-0.225334 -0.48984,-0.5512 -0.37198,-0.9776 -0.0416,-0.107467 -0.0416,-0.210774 0,-0.309574 z"
       style="fill:#ffffff;stroke-width:0.346667"
       id="path384" />
    <path
       style="fill-rule:nonzero;stroke-width:0.346667"
       d="m 290.64811,17.931334 0.003,-1.446641 a 0.00936,0.00936 0 0 0 -0.009,-0.008 0.00970667,0.00970667 0 0 0 -0.008,0.0052 l -0.5148,1.664347 a 0.0936,0.0936 0 0 1 -0.0676,0.06587 l -1.18906,0.340773 c -0.0319,0.009 -0.0468,-0.0031 -0.0444,-0.0364 l 0.0506,-0.73424 c 0.007,-0.09949 -0.0132,-0.105387 -0.0614,-0.01803 L 288.21673,18.842 a 0.08216,0.08216 0 0 1 -0.0714,0.04229 h -1.13394 c -0.0302,0 -0.0451,-0.01491 -0.0451,-0.04507 v -2.368081 c 0,-0.03051 0.009,-0.05859 0.027,-0.08389 l 0.7904,-1.131173 c 0.0319,-0.04576 0.0222,-0.05789 -0.0298,-0.03605 l -0.73632,0.31616 a 0.03709333,0.03709333 0 0 1 -0.0513,-0.03363 V 14.43936 c 0,-0.0312 0.0146,-0.052 0.044,-0.0624 l 1.13949,-0.400053 a 0.07418667,0.07418667 0 0 1 0.0822,0.01907 l 1.12008,1.11904 a 0.01109333,0.01109333 0 0 0 0.0198,-0.0066 0.01282667,0.01282667 0 0 0 -0.002,-0.0069 l -1.15197,-1.782213 c -0.0149,-0.02357 -0.0354,-0.03085 -0.0614,-0.02184 l -1.93613,0.64584 c -0.0343,0.01144 -0.0572,3.47e-4 -0.0686,-0.03328 l -0.37752,-1.084027 a 0.01386667,0.01386667 0 0 0 -0.005,-0.0073 c -0.006,-0.0042 -0.0149,-0.0021 -0.0194,0.0045 a 0.01352,0.01352 0 0 0 -0.002,0.008 v 1.69312 c 0,0.03813 -0.0173,0.04853 -0.0517,0.03155 l -1.14642,-0.572693 c -10e-4,-6.94e-4 -0.002,-10e-4 -0.003,-6.94e-4 -0.002,3.47e-4 -0.004,0.0031 -0.003,0.0059 0,0.001 3.5e-4,0.0021 10e-4,0.0028 l 1.16376,1.159253 a 0.13762667,0.13762667 0 0 1 0.0399,0.09568 v 1.117654 a 0.05962667,0.05962667 0 0 1 -0.06,0.05859 h -1.12181 A 0.08146667,0.08146667 0 0 1 284.49374,16.38 l -0.63232,-1.14816 a 0.01282667,0.01282667 0 0 0 -0.0125,-0.0094 0.01282667,0.01282667 0 0 0 -0.0125,0.01283 l 3.4e-4,0.0038 0.0569,0.81744 c 0.002,0.03501 -0.0132,0.04784 -0.0468,0.03883 l -1.19878,-0.340427 a 0.078,0.078 0 0 1 -0.0562,-0.05512 l -0.51237,-1.66608 c -3.5e-4,-0.0035 -0.003,-0.0059 -0.007,-0.0059 a 0.00728,0.00728 0 0 0 -0.008,0.0073 l 3.5e-4,0.0014 v 1.461547 c 0,0.04819 -0.0187,0.05755 -0.0562,0.02739 l -1.13742,-0.910694 a 0.01005333,0.01005333 0 0 0 -0.0156,0.008 c 0,0.0017 3.5e-4,0.0031 0.001,0.0045 l 0.7436,1.199814 c 0.0166,0.02669 0.0399,0.04853 0.0679,0.06309 l 0.94397,0.499893 c 0.0354,0.01907 0.0444,0.04645 0.0263,0.08216 l -0.55224,1.103094 c -6.9e-4,0.0014 -6.9e-4,0.0031 -6.9e-4,0.0049 0,0.0069 0.006,0.01248 0.0125,0.01248 a 0.01386667,0.01386667 0 0 0 0.008,-0.0028 l 1.1329,-1.132907 c 0.0253,-0.02531 0.0537,-0.03016 0.0856,-0.01456 l 2.37709,1.18872 a 0.07626667,0.07626667 0 0 1 0.0444,0.07245 v 6.036853 c 0,0.03016 -0.0153,0.04507 -0.0454,0.04507 h -7.29525 a 0.04541333,0.04541333 0 0 0 -0.0451,0.04507 v 1.084374 c 0,0.03016 0.0149,0.04507 0.0451,0.04507 h 28.18747 c 0.0302,0 0.0451,-0.01491 0.0451,-0.04507 V 23.83056 a 0.04541333,0.04541333 0 0 0 -0.0451,-0.04507 h -4.83358 a 0.08042667,0.08042667 0 0 1 -0.0721,-0.03987 l -0.56091,-0.896133 a 0.15669333,0.15669333 0 0 0 -0.0735,-0.06032 l -1.7479,-0.699574 a 0.15010667,0.15010667 0 0 0 -0.0978,-0.0045 l -1.62448,0.464533 c -0.0312,0.009 -0.0468,0.02947 -0.0468,0.06136 v 0.562293 a 0.04818667,0.04818667 0 0 1 -0.0478,0.04784 0.04402667,0.04402667 0 0 1 -0.0163,-0.0031 l -0.93704,-0.331413 a 0.06066667,0.06066667 0 0 0 -0.0693,0.01629 l -0.84934,0.848294 a 0.10989333,0.10989333 0 0 1 -0.0822,0.03432 h -8.52037 c -0.0319,0 -0.0478,-0.01595 -0.0478,-0.04784 v -3.58592 a 0.0728,0.0728 0 0 1 0.0423,-0.06933 l 2.37606,-1.187333 a 0.06621333,0.06621333 0 0 1 0.0777,0.01283 l 1.12112,1.12112 c 0.002,0.0035 0.007,0.0055 0.0104,0.0055 0.007,0 0.0128,-0.0059 0.0128,-0.01283 a 0.01144,0.01144 0 0 0 -0.002,-0.0073 L 290.06259,18.9176 a 0.04888,0.04888 0 0 1 0.0215,-0.06483 l 0.9523,-0.50336 a 0.12029333,0.12029333 0 0 0 0.0614,-0.07384 l 0.76266,-2.391654 v -0.0014 a 0.00797333,0.00797333 0 0 0 -0.008,-0.008 0.00797333,0.00797333 0 0 0 -0.007,0.0031 l -1.14989,2.06544 a 0.026,0.026 0 0 1 -0.0229,0.01387 0.02530667,0.02530667 0 0 1 -0.025,-0.02531 v -3.46e-4"
       id="path510" />
  </g>
</svg>
